<svg width="22" height="22" fill="none" xmlns="http://www.w3.org/2000/svg"><g clip-path="url('#clip0_2272_740')"><path d="M21.26 19.726a307.48 307.48 0 0 1-.775-3.992c-1.547-8.147-2.391-12.126-3-12.7-.492-.466-2.12-1-2.597-1.149L13.86.514l-.015-.015c-.007-.008-.012-.017-.02-.025-.006-.007-.015-.01-.022-.017a.424.424 0 0 0-.038-.029C13.265.004 12.215 0 11 0 9.784 0 8.734.004 8.234.429a.334.334 0 0 0-.036.027c-.007.007-.017.011-.024.018L8.155.5 8.14.514 7.11 1.885c-.475.15-2.104.683-2.596 1.149-.609.574-1.452 4.553-3 12.7a313.56 313.56 0 0 1-.774 3.992.366.366 0 0 0 .307.437l2.567.367a.368.368 0 0 0 .412-.298c.458-2.536 1.69-9.25 1.89-9.85.126-.379.391-1.04.618-1.59.237.929.388 1.96.421 2.912l-.415 2.15C6.066 15.982 5.5 18.93 5.5 20.9c0 .006.003.01.003.017a.36.36 0 0 0 .02.099c.004.01.005.022.01.032.017.04.041.078.073.109.006.007.015.01.022.016.023.02.046.04.075.055l.017.007.008.004C7.272 21.999 9.513 22 11 22s3.728-.001 5.271-.761l.009-.004.017-.007c.029-.014.052-.035.075-.055.007-.006.016-.01.022-.016a.365.365 0 0 0 .074-.109c.004-.01.005-.021.009-.032a.348.348 0 0 0 .02-.1c0-.005.003-.01.003-.016 0-1.969-.566-4.918-1.04-7.036l-.416-2.16c.033-.952.184-1.984.42-2.912.228.55.493 1.211.62 1.59.2.6 1.43 7.314 1.889 9.85a.367.367 0 0 0 .412.298l2.567-.367a.367.367 0 0 0 .307-.437ZM13.415 3.333l.027-.099c.018-.068.037-.137.051-.198.009-.037.014-.068.021-.102.011-.051.022-.103.03-.148.005-.032.007-.058.01-.087.003-.03.01-.065.01-.09l.2-1 .512.682-.527 2.856a6.138 6.138 0 0 1-.253.977 5.598 5.598 0 0 1-1.605 2.4c-.084.072-.167.14-.25.203l-.08.058c-.055.041-.11.08-.164.117l-.031.02V7.839c.008-.01.016-.024.025-.034a3.592 3.592 0 0 0 .236-.342 6.41 6.41 0 0 0 .278-.48 13.779 13.779 0 0 0 .375-.742 22.633 22.633 0 0 0 .369-.82l.07-.163a23.057 23.057 0 0 0 .274-.688c.018-.046.036-.091.052-.136.037-.099.072-.194.106-.29l.037-.104c.09-.255.166-.494.227-.707Zm-2.054 3.125-.044.084a12.035 12.035 0 0 1-.16.294c-.036.062-.07.12-.104.175l-.04.067-.014.02-.013-.02-.04-.067a5.547 5.547 0 0 1-.156-.267 9.347 9.347 0 0 1-.11-.203l-.043-.083c-.05-.096-.1-.196-.15-.3l-.05-.107a19.63 19.63 0 0 1-.107-.227l-.06-.13c-.035-.077-.069-.155-.103-.234l-.053-.12a22.773 22.773 0 0 1-.144-.338l-.044-.109a22.418 22.418 0 0 1-.243-.613l-.044-.116a26.97 26.97 0 0 1-.225-.63l-.032-.098a12.493 12.493 0 0 1-.062-.195l-.025-.08a6.78 6.78 0 0 1-.064-.228h3.536c-.018.07-.04.146-.064.227l-.025.081-.062.194a11.629 11.629 0 0 1-.14.41 22.5 22.5 0 0 1-.117.32l-.044.115a27.04 27.04 0 0 1-.243.613l-.045.109c-.047.113-.095.226-.144.338l-.052.12-.104.234-.059.13-.108.23-.05.104c-.05.103-.1.204-.149.3ZM11 .733c.75 0 1.74 0 2.159.17l-.087.432-.173.865H9.101l-.173-.865L8.84.903C9.259.733 10.25.733 11 .733Zm-2.765.877.2.998c0 .026.007.061.01.091.003.029.005.055.01.087.008.045.019.097.03.148l.02.102c.015.061.034.13.053.198l.026.099c.06.213.137.452.227.707l.038.105c.033.095.068.19.105.289.016.045.034.09.052.136l.105.272.062.153c.036.088.07.175.108.263.022.054.046.109.07.163a13.612 13.612 0 0 0 .183.418l.108.24.077.163c.037.077.073.153.11.227l.079.158a13.705 13.705 0 0 0 .366.677 8.936 8.936 0 0 0 .173.276 3.64 3.64 0 0 0 .161.225l.025.034v1.083l-.031-.02a4.69 4.69 0 0 1-.159-.113 5.177 5.177 0 0 1-.289-.227l-.047-.038a5.293 5.293 0 0 1-.523-.53A5.872 5.872 0 0 1 8.25 5.142L7.723 2.29l.512-.681ZM11 21.267c-.953 0-2.233 0-3.39-.208l.007-.002a5.978 5.978 0 0 0 .634-.2c.167-.063.33-.13.485-.204l.006-.004a5.317 5.317 0 0 0 .545-.31c.14-.09.277-.185.405-.288.002 0 .003-.002.005-.004a4.596 4.596 0 0 0 .442-.409 4.48 4.48 0 0 0 .315-.362l.004-.006a4.26 4.26 0 0 0 .326-.497 4.3 4.3 0 0 0 .216-.429 4.297 4.297 0 0 0 .27.522 4.38 4.38 0 0 0 .66.843 4.717 4.717 0 0 0 .864.681 5.403 5.403 0 0 0 1.052.502c.177.062.358.12.545.167-1.158.208-2.438.208-3.391.208Z" fill="#fff"/></g><defs><clipPath id="clip0_2272_740"><path fill="#fff" d="M0 0h22v22H0z"/></clipPath></defs></svg>