<svg width="280" height="66" viewBox="45 0 280 66" fill="none" xmlns="http://www.w3.org/2000/svg"><path d="M56.613 46.72h8.96V52h-15.8V23.92h6.84v22.8Zm22.383 5.6c-2.187 0-4.16-.467-5.92-1.4-1.734-.933-3.107-2.267-4.12-4-.987-1.733-1.48-3.76-1.48-6.08 0-2.293.506-4.307 1.52-6.04 1.013-1.76 2.4-3.107 4.16-4.04 1.76-.933 3.733-1.4 5.92-1.4 2.186 0 4.16.467 5.92 1.4 1.76.933 3.146 2.28 4.16 4.04 1.013 1.733 1.52 3.747 1.52 6.04s-.52 4.32-1.56 6.08a10.288 10.288 0 0 1-4.2 4c-1.76.933-3.734 1.4-5.92 1.4Zm0-5.92c1.306 0 2.413-.48 3.32-1.44.933-.96 1.4-2.333 1.4-4.12s-.454-3.16-1.36-4.12c-.88-.96-1.974-1.44-3.28-1.44-1.334 0-2.44.48-3.32 1.44-.88.933-1.32 2.307-1.32 4.12 0 1.787.426 3.16 1.28 4.12.88.96 1.973 1.44 3.28 1.44Zm13.948-5.56c0-2.32.467-4.347 1.4-6.08.96-1.733 2.28-3.067 3.96-4 1.707-.933 3.654-1.4 5.84-1.4 2.8 0 5.134.733 7 2.2 1.894 1.467 3.134 3.533 3.72 6.2h-7.28c-.613-1.707-1.8-2.56-3.56-2.56-1.253 0-2.253.493-3 1.48-.746.96-1.12 2.347-1.12 4.16 0 1.813.374 3.213 1.12 4.2.747.96 1.747 1.44 3 1.44 1.76 0 2.947-.853 3.56-2.56h7.28c-.586 2.613-1.826 4.667-3.72 6.16-1.893 1.493-4.226 2.24-7 2.24-2.186 0-4.133-.467-5.84-1.4-1.68-.933-3-2.267-3.96-4-.933-1.733-1.4-3.76-1.4-6.08Zm24.219-.04c0-2.293.427-4.307 1.28-6.04.88-1.733 2.067-3.067 3.56-4 1.493-.933 3.16-1.4 5-1.4 1.573 0 2.947.32 4.12.96 1.2.64 2.12 1.48 2.76 2.52v-3.16h6.84V52h-6.84v-3.16c-.667 1.04-1.6 1.88-2.8 2.52-1.173.64-2.547.96-4.12.96-1.813 0-3.467-.467-4.96-1.4-1.493-.96-2.68-2.307-3.56-4.04-.853-1.76-1.28-3.787-1.28-6.08Zm16.72.04c0-1.707-.48-3.053-1.44-4.04-.933-.987-2.08-1.48-3.44-1.48-1.36 0-2.52.493-3.48 1.48-.933.96-1.4 2.293-1.4 4 0 1.707.467 3.067 1.4 4.08.96.987 2.12 1.48 3.48 1.48 1.36 0 2.507-.493 3.44-1.48.96-.987 1.44-2.333 1.44-4.04Zm18.628-18.44V52h-6.84V22.4h6.84Zm15.117 29.88c-2.053 0-3.893-.333-5.52-1-1.626-.667-2.933-1.653-3.92-2.96-.96-1.307-1.466-2.88-1.52-4.72h7.28c.107 1.04.467 1.84 1.08 2.4.614.533 1.414.8 2.4.8 1.014 0 1.814-.227 2.4-.68.587-.48.88-1.133.88-1.96 0-.693-.24-1.267-.72-1.72-.453-.453-1.026-.827-1.72-1.12-.666-.293-1.626-.627-2.88-1-1.813-.56-3.293-1.12-4.44-1.68-1.146-.56-2.133-1.387-2.96-2.48-.826-1.093-1.24-2.52-1.24-4.28 0-2.613.947-4.653 2.84-6.12 1.894-1.493 4.36-2.24 7.4-2.24 3.094 0 5.587.747 7.48 2.24 1.894 1.467 2.907 3.52 3.04 6.16h-7.4c-.053-.907-.386-1.613-1-2.12-.613-.533-1.4-.8-2.36-.8-.826 0-1.493.227-2 .68-.506.427-.76 1.053-.76 1.88 0 .907.427 1.613 1.28 2.12.854.507 2.187 1.053 4 1.64 1.814.613 3.28 1.2 4.4 1.76 1.147.56 2.134 1.373 2.96 2.44.827 1.067 1.24 2.44 1.24 4.12 0 1.6-.413 3.053-1.24 4.36-.8 1.307-1.973 2.347-3.52 3.12-1.546.773-3.373 1.16-5.48 1.16Zm28.17-22.84c2.56 0 4.613.853 6.16 2.56 1.546 1.68 2.32 4 2.32 6.96V52h-6.8V39.88c0-1.493-.387-2.653-1.16-3.48-.774-.827-1.814-1.24-3.12-1.24-1.307 0-2.347.413-3.12 1.24-.774.827-1.16 1.987-1.16 3.48V52h-6.84V22.4h6.84v10.28c.693-.987 1.64-1.773 2.84-2.36s2.546-.88 4.04-.88Zm16.673-2.08c-1.2 0-2.187-.347-2.96-1.04-.747-.72-1.12-1.6-1.12-2.64 0-1.067.373-1.947 1.12-2.64.773-.72 1.76-1.08 2.96-1.08 1.173 0 2.133.36 2.88 1.08.773.693 1.16 1.573 1.16 2.64 0 1.04-.387 1.92-1.16 2.64-.747.693-1.707 1.04-2.88 1.04Zm3.4 2.32V52h-6.84V29.68h6.84Zm11.797 3.72c.8-1.227 1.8-2.187 3-2.88 1.2-.72 2.533-1.08 4-1.08v7.24h-1.88c-1.707 0-2.987.373-3.84 1.12-.854.72-1.28 2-1.28 3.84V52h-6.84V29.68h6.84v3.72Zm22.709 12.8V52h-3.48c-2.48 0-4.413-.6-5.8-1.8-1.387-1.227-2.08-3.213-2.08-5.96v-8.88h-2.72v-5.68h2.72v-5.44h6.84v5.44h4.48v5.68h-4.48v8.96c0 .667.16 1.147.48 1.44.32.293.853.44 1.6.44h2.44Z" fill="#99AF8C"/><path d="M294.15 64.877c-.202-.028-4.059-.344-8.571-.703-4.513-.359-10.743-.858-13.845-1.109-5.208-.422-5.667-.48-5.984-.768-.189-.171-.407-.43-.485-.574-.093-.17-.085-.958.022-2.258.121-1.48.222-2.04.389-2.168.124-.095.318-.137.431-.094.163.062.206.51.206 2.178 0 2.042.009 2.104.329 2.233.182.073 6.694.665 14.472 1.317 10.559.884 14.243 1.147 14.538 1.035.226-.086.423-.291.463-.482.037-.183.207-2.038.378-4.121.171-2.084.835-9.656 1.476-16.828.642-7.172 1.216-13.4 1.275-13.841.104-.769.127-.801.547-.801.439 0 .439 0 .407 1.456-.018.802-.725 8.915-1.571 18.029-1.244 13.408-1.585 16.642-1.783 16.943-.135.204-.363.434-.508.511-.144.077-.613.13-1.041.118a14.084 14.084 0 0 1-1.145-.073ZM265.747 54.58c-.112-.134-.144-.486-.091-.99.046-.43.443-4.936.883-10.012.439-5.077.799-9.322.799-9.434 0-.112-.049-.204-.11-.203-.06 0-1.296.95-2.747 2.11-2.419 1.937-2.686 2.111-3.231 2.113-.481 0-.679-.089-1.042-.472-.247-.26-1.073-1.26-1.835-2.222a551.373 551.373 0 0 1-3.169-4.053c-1.428-1.845-1.784-2.398-1.782-2.769.001-.255.051-.534.11-.62.059-.087 1.327-1.171 2.818-2.41a204.683 204.683 0 0 1 4.745-3.82 85.215 85.215 0 0 1 4.007-2.877c1.084-.72 2.542-1.593 3.239-1.94a22.118 22.118 0 0 1 2.44-1.01c.645-.21 1.733-.513 2.418-.673a31.14 31.14 0 0 1 2.248-.431c.844-.119 1.306-.313 2.93-1.234a138.85 138.85 0 0 0 3.832-2.273c1.048-.649 2.185-1.256 2.528-1.35.604-.165.622-.188.622-.773 0-.4.091-.684.268-.844.147-.133.486-.241.752-.241.267 0 .743-.077 1.058-.171.315-.094.764-.387.998-.652.233-.264.494-.728.578-1.03a5.35 5.35 0 0 0 .155-1.187c0-.373-.124-.856-.3-1.168a3.076 3.076 0 0 0-.784-.862 4.108 4.108 0 0 0-.981-.47 4.623 4.623 0 0 0-1.053-.142c-.306 0-.81.129-1.12.286-.311.158-.796.555-1.078.883-.283.328-.585.88-.673 1.227-.088.347-.268.672-.4.722a.494.494 0 0 1-.442-.074c-.111-.091-.201-.254-.201-.361 0-.108.142-.573.315-1.034.214-.568.557-1.078 1.063-1.58.532-.528.947-.797 1.445-.935.417-.115 1.069-.164 1.616-.12.505.04 1.187.21 1.518.377.33.168.868.608 1.196.978.328.37.707 1.005.842 1.41.171.51.223 1.001.169 1.592-.05.543-.216 1.088-.456 1.496-.23.39-.654.81-1.077 1.067-.383.234-.921.502-1.195.596-.274.095-.653.172-.843.172-.284 0-.344.075-.344.435 0 .353.09.472.476.633.262.11 1.992 1.517 3.846 3.127 2.979 2.589 3.455 2.949 4.102 3.102.403.096 1.297.414 1.986.707.689.294 1.957.951 2.818 1.461.861.51 2.081 1.332 2.71 1.827.689.542 3.119 3.025 6.118 6.254 2.736 2.945 5.123 5.56 5.305 5.81.212.295.329.667.329 1.048 0 .523-.09.68-.769 1.336-.423.409-2.277 2.093-4.12 3.743-2.406 2.154-3.481 3.025-3.811 3.086-.253.047-.633.02-.845-.06-.211-.08-1.118-.972-2.014-1.983-1.408-1.586-1.609-1.876-1.477-2.122.085-.157.242-.285.35-.285.108 0 .904.754 1.768 1.675 1.241 1.324 1.653 1.676 1.96 1.676.304 0 1.106-.669 3.685-3.071a575.987 575.987 0 0 0 3.789-3.553c.361-.353.458-.542.364-.71-.071-.125-2.563-2.855-5.538-6.065-4.64-5.008-5.587-5.958-6.664-6.686a45.246 45.246 0 0 0-2.188-1.387 18.47 18.47 0 0 0-1.758-.88c-.454-.19-1.031-.387-1.281-.44-.455-.096-.457-.095-1.006 1.186-.302.704-.781 1.663-1.063 2.13a10.734 10.734 0 0 1-1.266 1.614 11.674 11.674 0 0 1-1.563 1.3 8.975 8.975 0 0 1-1.635.824c-.453.158-1.307.362-1.899.454-.627.097-1.604.127-2.343.072-.697-.052-1.653-.191-2.124-.31-.472-.119-1.408-.484-2.081-.812a8.703 8.703 0 0 1-2.271-1.587c-.576-.546-1.27-1.36-1.542-1.808a12.298 12.298 0 0 1-.852-1.796 9.905 9.905 0 0 1-.458-2.075c-.101-1.096-.101-1.096-1.005-1.07-.497.013-1.42.164-2.05.335-.631.171-1.938.695-2.905 1.164-.967.469-2.649 1.437-3.736 2.152-1.088.715-2.934 2.01-4.103 2.877a117.4 117.4 0 0 0-3.589 2.78c-.806.66-1.883 1.625-2.393 2.142-.739.75-.917 1.018-.879 1.323.028.222 1.278 2.002 2.979 4.242 1.921 2.53 3.048 3.892 3.271 3.955.237.066.484-.008.806-.241.256-.185 1.655-1.302 3.109-2.482 2.645-2.145 2.645-2.145 2.987-5.4.188-1.791.397-3.404.465-3.584.068-.18.216-.328.329-.328.113 0 .279.09.371.198.124.15-.143 3.685-1.076 14.242-.682 7.724-1.293 14.338-1.356 14.699-.09.508-.184.665-.421.699-.169.024-.384-.05-.48-.165Zm21.81-30.327c.443-.117 1.268-.44 1.832-.717.565-.277 1.451-.886 1.968-1.351.518-.466 1.194-1.235 1.501-1.708.308-.473.559-.932.559-1.02 0-.089-1.005-.748-2.234-1.465a639.465 639.465 0 0 0-3.838-2.22c-.883-.505-1.74-.919-1.905-.92-.165 0-2.147.666-4.403 1.48-2.256.815-4.156 1.528-4.221 1.584-.065.056.017.486.183.955a9.08 9.08 0 0 0 .84 1.66c.296.443.894 1.152 1.328 1.574.434.422 1.164.954 1.623 1.181.458.228 1.168.524 1.577.657.409.133 1.035.299 1.392.368.356.07 1.175.133 1.82.141.645.008 1.535-.082 1.978-.199Zm-2.198 19.38c0-.046.24-.558.533-1.137.293-.58.848-1.512 1.232-2.073a15.064 15.064 0 0 1 1.586-1.884c.683-.665.852-.91.729-1.057-.088-.105-.215-.191-.281-.191-.067 0-.591.465-1.165 1.033-.573.568-1.259 1.371-1.524 1.785-.264.413-.726 1.21-1.028 1.771-.547 1.02-.547 1.02-.466.028.045-.545.19-1.43.323-1.966.133-.537.478-1.428.767-1.981.41-.785.714-1.143 1.38-1.63.469-.345 1.203-.79 1.63-.991.427-.201 1.263-.5 1.857-.663a14.716 14.716 0 0 1 1.98-.39c.9-.091.9-.091.766.903-.074.547-.329 1.599-.567 2.337-.249.774-.688 1.724-1.038 2.244-.333.496-.973 1.19-1.423 1.54-.451.352-1.287.866-1.859 1.143-.573.278-1.512.635-2.088.794-.576.158-1.114.33-1.195.38-.082.05-.149.052-.149.006Zm-2.222-.3c-.059-.224-.295-.328-1.079-.475-.552-.104-1.535-.438-2.184-.742-.65-.305-1.709-.946-2.353-1.424-.645-.479-1.655-1.39-2.245-2.026-.723-.78-1.258-1.536-1.645-2.322a17.694 17.694 0 0 1-.941-2.45 20.593 20.593 0 0 1-.528-2.603c-.111-.905-.114-1.365-.01-1.468.104-.103.629-.097 1.676.02.839.095 2.211.336 3.049.537.838.202 2.057.623 2.71.937.896.43 1.391.79 2.018 1.463a13.78 13.78 0 0 1 1.474 1.985c.353.6.764 1.562.912 2.137.193.75.268 1.559.264 2.866-.003 1.038-.086 2.095-.194 2.458-.188.637-.188.637-.589-.514-.22-.633-.75-1.805-1.176-2.604-.426-.799-1.095-1.879-1.485-2.4-.391-.52-1.037-1.223-1.436-1.561-.399-.338-.957-.725-1.24-.859-.283-.134-.624-.202-.758-.15-.189.072.076.403 1.212 1.513.8.782 1.715 1.815 2.034 2.296.318.48.787 1.246 1.041 1.7.254.456.73 1.467 1.057 2.248.327.782.571 1.49.543 1.573-.028.084-.085.024-.127-.134Z" fill="#98AE8C"/><path d="M283.386 50.41c-.053-.084-.014-1.2.086-2.478.144-1.845.144-2.567.001-3.498-.105-.684-.424-1.756-.764-2.567-.32-.766-.791-1.765-1.045-2.22a32.278 32.278 0 0 0-1.041-1.701c-.319-.481-1.234-1.514-2.034-2.296-1.136-1.11-1.402-1.441-1.212-1.514.134-.05.475.017.758.151.283.134.841.52 1.24.859.399.338 1.064 1.064 1.477 1.615.413.55 1.157 1.8 1.653 2.775.495.977 1.01 2.198 1.143 2.715.133.517.314 1.227.401 1.577.088.351.21.58.272.51.062-.07.269-.52.46-1.002.191-.48.637-1.398.991-2.04.354-.64.816-1.395 1.027-1.675.212-.28.804-.92 1.316-1.42.512-.501.984-.911 1.048-.911.064 0 .188.086.276.191.122.147-.046.392-.729 1.057a15.07 15.07 0 0 0-1.586 1.884c-.384.561-.947 1.51-1.25 2.11-.303.598-.743 1.843-.977 2.765-.235.922-.498 2.3-.586 3.063-.088.763-.207 1.55-.264 1.751-.057.2-.208.384-.335.409-.127.024-.273-.025-.326-.11Z" fill="#99AF8C"/></svg>