<svg width="22" height="22" fill="none" xmlns="http://www.w3.org/2000/svg"><path d="M4.044 0h13.912l2.184 21.515-6.228.485-2.427-13.265h-.971L8.09 22l-6.229-.485L4.044 0Zm13.184.89h-2.022v1.132h2.022V.89ZM12.6 5.824c0 .566 1.982 1.536 1.982 1.536s1.981-.97 1.981-1.536V4.742h-3.963v1.082Zm0-1.588h3.963v-.718h-3.963v.718Zm-1.237-2.214h3.114V.89h-3.114v1.132Zm-.728 0V.89H7.522v1.132h3.114Zm-5.2 3.802c0 .566 1.98 1.536 1.98 1.536S9.4 6.39 9.4 5.824V4.742H5.436v1.082Zm0-1.588h3.963v-.718H5.436v.718Zm-.664-2.214h2.022V.89H4.772v1.132Z" fill="#fff"/></svg>