<svg width="275" height="66" fill="none" xmlns="http://www.w3.org/2000/svg"><path d="M12.113 42.72h8.96V48h-15.8V19.92h6.84v22.8Zm22.383 5.6c-2.187 0-4.16-.467-5.92-1.4-1.734-.933-3.107-2.267-4.12-4-.987-1.733-1.48-3.76-1.48-6.08 0-2.293.506-4.307 1.52-6.04 1.013-1.76 2.4-3.107 4.16-4.04 1.76-.933 3.733-1.4 5.92-1.4 2.186 0 4.16.467 5.92 1.4 1.76.933 3.146 2.28 4.16 4.04 1.013 1.733 1.52 3.747 1.52 6.04s-.52 4.32-1.56 6.08a10.288 10.288 0 0 1-4.2 4c-1.76.933-3.734 1.4-5.92 1.4Zm0-5.92c1.306 0 2.413-.48 3.32-1.44.933-.96 1.4-2.333 1.4-4.12s-.454-3.16-1.36-4.12c-.88-.96-1.974-1.44-3.28-1.44-1.334 0-2.44.48-3.32 1.44-.88.933-1.32 2.307-1.32 4.12 0 1.787.426 3.16 1.28 4.12.88.96 1.973 1.44 3.28 1.44Zm13.948-5.56c0-2.32.467-4.347 1.4-6.08.96-1.733 2.28-3.067 3.96-4 1.707-.933 3.654-1.4 5.84-1.4 2.8 0 5.134.733 7 2.2 1.894 1.467 3.134 3.533 3.72 6.2h-7.28c-.613-1.707-1.8-2.56-3.56-2.56-1.253 0-2.253.493-3 1.48-.746.96-1.12 2.347-1.12 4.16 0 1.813.374 3.213 1.12 4.2.747.96 1.747 1.44 3 1.44 1.76 0 2.947-.853 3.56-2.56h7.28c-.586 2.613-1.826 4.667-3.72 6.16-1.893 1.493-4.226 2.24-7 2.24-2.186 0-4.133-.467-5.84-1.4-1.68-.933-3-2.267-3.96-4-.933-1.733-1.4-3.76-1.4-6.08Zm24.219-.04c0-2.293.427-4.307 1.28-6.04.88-1.733 2.067-3.067 3.56-4 1.493-.933 3.16-1.4 5-1.4 1.573 0 2.947.32 4.12.96 1.2.64 2.12 1.48 2.76 2.52v-3.16h6.84V48h-6.84v-3.16c-.667 1.04-1.6 1.88-2.8 2.52-1.173.64-2.547.96-4.12.96-1.813 0-3.467-.467-4.96-1.4-1.493-.96-2.68-2.307-3.56-4.04-.853-1.76-1.28-3.787-1.28-6.08Zm16.72.04c0-1.707-.48-3.053-1.44-4.04-.933-.987-2.08-1.48-3.44-1.48-1.36 0-2.52.493-3.48 1.48-.933.96-1.4 2.293-1.4 4 0 1.707.467 3.067 1.4 4.08.96.987 2.12 1.48 3.48 1.48 1.36 0 2.507-.493 3.44-1.48.96-.987 1.44-2.333 1.44-4.04Zm18.628-18.44V48h-6.84V18.4h6.84Zm15.117 29.88c-2.053 0-3.893-.333-5.52-1-1.626-.667-2.933-1.653-3.92-2.96-.96-1.307-1.466-2.88-1.52-4.72h7.28c.107 1.04.467 1.84 1.08 2.4.614.533 1.414.8 2.4.8 1.014 0 1.814-.227 2.4-.68.587-.48.88-1.133.88-1.96 0-.693-.24-1.267-.72-1.72-.453-.453-1.026-.827-1.72-1.12-.666-.293-1.626-.627-2.88-1-1.813-.56-3.293-1.12-4.44-1.68-1.146-.56-2.133-1.387-2.96-2.48-.826-1.093-1.24-2.52-1.24-4.28 0-2.613.947-4.653 2.84-6.12 1.894-1.493 4.36-2.24 7.4-2.24 3.094 0 5.587.747 7.48 2.24 1.894 1.467 2.907 3.52 3.04 6.16h-7.4c-.053-.907-.386-1.613-1-2.12-.613-.533-1.4-.8-2.36-.8-.826 0-1.493.227-2 .68-.506.427-.76 1.053-.76 1.88 0 .907.427 1.613 1.28 2.12.854.507 2.187 1.053 4 1.64 1.814.613 3.28 1.2 4.4 1.76 1.147.56 2.134 1.373 2.96 2.44.827 1.067 1.24 2.44 1.24 4.12 0 1.6-.413 3.053-1.24 4.36-.8 1.307-1.973 2.347-3.52 3.12-1.546.773-3.373 1.16-5.48 1.16Zm28.17-22.84c2.56 0 4.613.853 6.16 2.56 1.546 1.68 2.32 4 2.32 6.96V48h-6.8V35.88c0-1.493-.387-2.653-1.16-3.48-.774-.827-1.814-1.24-3.12-1.24-1.307 0-2.347.413-3.12 1.24-.774.827-1.16 1.987-1.16 3.48V48h-6.84V18.4h6.84v10.28c.693-.987 1.64-1.773 2.84-2.36s2.546-.88 4.04-.88Zm16.673-2.08c-1.2 0-2.187-.347-2.96-1.04-.747-.72-1.12-1.6-1.12-2.64 0-1.067.373-1.947 1.12-2.64.773-.72 1.76-1.08 2.96-1.08 1.173 0 2.133.36 2.88 1.08.773.693 1.16 1.573 1.16 2.64 0 1.04-.387 1.92-1.16 2.64-.747.693-1.707 1.04-2.88 1.04Zm3.4 2.32V48h-6.84V25.68h6.84Zm11.797 3.72c.8-1.227 1.8-2.187 3-2.88 1.2-.72 2.533-1.08 4-1.08v7.24h-1.88c-1.707 0-2.987.373-3.84 1.12-.854.72-1.28 2-1.28 3.84V48h-6.84V25.68h6.84v3.72Zm22.709 12.8V48h-3.48c-2.48 0-4.413-.6-5.8-1.8-1.387-1.227-2.08-3.213-2.08-5.96v-8.88h-2.72v-5.68h2.72v-5.44h6.84v5.44h4.48v5.68h-4.48v8.96c0 .667.16 1.147.48 1.44.32.293.853.44 1.6.44h2.44ZM252.909 64.877c-.206-.028-4.132-.344-8.726-.703-4.594-.359-10.936-.858-14.094-1.109-5.302-.422-5.769-.48-6.092-.768-.192-.171-.414-.43-.494-.574-.094-.17-.086-.958.023-2.258.124-1.48.226-2.04.396-2.168.126-.095.324-.137.439-.094.166.062.209.51.209 2.178 0 2.042.009 2.104.336 2.233.184.073 6.814.665 14.732 1.317 10.749.884 14.499 1.147 14.799 1.035.231-.086.432-.291.472-.482.038-.183.211-2.038.385-4.121.173-2.084.85-9.656 1.503-16.828.653-7.172 1.237-13.4 1.298-13.841.106-.769.128-.801.557-.801.446 0 .446 0 .413 1.456-.018.802-.737 8.915-1.599 18.029-1.267 13.408-1.613 16.642-1.815 16.943-.137.204-.37.434-.517.511-.147.077-.624.13-1.06.118-.436-.012-.96-.045-1.165-.073ZM223.994 54.58c-.114-.134-.146-.486-.092-.99.047-.43.451-4.936.898-10.012.448-5.077.814-9.322.814-9.434 0-.112-.05-.204-.112-.203-.061 0-1.32.95-2.796 2.11-2.463 1.937-2.735 2.111-3.29 2.113-.49 0-.691-.089-1.061-.472-.251-.26-1.091-1.26-1.867-2.222a552.668 552.668 0 0 1-3.227-4.053c-1.453-1.845-1.816-2.398-1.814-2.769.002-.255.052-.534.112-.62.06-.087 1.351-1.171 2.869-2.41a206.208 206.208 0 0 1 4.831-3.82 86.92 86.92 0 0 1 4.078-2.877c1.104-.72 2.588-1.593 3.298-1.94.71-.346 1.828-.8 2.484-1.01.656-.21 1.764-.513 2.461-.673a32.18 32.18 0 0 1 2.289-.431c.859-.119 1.33-.313 2.983-1.234a143.796 143.796 0 0 0 3.901-2.273c1.066-.649 2.224-1.256 2.573-1.35.615-.165.634-.188.634-.773 0-.4.092-.684.272-.844.15-.133.495-.241.766-.241s.756-.077 1.077-.171c.321-.094.778-.387 1.016-.652.237-.264.502-.728.588-1.03a5.29 5.29 0 0 0 .158-1.187 2.6 2.6 0 0 0-.306-1.168 3.064 3.064 0 0 0-.798-.862 4.232 4.232 0 0 0-.998-.47 4.79 4.79 0 0 0-1.072-.142c-.311 0-.825.129-1.141.286-.316.158-.81.555-1.097.883-.287.328-.596.88-.685 1.227-.09.347-.273.672-.407.722a.51.51 0 0 1-.45-.074c-.113-.091-.205-.254-.205-.361 0-.108.145-.573.321-1.034.218-.568.567-1.078 1.082-1.58.541-.528.965-.797 1.471-.935.424-.115 1.089-.164 1.645-.12.514.04 1.209.21 1.545.377.337.168.885.608 1.218.978.334.37.72 1.005.858 1.41.173.51.226 1.001.171 1.592-.05.543-.219 1.088-.464 1.496-.234.39-.665.81-1.096 1.067-.391.234-.938.502-1.217.596-.279.095-.665.172-.858.172-.29 0-.35.075-.35.435 0 .353.091.472.484.633.267.11 2.029 1.517 3.915 3.127 3.033 2.589 3.517 2.949 4.177 3.102.41.096 1.319.414 2.021.707.702.294 1.993.951 2.869 1.461.877.51 2.118 1.332 2.758 1.827.702.542 3.175 3.025 6.229 6.254 2.786 2.945 5.216 5.56 5.4 5.81.217.295.336.667.336 1.048 0 .523-.092.68-.783 1.336-.431.409-2.319 2.093-4.195 3.743-2.449 2.154-3.544 3.025-3.879 3.086-.258.047-.645.02-.86-.06-.216-.08-1.139-.972-2.051-1.983-1.433-1.586-1.638-1.876-1.503-2.122.086-.157.246-.285.356-.285.11 0 .92.754 1.8 1.675 1.263 1.324 1.683 1.676 1.995 1.676.31 0 1.126-.669 3.751-3.071a523.556 523.556 0 0 0 3.857-3.553c.369-.353.467-.542.371-.71-.072-.125-2.609-2.855-5.637-6.065-4.724-5.008-5.688-5.958-6.785-6.686a45.607 45.607 0 0 0-2.227-1.387 18.926 18.926 0 0 0-1.789-.88c-.463-.19-1.05-.387-1.305-.44-.463-.096-.465-.095-1.024 1.186-.307.704-.795 1.663-1.082 2.13a10.724 10.724 0 0 1-1.289 1.614c-.42.421-1.137 1.006-1.591 1.3a9.202 9.202 0 0 1-1.664.824c-.461.158-1.331.362-1.933.454-.639.097-1.633.127-2.385.072-.71-.052-1.683-.191-2.163-.31-.48-.119-1.433-.484-2.118-.812a8.85 8.85 0 0 1-2.312-1.587c-.586-.546-1.293-1.36-1.57-1.808a12.344 12.344 0 0 1-.868-1.796 9.789 9.789 0 0 1-.466-2.075c-.102-1.096-.102-1.096-1.022-1.07-.506.013-1.446.164-2.088.335-.642.171-1.973.695-2.957 1.164-.985.469-2.696 1.437-3.803 2.152-1.108.715-2.987 2.01-4.177 2.877a119.973 119.973 0 0 0-3.654 2.78c-.82.66-1.916 1.625-2.435 2.142-.753.75-.935 1.018-.895 1.323.028.222 1.301 2.002 3.032 4.242 1.956 2.53 3.103 3.892 3.33 3.955.241.066.493-.008.821-.241.26-.185 1.684-1.302 3.165-2.482 2.692-2.145 2.692-2.145 3.04-5.4.191-1.791.404-3.404.473-3.584.07-.18.22-.328.335-.328.115 0 .285.09.378.198.127.15-.145 3.685-1.095 14.242-.695 7.724-1.316 14.338-1.381 14.699-.091.508-.187.665-.428.699-.172.024-.391-.05-.489-.165Zm22.203-30.327c.451-.117 1.29-.44 1.865-.717.575-.277 1.477-.886 2.004-1.351.527-.466 1.214-1.235 1.527-1.708.314-.473.57-.932.57-1.02 0-.089-1.024-.748-2.275-1.465a646.524 646.524 0 0 0-3.907-2.22c-.898-.505-1.771-.919-1.939-.92-.169 0-2.185.666-4.482 1.48-2.297.815-4.231 1.528-4.297 1.584-.066.056.017.486.186.955.169.468.553 1.215.855 1.66.301.443.91 1.152 1.352 1.574.442.422 1.185.954 1.652 1.181a14.58 14.58 0 0 0 1.605.657 14.92 14.92 0 0 0 1.417.368c.363.07 1.197.133 1.853.141.657.008 1.563-.082 2.014-.199Zm-2.237 19.38c0-.046.244-.558.542-1.137a22.22 22.22 0 0 1 1.254-2.073 15.126 15.126 0 0 1 1.615-1.884c.695-.665.867-.91.742-1.057-.09-.105-.219-.191-.287-.191-.068 0-.601.465-1.185 1.033-.584.568-1.282 1.371-1.551 1.785-.269.413-.74 1.21-1.047 1.771-.557 1.02-.557 1.02-.474.028.045-.545.193-1.43.328-1.966.135-.537.487-1.428.781-1.981.418-.785.727-1.143 1.405-1.63.478-.345 1.225-.79 1.66-.991.434-.201 1.285-.5 1.89-.663a15.25 15.25 0 0 1 2.015-.39c.916-.091.916-.091.78.903-.075.547-.335 1.599-.577 2.337-.254.774-.701 1.724-1.056 2.244-.34.496-.992 1.19-1.45 1.54-.458.352-1.31.866-1.892 1.143-.583.278-1.539.635-2.125.794-.586.158-1.134.33-1.217.38-.083.05-.151.052-.151.006Zm-2.263-.3c-.06-.224-.3-.328-1.098-.475-.562-.104-1.563-.438-2.224-.742-.661-.305-1.739-.946-2.395-1.424-.656-.479-1.684-1.39-2.285-2.026-.736-.78-1.281-1.536-1.675-2.322a17.506 17.506 0 0 1-.957-2.45 20.112 20.112 0 0 1-.538-2.603c-.113-.905-.116-1.365-.01-1.468.105-.103.64-.097 1.706.02.854.095 2.251.336 3.104.537.852.202 2.094.623 2.758.937.912.43 1.417.79 2.055 1.463.465.491 1.14 1.384 1.5 1.985.36.6.778 1.562.929 2.137.196.75.272 1.559.268 2.866-.003 1.038-.087 2.095-.197 2.458-.191.637-.191.637-.6-.514-.224-.633-.763-1.805-1.197-2.604-.434-.799-1.114-1.879-1.512-2.4-.397-.52-1.055-1.223-1.461-1.561-.406-.338-.975-.725-1.263-.859-.288-.134-.635-.202-.771-.15-.193.072.077.403 1.234 1.513.814.782 1.746 1.815 2.07 2.296.324.48.801 1.246 1.06 1.7.259.456.743 1.467 1.076 2.248.333.782.581 1.49.553 1.573-.029.084-.087.024-.13-.134Z" fill="#F4F4F4"/><path d="M241.951 50.41c-.053-.084-.014-1.2.088-2.478.147-1.845.147-2.567.001-3.498-.107-.684-.432-1.756-.778-2.567-.326-.766-.805-1.765-1.064-2.22a31.019 31.019 0 0 0-1.06-1.701c-.324-.481-1.256-1.514-2.07-2.296-1.157-1.11-1.427-1.441-1.234-1.514.137-.05.484.017.772.151.288.134.856.52 1.262.859.406.338 1.083 1.064 1.503 1.615.421.55 1.178 1.8 1.683 2.775.505.977 1.029 2.198 1.164 2.715.136.517.319 1.227.408 1.577.089.351.214.58.277.51.064-.07.274-.52.469-1.002.194-.48.648-1.398 1.008-2.04.36-.64.831-1.395 1.046-1.675.215-.28.818-.92 1.339-1.42.522-.501 1.002-.911 1.067-.911.065 0 .191.086.281.191.125.147-.047.392-.742 1.057a15.133 15.133 0 0 0-1.615 1.884 22.53 22.53 0 0 0-1.272 2.11c-.309.598-.757 1.843-.995 2.765-.238.922-.507 2.3-.596 3.063-.09.763-.211 1.55-.269 1.751-.058.2-.211.384-.341.409-.129.024-.278-.025-.332-.11Z" fill="#F4F4F4"/></svg>