<svg width="473" height="406" viewBox="0 0 473 406" fill="none" xmlns="http://www.w3.org/2000/svg">
<path d="M221.776 24.0217C221.776 24.0217 19.3855 5.9401 25.8796 207.41C32.3736 408.878 210.954 385.631 262.905 381.758C314.855 377.883 446.897 368.844 450.143 198.37C453.392 27.8944 322.431 16.2721 221.776 24.0217Z" fill="#436850"/>
<path d="M212.877 5.69491C212.877 5.69491 211.54 6.29268 209.204 7.10118C206.894 7.94624 203.471 8.7655 199.585 9.84493C197.632 10.3524 195.532 10.847 193.323 11.2964C191.118 11.7049 188.763 12.3113 186.348 12.7177C183.93 13.1736 181.429 13.524 178.9 13.9821C176.372 14.4358 173.791 14.754 171.213 15.0894C168.64 15.455 166.07 15.8463 163.516 16.0829C160.961 16.3301 158.459 16.6419 156.013 16.8634C153.576 17.1193 151.172 17.1602 148.918 17.3687C146.655 17.5343 144.493 17.6289 142.477 17.6676C138.428 17.6805 135.039 17.7988 132.577 17.6117C130.126 17.4655 128.67 17.2526 128.67 17.2526C128.67 17.2526 129.783 16.2936 131.824 14.84C132.844 14.1154 134.105 13.2832 135.57 12.3694C137.032 11.4404 138.714 10.49 140.594 9.59335C142.471 8.67948 144.524 7.74411 146.723 6.8195C148.918 5.87768 151.293 5.14874 153.753 4.36819C156.219 3.62204 158.771 2.82214 161.421 2.34693C164.056 1.77066 166.757 1.33415 169.453 0.871844C172.174 0.598759 174.892 0.30847 177.577 0.160101C180.257 -0.0721285 182.913 -0.00331818 185.478 0.0676408C188.05 0.160103 190.504 0.23321 192.879 0.5493C195.247 0.846037 197.474 1.19439 199.519 1.57068C201.574 1.92763 203.406 2.38778 205.022 2.88019C206.641 3.3554 208.056 3.81342 209.218 4.23272C211.548 5.07778 212.877 5.69491 212.877 5.69491Z" fill="#436850"/>
<path d="M466.326 148.395C466.326 148.395 465.178 144.837 463.32 138.618C462.263 135.556 461.179 131.851 459.639 127.667C458.2 123.461 456.34 118.823 454.282 113.834C452.153 108.876 449.772 103.571 446.887 98.2081C444.138 92.7701 440.734 87.3772 437.153 81.9134C433.445 76.5291 429.306 71.2544 424.836 66.1605C420.279 61.1503 415.365 56.3595 410.128 51.9601C404.958 47.4681 399.335 43.5568 393.693 39.8712C390.874 38.0198 387.956 36.3792 385.113 34.6697C382.193 33.1065 379.329 31.511 376.424 30.0939C370.654 27.1846 364.908 24.6537 359.36 22.4476C353.837 20.1661 348.475 18.3212 343.508 16.5945C338.525 14.9259 333.91 13.4551 329.789 12.2015C325.638 11.0124 322.018 9.97598 319.037 9.12233C316.029 8.28372 313.668 7.62574 312.056 7.17633C310.44 6.70542 309.578 6.45599 309.578 6.45599C309.578 6.45599 310.471 6.42159 312.147 6.35708C313.818 6.34418 316.288 6.18076 319.408 6.29687C322.539 6.32912 326.344 6.45814 330.701 6.80004C332.879 7.00216 335.199 7.21934 337.644 7.44727C340.083 7.7526 342.646 8.1031 345.321 8.50735C350.651 9.41477 356.439 10.5007 362.471 12.1585C365.511 12.8896 368.558 13.9497 371.72 14.8915C374.841 15.971 378.033 17.0826 381.22 18.4158C387.619 20.9854 394.118 24.0904 400.415 27.8813C406.738 31.612 412.939 35.9018 418.708 40.798C424.446 45.7243 429.873 51.0806 434.677 56.8584C439.451 62.662 443.678 68.773 447.279 74.9723C450.778 81.2317 453.861 87.446 456.157 93.5915C458.575 99.6789 460.325 105.622 461.741 111.123C463.098 116.645 464.061 121.756 464.686 126.308C465.488 130.811 465.644 134.879 465.987 138.126C466.238 141.383 466.203 143.959 466.285 145.708C466.312 147.46 466.326 148.395 466.326 148.395Z" fill="#436850"/>
<path d="M374.77 370.353C374.77 370.353 375.519 369.835 376.921 368.861C378.309 367.887 380.467 366.562 382.978 364.677C384.239 363.754 385.633 362.735 387.15 361.623C388.612 360.406 390.234 359.185 391.936 357.843C395.295 355.084 398.935 351.822 402.764 348.158C404.647 346.287 406.583 344.318 408.545 342.258C410.41 340.077 412.506 338.033 414.372 335.629C418.341 331.068 422.055 325.841 425.823 320.435C429.489 314.932 432.972 309.047 436.3 302.934C439.507 296.743 442.564 290.342 445.296 283.766C448.019 277.182 450.417 270.449 452.624 263.745C454.696 256.995 456.644 250.299 458.229 243.713C459.785 237.125 461.214 230.704 462.284 224.541C463.448 218.394 464.286 212.517 465.06 207.07C465.403 204.335 465.731 201.716 466.043 199.224C466.316 196.717 466.575 194.338 466.819 192.102C467.162 187.619 467.589 183.686 467.782 180.437C468.242 173.902 468.505 170.167 468.505 170.167C468.505 170.167 468.706 171.083 469.086 172.801C469.414 174.526 470.047 177.05 470.503 180.304C471.055 183.553 471.607 187.518 472.057 192.098C472.244 194.394 472.445 196.837 472.654 199.413C472.792 201.993 472.886 204.713 472.979 207.556C473.04 213.237 472.989 219.417 472.504 225.935C472.094 232.461 471.254 239.322 470.1 246.379C469.501 249.906 468.829 253.482 467.998 257.073C467.269 260.687 466.257 264.283 465.292 267.919C463.245 275.163 460.701 282.383 457.847 289.482C454.841 296.513 451.503 303.402 447.76 309.92C443.96 316.403 439.827 322.536 435.437 328.139C430.966 333.674 426.432 338.837 421.659 343.206C419.363 345.481 416.896 347.436 414.612 349.412C412.223 351.265 409.923 353.059 407.644 354.663C405.297 356.174 403.152 357.753 400.947 358.993C398.736 360.223 396.701 361.466 394.701 362.473C392.691 363.462 390.841 364.421 389.09 365.221C387.302 365.95 385.659 366.618 384.175 367.222C382.705 367.846 381.389 368.336 380.21 368.67C379.044 369.037 378.052 369.351 377.248 369.607C375.632 370.093 374.77 370.353 374.77 370.353Z" fill="#436850"/>
<path d="M34.1934 315.646C34.1934 315.646 34.9715 316.648 36.4313 318.525C37.1519 319.469 38.0409 320.635 39.086 322.004C40.1064 323.402 41.3588 324.927 42.7939 326.569C44.2229 328.225 45.7504 330.081 47.4853 332.029C49.3352 333.895 51.2507 335.97 53.3244 338.146C55.4473 340.275 57.8577 342.374 60.2947 344.664C62.8324 346.842 65.5364 349.078 68.3512 351.39C69.8212 352.461 71.3221 353.555 72.8516 354.671C74.3648 355.8 75.9231 356.923 77.5964 357.933C79.2512 358.97 80.8958 360.073 82.5711 361.18C84.2814 362.232 86.0697 363.216 87.8477 364.257C95.0172 368.334 102.877 372.026 111.235 375.217C119.589 378.408 128.385 381.266 137.529 383.446C146.664 385.637 156.063 387.424 165.556 388.689C175.04 390.045 184.618 390.828 194.08 391.359C203.545 391.841 212.897 392.058 221.978 392.032C231.057 391.983 239.863 391.847 248.25 391.57C252.457 391.424 256.549 391.284 260.509 391.146C264.48 391.073 268.317 391.002 272.001 390.933C275.698 390.903 279.185 390.733 282.515 390.656C285.845 390.557 289.025 390.594 291.988 390.392C294.957 390.241 297.734 390.048 300.319 389.97C302.902 389.876 305.28 389.8 307.407 389.572C311.669 389.179 315.055 388.998 317.356 388.818C319.668 388.676 320.902 388.6 320.902 388.6C320.902 388.6 319.719 388.957 317.502 389.628C315.274 390.26 312.016 391.269 307.824 392.391C303.639 393.58 298.49 394.593 292.573 395.845C286.664 396.989 279.891 398.18 272.596 399.141C265.283 400.15 257.421 401.272 248.993 402.244C240.573 403.246 231.638 404.222 222.342 404.74C213.047 405.287 203.395 405.54 193.573 405.254C183.749 405.033 173.755 404.241 163.797 402.9C153.852 401.493 143.939 399.565 134.332 396.92C131.939 396.227 129.553 395.537 127.181 394.851C124.839 394.047 122.506 393.245 120.191 392.449C117.864 391.695 115.62 390.693 113.358 389.837C112.235 389.385 111.114 388.934 109.999 388.486C108.902 387.981 107.81 387.478 106.724 386.977C102.349 385.05 98.1667 382.855 94.1241 380.625C92.112 379.49 90.1821 378.24 88.248 377.075C87.2872 376.484 86.3304 375.894 85.3798 375.31C84.46 374.671 83.5443 374.039 82.6368 373.409C75.2394 368.599 68.9671 362.941 63.3457 357.677C60.6622 354.88 58.0363 352.276 55.7306 349.612C53.5174 346.849 51.3472 344.318 49.4686 341.806C47.6557 339.23 45.9352 336.858 44.42 334.613C42.9766 332.293 41.7283 330.109 40.5745 328.182C40.0037 327.217 39.4637 326.301 38.9546 325.44C38.4864 324.561 38.1005 323.709 37.7124 322.933C36.9507 321.37 36.304 320.043 35.7784 318.966C34.7436 316.803 34.1934 315.646 34.1934 315.646Z" fill="#436850"/>
<path d="M77.1955 35.8244C77.1955 35.8244 76.4009 36.5942 74.9083 38.0349C73.4465 39.4906 71.1059 41.4753 68.4779 44.2642C67.1516 45.6318 65.6836 47.1456 64.0863 48.7927C62.5587 50.5108 60.908 52.3665 59.1444 54.3512C57.3335 56.2713 55.65 58.5592 53.8165 60.8837C52.9193 62.0663 51.9359 63.2124 51.0099 64.4596C50.1189 65.7325 49.2073 67.0356 48.2752 68.3666C47.3451 69.689 46.3945 71.0373 45.4254 72.4113C44.5405 73.8455 43.6392 75.3077 42.7215 76.7935C41.8263 78.2923 40.8305 79.7459 39.9415 81.3113C39.0874 82.896 38.221 84.5044 37.3402 86.1343C36.5025 87.7879 35.4862 89.3511 34.7266 91.1036C33.9238 92.8238 33.1128 94.5655 32.2916 96.3266C30.5546 99.7886 29.2406 103.567 27.7111 107.291C27.3477 108.233 26.9411 109.157 26.6085 110.118C26.2923 111.088 25.9762 112.062 25.6559 113.041C25.0071 114.987 24.3542 116.948 23.6972 118.922C22.9786 120.868 22.5516 122.941 21.989 124.97C21.4367 127.005 20.8824 129.047 20.3239 131.099C19.3097 135.236 18.587 139.491 17.6241 143.693C16.8726 147.953 16.2854 152.27 15.5997 156.562C15.0453 160.882 14.6696 165.239 14.1933 169.561C13.7991 173.893 13.6615 178.25 13.372 182.553L13.1811 185.778L13.1462 189.001C13.1133 191.147 13.0805 193.282 13.0476 195.403C13.0127 197.482 12.9799 199.548 12.945 201.6C12.9943 203.741 13.0415 205.87 13.0908 207.98C13.1339 210.089 13.1749 212.181 13.2181 214.254C13.2386 216.348 13.4295 218.271 13.4993 220.262C13.7416 224.203 13.8011 228.061 14.2056 231.843C14.5526 235.617 14.7928 239.32 15.2014 242.868C15.6325 246.422 16.0493 249.854 16.4476 253.15C17.5132 259.689 18.3426 265.764 19.515 271.049C20.5066 276.395 21.7303 280.958 22.6049 284.792C23.5494 288.595 24.4548 291.541 24.9968 293.588C25.545 295.64 25.8366 296.732 25.8366 296.732C25.8366 296.732 25.2925 295.754 24.2741 293.917C23.7732 292.991 23.1552 291.847 22.4284 290.503C21.7057 289.154 20.8269 287.617 20.057 285.802C18.4699 282.196 16.2875 277.872 14.4992 272.634C13.5732 270.028 12.4071 267.293 11.5365 264.306C10.6332 261.319 9.68257 258.178 8.69091 254.898C7.87992 251.566 7.03609 248.093 6.16146 244.5C5.32379 240.892 4.7407 237.111 3.98515 233.241C3.18237 229.388 2.82924 225.298 2.22972 221.169C1.59531 216.985 1.32635 212.865 0.969109 208.665C0.7987 206.562 0.628291 204.442 0.455828 202.307C0.386022 200.075 0.318265 197.828 0.248459 195.566C0.168387 191.128 -0.16422 186.64 0.100633 182.097C0.29568 177.557 0.258728 172.971 0.669353 168.382C1.13131 163.796 1.48033 159.177 2.047 154.58C2.81076 150.004 3.48418 145.413 4.33212 140.87C5.36279 136.356 6.35035 131.853 7.53295 127.441C8.89006 123.07 10.0665 118.685 11.6454 114.492C12.4481 112.402 13.2468 110.325 14.0372 108.261C14.4397 107.233 14.84 106.209 15.2383 105.19C15.6613 104.182 16.1602 103.205 16.6139 102.221C18.5233 98.3199 20.1412 94.3634 22.3339 90.809C24.3994 87.1923 26.3334 83.6142 28.6473 80.4081C29.7519 78.7782 30.84 77.1698 31.9138 75.5851C33.0204 74.0283 34.2195 72.579 35.359 71.1276C36.5046 69.6869 37.6318 68.2699 38.7384 66.8808C39.9066 65.5476 41.0892 64.2725 42.2431 63.0253C43.3969 61.7825 44.5241 60.5654 45.6287 59.3763C46.762 58.2216 47.9364 57.1594 49.0636 56.1144C51.3343 54.0394 53.4141 52.0138 55.5822 50.3581C57.7154 48.6658 59.6289 47.0037 61.5363 45.6361C63.4683 44.3094 65.2442 43.0923 66.8477 41.9914C67.6443 41.4495 68.3999 40.9356 69.1082 40.4518C69.8453 40.0239 70.5372 39.6239 71.1798 39.2519C72.4671 38.5079 73.5614 37.8758 74.4484 37.364C76.2408 36.3598 77.1955 35.8244 77.1955 35.8244Z" fill="#436850"/>
</svg>
