<svg width="275" height="66" viewBox="0 0 275 66" fill="none" xmlns="http://www.w3.org/2000/svg">
<path d="M12.113 42.72H21.073V48H5.27297V19.92H12.113V42.72ZM34.4955 48.32C32.3088 48.32 30.3355 47.8533 28.5755 46.92C26.8421 45.9867 25.4688 44.6533 24.4555 42.92C23.4688 41.1867 22.9755 39.16 22.9755 36.84C22.9755 34.5467 23.4821 32.5333 24.4955 30.8C25.5088 29.04 26.8955 27.6933 28.6555 26.76C30.4155 25.8267 32.3888 25.36 34.5755 25.36C36.7621 25.36 38.7355 25.8267 40.4955 26.76C42.2555 27.6933 43.6421 29.04 44.6555 30.8C45.6688 32.5333 46.1755 34.5467 46.1755 36.84C46.1755 39.1333 45.6555 41.16 44.6155 42.92C43.6021 44.6533 42.2021 45.9867 40.4155 46.92C38.6555 47.8533 36.6821 48.32 34.4955 48.32ZM34.4955 42.4C35.8021 42.4 36.9088 41.92 37.8155 40.96C38.7488 40 39.2155 38.6267 39.2155 36.84C39.2155 35.0533 38.7621 33.68 37.8555 32.72C36.9755 31.76 35.8821 31.28 34.5755 31.28C33.2421 31.28 32.1355 31.76 31.2555 32.72C30.3755 33.6533 29.9355 35.0267 29.9355 36.84C29.9355 38.6267 30.3621 40 31.2155 40.96C32.0955 41.92 33.1888 42.4 34.4955 42.4ZM48.4442 36.84C48.4442 34.52 48.9109 32.4933 49.8442 30.76C50.8042 29.0267 52.1242 27.6933 53.8042 26.76C55.5109 25.8267 57.4576 25.36 59.6442 25.36C62.4442 25.36 64.7776 26.0933 66.6442 27.56C68.5376 29.0267 69.7776 31.0933 70.3642 33.76H63.0842C62.4709 32.0533 61.2842 31.2 59.5242 31.2C58.2709 31.2 57.2709 31.6933 56.5242 32.68C55.7776 33.64 55.4042 35.0267 55.4042 36.84C55.4042 38.6533 55.7776 40.0533 56.5242 41.04C57.2709 42 58.2709 42.48 59.5242 42.48C61.2842 42.48 62.4709 41.6267 63.0842 39.92H70.3642C69.7776 42.5333 68.5376 44.5867 66.6442 46.08C64.7509 47.5733 62.4176 48.32 59.6442 48.32C57.4576 48.32 55.5109 47.8533 53.8042 46.92C52.1242 45.9867 50.8042 44.6533 49.8442 42.92C48.9109 41.1867 48.4442 39.16 48.4442 36.84ZM72.663 36.8C72.663 34.5067 73.0896 32.4933 73.943 30.76C74.823 29.0267 76.0096 27.6933 77.503 26.76C78.9963 25.8267 80.663 25.36 82.503 25.36C84.0763 25.36 85.4496 25.68 86.623 26.32C87.823 26.96 88.743 27.8 89.383 28.84V25.68H96.223V48H89.383V44.84C88.7163 45.88 87.783 46.72 86.583 47.36C85.4096 48 84.0363 48.32 82.463 48.32C80.6496 48.32 78.9963 47.8533 77.503 46.92C76.0096 45.96 74.823 44.6133 73.943 42.88C73.0896 41.12 72.663 39.0933 72.663 36.8ZM89.383 36.84C89.383 35.1333 88.903 33.7867 87.943 32.8C87.0096 31.8133 85.863 31.32 84.503 31.32C83.143 31.32 81.983 31.8133 81.023 32.8C80.0896 33.76 79.623 35.0933 79.623 36.8C79.623 38.5067 80.0896 39.8667 81.023 40.88C81.983 41.8667 83.143 42.36 84.503 42.36C85.863 42.36 87.0096 41.8667 87.943 40.88C88.903 39.8933 89.383 38.5467 89.383 36.84ZM108.011 18.4V48H101.171V18.4H108.011ZM123.128 48.28C121.075 48.28 119.235 47.9467 117.608 47.28C115.982 46.6133 114.675 45.6267 113.688 44.32C112.728 43.0133 112.222 41.44 112.168 39.6H119.448C119.555 40.64 119.915 41.44 120.528 42C121.142 42.5333 121.942 42.8 122.928 42.8C123.942 42.8 124.742 42.5733 125.328 42.12C125.915 41.64 126.208 40.9867 126.208 40.16C126.208 39.4667 125.968 38.8933 125.488 38.44C125.035 37.9867 124.462 37.6133 123.768 37.32C123.102 37.0267 122.142 36.6933 120.888 36.32C119.075 35.76 117.595 35.2 116.448 34.64C115.302 34.08 114.315 33.2533 113.488 32.16C112.662 31.0667 112.248 29.64 112.248 27.88C112.248 25.2667 113.195 23.2267 115.088 21.76C116.982 20.2667 119.448 19.52 122.488 19.52C125.582 19.52 128.075 20.2667 129.968 21.76C131.862 23.2267 132.875 25.28 133.008 27.92H125.608C125.555 27.0133 125.222 26.3067 124.608 25.8C123.995 25.2667 123.208 25 122.248 25C121.422 25 120.755 25.2267 120.248 25.68C119.742 26.1067 119.488 26.7333 119.488 27.56C119.488 28.4667 119.915 29.1733 120.768 29.68C121.622 30.1867 122.955 30.7333 124.768 31.32C126.582 31.9333 128.048 32.52 129.168 33.08C130.315 33.64 131.302 34.4533 132.128 35.52C132.955 36.5867 133.368 37.96 133.368 39.64C133.368 41.24 132.955 42.6933 132.128 44C131.328 45.3067 130.155 46.3467 128.608 47.12C127.062 47.8933 125.235 48.28 123.128 48.28ZM151.298 25.44C153.858 25.44 155.911 26.2933 157.458 28C159.004 29.68 159.778 32 159.778 34.96V48H152.978V35.88C152.978 34.3867 152.591 33.2267 151.818 32.4C151.044 31.5733 150.004 31.16 148.698 31.16C147.391 31.16 146.351 31.5733 145.578 32.4C144.804 33.2267 144.418 34.3867 144.418 35.88V48H137.578V18.4H144.418V28.68C145.111 27.6933 146.058 26.9067 147.258 26.32C148.458 25.7333 149.804 25.44 151.298 25.44ZM167.971 23.36C166.771 23.36 165.784 23.0133 165.011 22.32C164.264 21.6 163.891 20.72 163.891 19.68C163.891 18.6133 164.264 17.7333 165.011 17.04C165.784 16.32 166.771 15.96 167.971 15.96C169.144 15.96 170.104 16.32 170.851 17.04C171.624 17.7333 172.011 18.6133 172.011 19.68C172.011 20.72 171.624 21.6 170.851 22.32C170.104 23.0133 169.144 23.36 167.971 23.36ZM171.371 25.68V48H164.531V25.68H171.371ZM183.168 29.4C183.968 28.1733 184.968 27.2133 186.168 26.52C187.368 25.8 188.701 25.44 190.168 25.44V32.68H188.288C186.581 32.68 185.301 33.0533 184.448 33.8C183.594 34.52 183.168 35.8 183.168 37.64V48H176.328V25.68H183.168V29.4ZM205.877 42.2V48H202.397C199.917 48 197.984 47.4 196.597 46.2C195.21 44.9733 194.517 42.9867 194.517 40.24V31.36H191.797V25.68H194.517V20.24H201.357V25.68H205.837V31.36H201.357V40.32C201.357 40.9867 201.517 41.4667 201.837 41.76C202.157 42.0533 202.69 42.2 203.437 42.2H205.877Z" fill="#789833"/>
<path d="M252.909 64.8773C252.703 64.8492 248.777 64.5327 244.183 64.1741C239.589 63.8154 233.247 63.3163 230.089 63.0651C224.787 62.6433 224.32 62.5843 223.997 62.2967C223.805 62.1254 223.583 61.8672 223.503 61.7231C223.409 61.5522 223.417 60.7653 223.526 59.4648C223.65 57.9855 223.752 57.4241 223.922 57.2966C224.048 57.2019 224.246 57.1597 224.361 57.2029C224.527 57.2651 224.57 57.7137 224.57 59.3814C224.57 61.423 224.579 61.4852 224.906 61.6139C225.09 61.6867 231.72 62.2793 239.638 62.9308C250.387 63.8151 254.137 64.0774 254.437 63.966C254.668 63.8803 254.869 63.6749 254.909 63.4837C254.947 63.3006 255.12 61.4461 255.294 59.3627C255.467 57.2793 256.144 49.7067 256.797 42.5349C257.45 35.363 258.034 29.1346 258.095 28.6938C258.201 27.925 258.223 27.8925 258.652 27.8925C259.098 27.8925 259.098 27.8925 259.065 29.3495C259.047 30.1508 258.328 38.2635 257.466 47.3776C256.199 60.7861 255.853 64.0198 255.651 64.3206C255.514 64.5251 255.281 64.7553 255.134 64.8322C254.987 64.9091 254.51 64.9622 254.074 64.9501C253.638 64.9381 253.114 64.9053 252.909 64.8773ZM223.994 54.5793C223.88 54.4452 223.848 54.0927 223.902 53.5888C223.949 53.1585 224.353 48.6529 224.8 43.5764C225.248 38.4999 225.614 34.2547 225.614 34.1426C225.614 34.0306 225.564 33.9391 225.502 33.9395C225.441 33.9398 224.182 34.8899 222.706 36.0507C220.243 37.9865 219.971 38.1614 219.416 38.1626C218.926 38.1638 218.725 38.0743 218.355 37.6905C218.104 37.4301 217.264 36.4303 216.488 35.4687C215.712 34.5071 214.26 32.6831 213.261 31.4155C211.808 29.5711 211.445 29.0181 211.447 28.6473C211.449 28.3924 211.499 28.1131 211.559 28.0266C211.619 27.9401 212.91 26.8558 214.428 25.6171C215.946 24.3783 218.119 22.6595 219.259 21.7974C220.398 20.9353 222.233 19.6405 223.337 18.92C224.441 18.1995 225.925 17.3267 226.635 16.9805C227.345 16.6343 228.463 16.1793 229.119 15.9693C229.775 15.7593 230.883 15.4567 231.58 15.2969C232.277 15.137 233.307 14.943 233.869 14.8657C234.728 14.7474 235.199 14.5528 236.852 13.6321C237.931 13.0309 239.686 12.0081 240.753 11.3591C241.819 10.7101 242.977 10.1026 243.326 10.0089C243.941 9.84362 243.96 9.82124 243.96 9.23586C243.96 8.83688 244.052 8.55149 244.232 8.3919C244.382 8.25929 244.727 8.15078 244.998 8.15078C245.269 8.15078 245.754 8.0739 246.075 7.97993C246.396 7.88596 246.853 7.59272 247.091 7.32828C247.328 7.06384 247.593 6.59983 247.679 6.29715C247.765 5.99446 247.836 5.4607 247.837 5.11102C247.837 4.73833 247.711 4.25496 247.531 3.94295C247.363 3.6502 247.004 3.2625 246.733 3.08139C246.462 2.90028 246.013 2.68833 245.735 2.61038C245.457 2.53244 244.974 2.46866 244.663 2.46866C244.352 2.46866 243.838 2.59753 243.522 2.75503C243.206 2.91253 242.712 3.30974 242.425 3.63773C242.138 3.96571 241.829 4.51789 241.74 4.8648C241.65 5.2117 241.467 5.53681 241.333 5.58726C241.198 5.63771 240.996 5.60426 240.883 5.51294C240.77 5.42161 240.678 5.25903 240.678 5.15165C240.678 5.04427 240.823 4.579 240.999 4.11771C241.217 3.5498 241.566 3.03975 242.081 2.53796C242.622 2.01005 243.046 1.74117 243.552 1.60313C243.976 1.48761 244.641 1.43892 245.197 1.48256C245.711 1.52287 246.406 1.69271 246.742 1.86043C247.079 2.02799 247.627 2.46807 247.96 2.83839C248.294 3.2087 248.68 3.84337 248.818 4.24875C248.991 4.75852 249.044 5.24919 248.989 5.83988C248.939 6.38311 248.77 6.92757 248.525 7.33588C248.291 7.725 247.86 8.14527 247.429 8.40302C247.038 8.63688 246.491 8.90527 246.212 8.99943C245.933 9.0936 245.547 9.17065 245.354 9.17065C245.064 9.17065 245.004 9.24614 245.004 9.60578C245.004 9.95887 245.095 10.0783 245.488 10.2393C245.755 10.3484 247.517 11.7555 249.403 13.3662C252.436 15.9548 252.92 16.3148 253.58 16.4681C253.99 16.5634 254.899 16.8816 255.601 17.1752C256.303 17.4687 257.594 18.1263 258.47 18.6363C259.347 19.1464 260.588 19.9684 261.228 20.463C261.93 21.0052 264.403 23.4885 267.457 26.7171C270.243 29.6622 272.673 32.277 272.857 32.5278C273.074 32.8217 273.193 33.1939 273.193 33.5755C273.193 34.098 273.101 34.2545 272.41 34.9107C271.979 35.3196 270.091 37.0042 268.215 38.6542C265.766 40.8076 264.671 41.6785 264.336 41.74C264.078 41.7872 263.691 41.7602 263.476 41.6802C263.26 41.6001 262.337 40.7078 261.425 39.6973C259.992 38.1107 259.787 37.8212 259.922 37.575C260.008 37.4181 260.168 37.2899 260.278 37.2899C260.388 37.2899 261.198 38.0438 262.078 38.9654C263.341 40.2886 263.761 40.6408 264.073 40.6408C264.383 40.6408 265.199 39.9723 267.824 37.5696C269.67 35.8805 271.405 34.2819 271.681 34.0173C272.05 33.6642 272.148 33.4752 272.052 33.3074C271.98 33.1817 269.443 30.4521 266.415 27.2417C261.691 22.2343 260.727 21.2839 259.63 20.5556C258.928 20.0886 257.925 19.4644 257.403 19.1686C256.881 18.8727 256.076 18.4766 255.614 18.2882C255.151 18.0999 254.564 17.9023 254.309 17.8491C253.846 17.7526 253.844 17.7544 253.285 19.0344C252.978 19.7395 252.49 20.6984 252.203 21.1654C251.915 21.6325 251.335 22.3587 250.914 22.7794C250.494 23.2 249.777 23.7851 249.323 24.0795C248.869 24.3739 248.12 24.7443 247.659 24.9026C247.198 25.0609 246.328 25.2654 245.726 25.357C245.087 25.4541 244.093 25.4842 243.341 25.4291C242.631 25.3771 241.658 25.2375 241.178 25.1187C240.698 25 239.745 24.6348 239.06 24.3072C238.193 23.8926 237.49 23.4102 236.748 22.7198C236.162 22.1743 235.455 21.3607 235.178 20.9117C234.901 20.4627 234.511 19.6545 234.31 19.1157C234.11 18.5769 233.9 17.6431 233.844 17.0408C233.742 15.9455 233.742 15.9455 232.822 15.97C232.316 15.9835 231.376 16.1346 230.734 16.3059C230.092 16.4771 228.761 17.0009 227.777 17.4699C226.792 17.9389 225.081 18.9073 223.974 19.6219C222.866 20.3366 220.987 21.6313 219.797 22.499C218.608 23.3668 216.964 24.6177 216.143 25.2788C215.323 25.9399 214.227 26.9038 213.708 27.4209C212.955 28.1705 212.773 28.4385 212.813 28.7436C212.841 28.9656 214.114 30.7461 215.845 32.9859C217.801 35.5165 218.948 36.8784 219.175 36.9408C219.416 37.0067 219.668 36.9327 219.996 36.6997C220.256 36.5148 221.68 35.3982 223.161 34.2184C225.853 32.0734 225.853 32.0734 226.201 28.8174C226.392 27.0266 226.605 25.4139 226.674 25.2336C226.744 25.0533 226.894 24.9057 227.009 24.9057C227.124 24.9057 227.294 24.995 227.387 25.1041C227.514 25.2533 227.242 28.7893 226.292 39.3459C225.597 47.0697 224.976 53.6842 224.911 54.0448C224.82 54.5528 224.724 54.7102 224.483 54.7439C224.311 54.7678 224.092 54.6937 223.994 54.5793ZM246.197 24.2522C246.648 24.1351 247.487 23.8123 248.062 23.535C248.637 23.2576 249.539 22.6495 250.066 22.1835C250.593 21.7175 251.28 20.9491 251.593 20.4759C251.907 20.0027 252.163 19.5434 252.163 19.4553C252.163 19.3671 251.139 18.7083 249.888 17.9912C248.637 17.2742 246.879 16.2747 245.981 15.7701C245.083 15.2656 244.21 14.8522 244.042 14.8515C243.873 14.8509 241.857 15.5168 239.56 16.3314C237.263 17.1461 235.329 17.8585 235.263 17.9147C235.197 17.9709 235.28 18.4005 235.449 18.8695C235.618 19.3385 236.002 20.0853 236.304 20.5292C236.605 20.973 237.214 21.6815 237.656 22.1036C238.098 22.5256 238.841 23.0574 239.308 23.2853C239.774 23.5132 240.497 23.8086 240.913 23.9417C241.33 24.0748 241.967 24.2407 242.33 24.3103C242.693 24.3798 243.527 24.4431 244.183 24.451C244.84 24.4588 245.746 24.3694 246.197 24.2522ZM243.96 43.6326C243.96 43.5858 244.204 43.0738 244.502 42.4948C244.801 41.9159 245.365 40.9832 245.756 40.4223C246.147 39.8614 246.874 39.0132 247.371 38.5375C248.066 37.8726 248.238 37.6283 248.113 37.4812C248.023 37.376 247.894 37.2899 247.826 37.2899C247.758 37.2899 247.225 37.7547 246.641 38.3229C246.057 38.8911 245.359 39.6943 245.09 40.1077C244.821 40.5211 244.35 41.3183 244.043 41.8793C243.486 42.8991 243.486 42.8991 243.569 41.9073C243.614 41.3618 243.762 40.4767 243.897 39.9404C244.032 39.4041 244.384 38.5128 244.678 37.9597C245.096 37.1755 245.405 36.8166 246.083 36.3291C246.561 35.9853 247.308 35.5396 247.743 35.3386C248.177 35.1377 249.028 34.8393 249.633 34.6756C250.238 34.5119 251.145 34.3367 251.648 34.2863C252.564 34.1946 252.564 34.1946 252.428 35.1891C252.353 35.7361 252.093 36.7876 251.851 37.5258C251.597 38.2999 251.15 39.2498 250.795 39.7699C250.455 40.2658 249.803 40.959 249.345 41.3103C248.887 41.6615 248.035 42.176 247.453 42.4535C246.87 42.731 245.914 43.0879 245.328 43.2466C244.742 43.4053 244.194 43.5762 244.111 43.6264C244.028 43.6766 243.96 43.6794 243.96 43.6326ZM241.697 43.3325C241.637 43.1076 241.397 43.0038 240.599 42.8567C240.037 42.7533 239.036 42.4192 238.375 42.1144C237.714 41.8096 236.636 41.1689 235.98 40.6905C235.324 40.2122 234.296 39.3005 233.695 38.6646C232.959 37.8848 232.414 37.1289 232.02 36.3428C231.699 35.7018 231.268 34.5989 231.063 33.8921C230.857 33.1852 230.615 32.0141 230.525 31.2896C230.412 30.385 230.409 29.9253 230.515 29.8221C230.62 29.719 231.155 29.7254 232.221 29.8426C233.075 29.9365 234.472 30.178 235.325 30.3793C236.177 30.5807 237.419 31.0022 238.083 31.316C238.995 31.7465 239.5 32.1059 240.138 32.7792C240.603 33.2701 241.278 34.1631 241.638 34.7636C241.998 35.3641 242.416 36.3257 242.567 36.9005C242.763 37.6504 242.839 38.4598 242.835 39.7667C242.832 40.8053 242.748 41.8617 242.638 42.2252C242.447 42.8624 242.447 42.8624 242.038 41.7112C241.814 41.078 241.275 39.9061 240.841 39.107C240.407 38.3079 239.727 37.2279 239.329 36.7071C238.932 36.1862 238.274 35.4835 237.868 35.1456C237.462 34.8076 236.893 34.4214 236.605 34.2872C236.317 34.153 235.97 34.085 235.834 34.136C235.641 34.2085 235.911 34.5403 237.068 35.6501C237.882 36.4318 238.814 37.4647 239.138 37.9455C239.462 38.4263 239.939 39.1919 240.198 39.6469C240.457 40.1018 240.941 41.1132 241.274 41.8943C241.607 42.6755 241.855 43.3833 241.827 43.4673C241.798 43.5513 241.74 43.4907 241.697 43.3325Z" fill="#789833"/>
<path d="M241.951 50.4102C241.898 50.3256 241.937 49.2103 242.039 47.9318C242.186 46.0872 242.186 45.3651 242.04 44.4336C241.933 43.75 241.608 42.678 241.262 41.8669C240.936 41.1008 240.457 40.1018 240.198 39.6468C239.94 39.1919 239.463 38.4262 239.138 37.9455C238.814 37.4647 237.882 36.4317 237.068 35.65C235.911 34.5403 235.641 34.2085 235.834 34.136C235.971 34.0849 236.318 34.153 236.606 34.2871C236.894 34.4213 237.462 34.8076 237.868 35.1456C238.274 35.4835 238.951 36.2103 239.371 36.7606C239.792 37.3109 240.549 38.56 241.054 39.5363C241.559 40.5127 242.083 41.7343 242.218 42.251C242.354 42.7677 242.537 43.4775 242.626 43.8282C242.715 44.179 242.84 44.4085 242.903 44.3382C242.967 44.2679 243.177 43.817 243.372 43.3362C243.566 42.8554 244.02 41.9375 244.38 41.2964C244.74 40.6554 245.211 39.9014 245.426 39.621C245.641 39.3405 246.244 38.7012 246.765 38.2004C247.287 37.6996 247.767 37.2898 247.832 37.2898C247.897 37.2898 248.023 37.3759 248.113 37.4812C248.238 37.6283 248.066 37.8725 247.371 38.5375C246.874 39.0132 246.147 39.8613 245.756 40.4223C245.365 40.9832 244.793 41.9321 244.484 42.531C244.175 43.1299 243.727 44.3745 243.489 45.2967C243.251 46.219 242.982 47.5975 242.893 48.3602C242.803 49.1228 242.682 49.9107 242.624 50.111C242.566 50.3113 242.413 50.4953 242.283 50.5197C242.154 50.5442 242.005 50.4949 241.951 50.4102Z" fill="#789833"/>
</svg>
