<svg width="568" height="486" viewBox="0 0 568 486" fill="none" xmlns="http://www.w3.org/2000/svg">
<path d="M542.923 198.239L549.271 199.816C550.865 200.211 552.118 201.637 552.485 203.473L553.839 210.239C554.101 211.547 555.975 211.532 556.218 210.221L557.369 203.971C557.767 201.803 559.217 200.101 561.086 199.605L566.947 198.053C568.239 197.711 568.226 195.869 566.927 195.547L561.041 194.084C559.166 193.619 557.691 191.941 557.259 189.783L556.011 183.547C555.749 182.239 553.875 182.253 553.633 183.565L552.381 190.369C552.043 192.199 550.819 193.635 549.241 194.053L542.903 195.732C541.611 196.075 541.623 197.916 542.923 198.239Z" fill="#EAC645"/>
<path d="M418.867 15.6653L425.215 17.2426C426.809 17.6386 428.062 19.064 428.429 20.9L429.783 27.6653C430.045 28.9733 431.919 28.9586 432.161 27.648L433.311 21.3973C433.711 19.2293 435.161 17.528 437.029 17.032L442.891 15.48C444.183 15.1373 444.17 13.296 442.87 12.9733L436.983 11.5106C435.11 11.0453 433.635 9.36797 433.203 7.2093L431.954 0.973305C431.693 -0.334696 429.818 -0.32003 429.577 0.99197L428.325 7.79597C427.987 9.6253 426.763 11.0626 425.185 11.48L418.847 13.16C417.554 13.5013 417.567 15.3426 418.867 15.6653Z" fill="#EAC645"/>
<path d="M516.068 149.253L525.706 151.646C528.126 152.249 530.03 154.414 530.588 157.201L532.645 167.476C533.041 169.462 535.889 169.44 536.256 167.448L538.004 157.956C538.609 154.665 540.812 152.081 543.649 151.328L552.549 148.972C554.513 148.45 554.492 145.654 552.52 145.165L543.58 142.944C540.733 142.237 538.493 139.689 537.837 136.41L535.942 126.942C535.545 124.956 532.698 124.977 532.332 126.969L530.429 137.302C529.917 140.081 528.058 142.262 525.662 142.897L516.04 145.446C514.074 145.966 514.096 148.762 516.068 149.253Z" fill="#EAC645"/>
<path d="M493.33 429.673L502.969 432.068C505.39 432.669 507.293 434.834 507.852 437.622L509.908 447.897C510.304 449.882 513.152 449.861 513.518 447.869L515.266 438.377C515.872 435.086 518.074 432.501 520.912 431.749L529.812 429.392C531.777 428.87 531.754 426.076 529.782 425.586L520.842 423.365C517.996 422.657 515.757 420.109 515.1 416.83L513.205 407.364C512.808 405.376 509.961 405.397 509.594 407.39L507.692 417.722C507.18 420.501 505.321 422.682 502.925 423.317L493.302 425.868C491.337 426.388 491.358 429.184 493.33 429.673Z" fill="#EAC645"/>
<path d="M73.1216 63.7789L82.7603 66.1736C85.1803 66.7749 87.0843 68.9402 87.6416 71.7269L89.6989 82.0029C90.0949 83.9882 92.9429 83.9669 93.3096 81.9749L95.0576 72.4829C95.6629 69.1922 97.8656 66.6069 100.703 65.8549L109.603 63.4976C111.567 62.9762 111.546 60.1816 109.572 59.6909L100.634 57.4709C97.7869 56.7629 95.5483 54.2162 94.8923 50.9362L92.9976 41.4682C92.5989 39.4816 89.7523 39.5029 89.3856 41.4962L87.4829 51.8282C86.9709 54.6069 85.1136 56.7882 82.7163 57.4229L73.0923 59.9736C71.1283 60.4936 71.1496 63.2882 73.1216 63.7789Z" fill="#EAC645"/>
<path d="M1.43156 333.591L10.6836 335.891C13.0076 336.467 14.8329 338.546 15.3689 341.222L17.3436 351.083C17.7249 352.99 20.4582 352.968 20.8089 351.058L22.4876 341.947C23.0689 338.786 25.1822 336.306 27.9049 335.583L36.4489 333.322C38.3342 332.822 38.3142 330.138 36.4196 329.668L27.8396 327.535C25.1062 326.856 22.9582 324.411 22.3276 321.264L20.5102 312.175C20.1276 310.27 17.3942 310.29 17.0422 312.202L15.2156 322.119C14.7249 324.787 12.9409 326.882 10.6409 327.491L1.40356 329.938C-0.483106 330.438 -0.461773 333.12 1.43156 333.591Z" fill="#EAC645"/>
<path d="M483.338 361.828C482.755 361.784 482.194 361.497 481.814 360.992C481.116 360.063 481.304 358.743 482.235 358.043C501.975 343.216 523.384 338.421 525.558 338.309C526.718 338.257 527.71 339.144 527.77 340.305C527.83 341.447 526.97 342.42 525.839 342.515C525.298 342.6 504.767 346.391 484.764 361.412C484.339 361.733 483.831 361.865 483.338 361.828Z" fill="#8C894E"/>
<path d="M491.107 342.984C491.644 337.072 488.199 319.483 479.498 313.939C479.128 313.703 478.632 313.988 478.474 314.397C474.824 323.924 485.974 338.797 489.719 343.407C490.163 343.955 491.043 343.685 491.107 342.984Z" fill="#8C894E"/>
<path d="M478.775 368.384C482.108 369.618 492.812 370.376 497.377 366.213C497.572 366.036 497.484 365.705 497.272 365.55C492.336 361.952 481.997 366.072 478.747 367.516C478.361 367.686 478.38 368.237 478.775 368.384Z" fill="#8C894E"/>
<path d="M478.16 264.562C478.793 263.164 479.604 261.824 480.58 260.575C480.153 261.651 479.827 262.754 479.604 263.872C479.111 264.081 478.631 264.313 478.16 264.562Z" fill="#FCF1E1"/>
<path d="M470.097 273.683C466.717 282.746 471.66 293.095 481.292 296.943C485.901 298.785 490.757 298.807 494.987 297.357C497.764 299.665 501.269 301.253 505.199 301.751C509.335 302.275 513.315 301.511 516.693 299.794C518.479 300.602 520.423 301.167 522.485 301.43C529.439 302.313 535.959 299.557 539.901 294.729C537.029 302.43 528.732 307.413 519.701 306.266C517.639 306.005 515.696 305.438 513.909 304.63C510.532 306.349 506.551 307.113 502.415 306.589C498.487 306.09 494.981 304.501 492.203 302.194C487.973 303.645 483.117 303.622 478.508 301.781C468.744 297.879 463.793 287.299 467.451 278.15C468.113 276.493 469.012 274.998 470.097 273.683Z" fill="#FCF1E1"/>
<mask id="mask0_1449_1792" style="mask-type:luminance" maskUnits="userSpaceOnUse" x="466" y="273" width="74" height="34">
<path d="M466.246 273.682H539.901V306.75H466.246V273.682Z" fill="white"/>
</mask>
<g mask="url(#mask0_1449_1792)">
<g opacity="0.360001">
<path d="M470.097 273.683C466.717 282.746 471.66 293.095 481.292 296.943C485.901 298.785 490.757 298.807 494.987 297.357C497.764 299.665 501.269 301.253 505.199 301.751C509.335 302.275 513.315 301.511 516.693 299.794C518.479 300.602 520.423 301.167 522.485 301.43C529.439 302.313 535.959 299.557 539.901 294.729C537.029 302.43 528.732 307.413 519.701 306.266C517.639 306.005 515.696 305.438 513.909 304.63C510.532 306.349 506.551 307.113 502.415 306.589C498.487 306.09 494.981 304.501 492.203 302.194C487.973 303.645 483.117 303.622 478.508 301.781C468.744 297.879 463.793 287.299 467.451 278.15C468.113 276.493 469.012 274.998 470.097 273.683Z" fill="#FCEBCD"/>
</g>
</g>
<path d="M476.82 268.708C474.215 269.813 471.9 271.501 470.098 273.683C470.144 273.56 470.184 273.436 470.235 273.312C471.787 269.429 474.642 266.432 478.16 264.563C477.552 265.903 477.103 267.295 476.82 268.708Z" fill="#FCF1E1"/>
<path d="M522.485 301.429C520.423 301.168 518.479 300.603 516.693 299.793C513.315 301.512 509.335 302.276 505.199 301.751C501.269 301.252 497.764 299.665 494.987 297.356C490.757 298.807 485.901 298.785 481.291 296.944C471.66 293.095 466.717 282.745 470.097 273.683C471.9 271.501 474.215 269.813 476.82 268.708C477.103 267.295 477.552 265.903 478.16 264.563C478.629 264.312 479.111 264.08 479.604 263.872C479.827 262.753 480.153 261.651 480.58 260.573C481.588 259.287 482.769 258.093 484.129 257.04C490.207 252.332 498.056 251.656 504.196 254.676C508.052 252.033 512.789 250.739 517.713 251.364C528.649 252.751 536.348 263.057 534.912 274.384C534.863 274.775 534.8 275.161 534.731 275.544C539.123 279.363 541.587 285.016 540.832 290.963C540.667 292.276 540.347 293.533 539.901 294.729C535.957 299.557 529.439 302.312 522.485 301.429Z" fill="#FCF1E1"/>
<path d="M501.574 308.46C506.254 309.726 520.89 309.432 526.577 303.212C526.818 302.95 526.658 302.51 526.351 302.326C519.202 298.047 505.665 304.922 501.43 307.283C500.927 307.563 501.019 308.311 501.574 308.46Z" fill="#8C894E"/>
<path d="M501.793 308.618C506.075 306.346 516.566 296.137 516.473 287.71C516.469 287.353 516.051 287.141 515.703 287.216C507.557 288.974 502.365 303.24 500.883 307.858C500.709 308.405 501.285 308.888 501.793 308.618Z" fill="#8C894E"/>
<path d="M503.197 307.647C504.189 302.902 503.049 288.307 496.51 282.991C496.233 282.766 495.802 282.951 495.637 283.267C491.78 290.654 499.428 303.769 502.032 307.859C502.34 308.345 503.08 308.211 503.197 307.647Z" fill="#8C894E"/>
<path d="M501.604 307.746C500.381 303.054 492.867 290.491 484.647 288.639C484.299 288.559 483.995 288.916 483.988 289.274C483.819 297.606 496.503 305.948 500.655 308.454C501.147 308.752 501.749 308.302 501.604 307.746Z" fill="#8C894E"/>
<path d="M501.53 307.59C498.297 303.976 485.871 296.238 477.713 298.348C477.366 298.439 477.259 298.895 477.417 299.215C481.075 306.702 496.17 308.324 501.009 308.655C501.582 308.694 501.913 308.018 501.53 307.59Z" fill="#8C894E"/>
<mask id="mask1_1449_1792" style="mask-type:luminance" maskUnits="userSpaceOnUse" x="485" y="257" width="9" height="9">
<path d="M485.787 257.749H493.274V265.236H485.787V257.749Z" fill="white"/>
</mask>
<g mask="url(#mask1_1449_1792)">
<g opacity="0.399994">
<path d="M486.095 260.006C485.275 261.904 486.147 264.106 488.043 264.926C489.941 265.749 492.143 264.876 492.965 262.978C493.786 261.082 492.913 258.878 491.015 258.058C489.119 257.238 486.915 258.109 486.095 260.006Z" fill="white"/>
</g>
</g>
<mask id="mask2_1449_1792" style="mask-type:luminance" maskUnits="userSpaceOnUse" x="524" y="265" width="8" height="9">
<path d="M524.195 265.913H531.682V273.4H524.195V265.913Z" fill="white"/>
</mask>
<g mask="url(#mask2_1449_1792)">
<g opacity="0.399994">
<path d="M524.505 268.171C523.685 270.068 524.555 272.271 526.453 273.091C528.35 273.912 530.553 273.039 531.374 271.143C532.195 269.247 531.322 267.043 529.425 266.221C527.529 265.401 525.325 266.273 524.505 268.171Z" fill="white"/>
</g>
</g>
<mask id="mask3_1449_1792" style="mask-type:luminance" maskUnits="userSpaceOnUse" x="473" y="278" width="8" height="8">
<path d="M473.125 278.333H480.612V285.82H473.125V278.333Z" fill="white"/>
</mask>
<g mask="url(#mask3_1449_1792)">
<g opacity="0.399994">
<path d="M473.433 280.591C472.613 282.488 473.485 284.691 475.381 285.511C477.279 286.333 479.481 285.46 480.303 283.563C481.124 281.667 480.251 279.463 478.353 278.643C476.457 277.821 474.253 278.693 473.433 280.591Z" fill="white"/>
</g>
</g>
<mask id="mask4_1449_1792" style="mask-type:luminance" maskUnits="userSpaceOnUse" x="478" y="265" width="7" height="8">
<path d="M478.867 265.535H484.343V272.688H478.867V265.535Z" fill="white"/>
</mask>
<g mask="url(#mask4_1449_1792)">
<g opacity="0.399994">
<path d="M479.305 268.116C478.485 270.013 478.849 271.996 480.119 272.545C481.388 273.094 483.084 272.002 483.904 270.105C484.725 268.209 484.361 266.225 483.092 265.676C481.823 265.126 480.127 266.218 479.305 268.116Z" fill="white"/>
</g>
</g>
<mask id="mask5_1449_1792" style="mask-type:luminance" maskUnits="userSpaceOnUse" x="528" y="278" width="7" height="8">
<path d="M528.68 278.458H534.157V285.612H528.68V278.458Z" fill="white"/>
</mask>
<g mask="url(#mask5_1449_1792)">
<g opacity="0.399994">
<path d="M529.12 281.04C528.299 282.937 528.663 284.92 529.932 285.469C531.203 286.018 532.897 284.928 533.717 283.03C534.539 281.133 534.175 279.15 532.905 278.601C531.636 278.052 529.94 279.144 529.12 281.04Z" fill="white"/>
</g>
</g>
<mask id="mask6_1449_1792" style="mask-type:luminance" maskUnits="userSpaceOnUse" x="487" y="268" width="5" height="7">
<path d="M487.529 268.668H491.991V274.495H487.529V268.668Z" fill="white"/>
</mask>
<g mask="url(#mask6_1449_1792)">
<g opacity="0.399994">
<path d="M487.887 270.772C487.218 272.316 487.515 273.932 488.55 274.38C489.583 274.826 490.964 273.937 491.634 272.392C492.302 270.848 492.006 269.232 490.971 268.784C489.936 268.337 488.555 269.226 487.887 270.772Z" fill="white"/>
</g>
</g>
<path d="M464.034 385.54C463.464 385.496 462.912 385.247 462.496 384.797C461.612 383.847 461.667 382.363 462.616 381.479C492.255 353.911 499.511 308.987 500.242 303.956L502.575 304.225L504.898 304.581C504.136 309.829 496.632 356.255 465.815 384.917C465.314 385.384 464.664 385.588 464.034 385.54Z" fill="#8C894E"/>
<path d="M517.579 311.877C523.472 311.048 529.04 313.304 532.452 317.351C537.235 316.18 542.41 317.041 546.563 320.171C554.054 325.813 555.388 336.677 549.546 344.436C548.827 345.391 548.032 346.252 547.178 347.02C548.762 351.667 548.178 356.835 545.135 360.875C540.091 367.572 530.211 368.636 523.066 363.255C521.987 362.443 521.035 361.527 520.208 360.54C515.59 361.773 510.322 360.868 506.036 357.64C498.891 352.259 497.188 342.468 502.232 335.772C502.994 334.761 503.866 333.883 504.822 333.131C504.256 331.896 503.855 330.569 503.658 329.165C502.75 322.715 505.019 313.644 517.579 311.877Z" fill="#FCF1E1"/>
<mask id="mask7_1449_1792" style="mask-type:luminance" maskUnits="userSpaceOnUse" x="517" y="332" width="19" height="18">
<path d="M517.646 332.062H535.3V349.196H517.646V332.062Z" fill="white"/>
</mask>
<g mask="url(#mask7_1449_1792)">
<g opacity="0.360001">
<path d="M520.77 332.85C522.582 331.934 524.63 332.051 526.176 332.985C527.591 332.079 529.358 331.789 531.043 332.343C534.083 333.343 535.708 336.706 534.674 339.854C534.546 340.241 534.384 340.606 534.192 340.949C535.215 342.275 535.594 344.009 535.055 345.649C534.162 348.366 531.087 349.795 528.187 348.842C527.75 348.699 527.342 348.507 526.966 348.279C525.61 349.186 523.808 349.473 522.071 348.901C519.171 347.947 517.544 344.973 518.438 342.255C518.574 341.845 518.758 341.465 518.984 341.117C518.666 340.779 518.391 340.395 518.172 339.963C516.883 337.411 518.046 334.226 520.77 332.85Z" fill="#FCEBCD"/>
</g>
</g>
<path d="M525.961 340.957C528.946 343.802 540.009 349.522 546.785 347.18C547.073 347.081 547.133 346.686 546.978 346.425C543.367 340.324 530.455 339.972 526.33 340.018C525.841 340.025 525.606 340.62 525.961 340.957Z" fill="#8C894E"/>
<path d="M526.411 340.169C529.369 337.297 535.516 326.465 533.439 319.604C533.351 319.312 532.96 319.238 532.692 319.382C526.455 322.752 525.6 335.64 525.487 339.764C525.473 340.253 526.059 340.51 526.411 340.169Z" fill="#8C894E"/>
<path d="M525.873 339.028C523.098 342.08 517.64 353.275 520.141 359.994C520.246 360.279 520.642 360.328 520.901 360.167C526.914 356.415 526.964 343.499 526.82 339.376C526.802 338.887 526.202 338.667 525.873 339.028Z" fill="#8C894E"/>
<path d="M525.562 340.056C522.88 336.922 512.453 330.113 505.476 331.757C505.178 331.828 505.08 332.213 505.206 332.489C508.182 338.924 520.99 340.582 525.1 340.952C525.588 340.996 525.881 340.426 525.562 340.056Z" fill="#8C894E"/>
<mask id="mask8_1449_1792" style="mask-type:luminance" maskUnits="userSpaceOnUse" x="504" y="340" width="6" height="6">
<path d="M504.533 340.069H509.497V345.035H504.533V340.069Z" fill="white"/>
</mask>
<g mask="url(#mask8_1449_1792)">
<g opacity="0.399994">
<path d="M505.032 341.059C504.208 342.153 504.427 343.709 505.522 344.535C506.616 345.36 508.172 345.141 508.998 344.045C509.823 342.951 509.603 341.395 508.508 340.571C507.414 339.745 505.858 339.964 505.032 341.059Z" fill="white"/>
</g>
</g>
<mask id="mask9_1449_1792" style="mask-type:luminance" maskUnits="userSpaceOnUse" x="514" y="313" width="8" height="8">
<path d="M514.768 313.825H521.136V320.195H514.768V313.825Z" fill="white"/>
</mask>
<g mask="url(#mask9_1449_1792)">
<g opacity="0.399994">
<path d="M515.409 315.095C514.35 316.499 514.632 318.496 516.037 319.554C517.44 320.612 519.437 320.331 520.494 318.926C521.553 317.52 521.272 315.524 519.868 314.467C518.462 313.408 516.466 313.69 515.409 315.095Z" fill="white"/>
</g>
</g>
<mask id="mask10_1449_1792" style="mask-type:luminance" maskUnits="userSpaceOnUse" x="501" y="346" width="6" height="7">
<path d="M501.11 346.6H506.237V352.297H501.11V346.6Z" fill="white"/>
</mask>
<g mask="url(#mask10_1449_1792)">
<g opacity="0.399994">
<path d="M501.971 348.165C500.912 349.57 500.818 351.284 501.758 351.992C502.698 352.7 504.319 352.136 505.376 350.73C506.435 349.326 506.53 347.613 505.59 346.905C504.648 346.196 503.028 346.761 501.971 348.165Z" fill="white"/>
</g>
</g>
<mask id="mask11_1449_1792" style="mask-type:luminance" maskUnits="userSpaceOnUse" x="508" y="320" width="6" height="7">
<path d="M508.577 320.335H513.702V326.033H508.577V320.335Z" fill="white"/>
</mask>
<g mask="url(#mask11_1449_1792)">
<g opacity="0.399994">
<path d="M509.437 321.901C508.38 323.306 508.284 325.019 509.225 325.726C510.165 326.434 511.785 325.871 512.842 324.466C513.901 323.062 513.996 321.349 513.056 320.641C512.116 319.931 510.496 320.497 509.437 321.901Z" fill="white"/>
</g>
</g>
<mask id="mask12_1449_1792" style="mask-type:luminance" maskUnits="userSpaceOnUse" x="507" y="350" width="6" height="6">
<path d="M507.834 350.802H512.01V355.443H507.834V350.802Z" fill="white"/>
</mask>
<g mask="url(#mask12_1449_1792)">
<g opacity="0.399994">
<path d="M508.534 352.077C507.673 353.221 507.596 354.616 508.361 355.193C509.126 355.772 510.448 355.31 511.309 354.166C512.17 353.022 512.248 351.628 511.482 351.05C510.717 350.473 509.396 350.934 508.534 352.077Z" fill="white"/>
</g>
</g>
<path d="M133.971 377.918C131.527 380.499 122.261 385.911 116.326 384.195C116.074 384.122 116.005 383.786 116.127 383.555C118.963 378.144 130.059 377.268 133.611 377.126C134.033 377.11 134.261 377.612 133.971 377.918Z" fill="#8C894E"/>
<path d="M111.278 362.731C111.478 356.185 117.283 337.941 126.975 334.059C127.387 333.895 127.863 334.326 127.972 334.809C130.524 346.043 117.111 359.447 112.658 363.531C112.13 364.015 111.254 363.507 111.278 362.731Z" fill="#8C894E"/>
<path d="M154.779 386.788C155.27 386.498 155.655 386.031 155.831 385.443C156.203 384.2 155.498 382.892 154.257 382.519C115.482 370.896 89.1126 333.808 86.234 329.618L84.2593 330.892L82.334 332.239C85.3367 336.607 112.591 374.932 152.907 387.019C153.562 387.215 154.235 387.111 154.779 386.788Z" fill="#8C894E"/>
<path d="M101.718 371.125C97.9784 366.689 92.469 364.707 87.3584 365.426C84.6477 361.463 80.3304 358.725 75.2784 358.294C66.169 357.519 58.1344 364.539 57.3304 373.974C57.2317 375.134 57.2477 376.277 57.3677 377.39C53.1957 379.734 50.2584 383.866 49.8397 388.779C49.1477 396.922 55.629 404.122 64.3157 404.862C65.629 404.974 66.9144 404.929 68.1584 404.749C70.709 408.65 75.1237 411.418 80.333 411.862C89.0224 412.601 96.6264 406.599 97.3197 398.457C97.4237 397.229 97.3624 396.022 97.1584 394.855C98.3717 394.326 99.5264 393.623 100.582 392.733C105.437 388.641 109.689 380.578 101.718 371.125Z" fill="#FCF1E1"/>
<mask id="mask13_1449_1792" style="mask-type:luminance" maskUnits="userSpaceOnUse" x="66" y="376" width="21" height="20">
<path d="M66.6621 376.768H86.1546V395.568H66.6621V376.768Z" fill="white"/>
</mask>
<g mask="url(#mask13_1449_1792)">
<g opacity="0.360001">
<path d="M85.7603 384.278C85.0403 382.434 83.4777 381.189 81.7483 380.86C81.3083 379.282 80.2137 377.922 78.6297 377.229C75.7723 375.977 72.4057 377.362 71.1097 380.32C70.9497 380.685 70.8297 381.056 70.7457 381.428C69.1417 381.728 67.7377 382.74 67.063 384.28C65.9443 386.834 67.247 389.872 69.9723 391.066C70.383 391.246 70.8043 391.373 71.2257 391.452C71.6203 392.992 72.7417 394.37 74.3763 395.086C77.1017 396.281 80.2177 395.178 81.3363 392.624C81.5057 392.238 81.6177 391.842 81.679 391.442C82.1297 391.405 82.5803 391.305 83.019 391.134C85.6163 390.118 86.843 387.049 85.7603 384.278Z" fill="#FCEBCD"/>
</g>
</g>
<path d="M76.7183 386.787C72.6996 386.911 60.9463 383.87 57.5503 377.761C57.4063 377.502 57.6183 377.178 57.901 377.089C64.4916 375.006 74.0956 383.149 77.061 385.867C77.413 386.189 77.1943 386.773 76.7183 386.787Z" fill="#8C894E"/>
<path d="M76.9033 385.924C76.6233 381.914 79.206 370.051 85.1766 366.419C85.43 366.266 85.762 366.464 85.862 366.743C88.1993 373.247 80.438 383.162 77.838 386.23C77.5286 386.594 76.9366 386.399 76.9033 385.924Z" fill="#8C894E"/>
<path d="M78.0352 385.445C78.0645 389.465 74.7472 401.144 68.5605 404.396C68.2978 404.533 67.9792 404.313 67.8965 404.029C65.9698 397.392 74.3352 387.981 77.1218 385.081C77.4525 384.737 78.0325 384.968 78.0352 385.445Z" fill="#8C894E"/>
<path d="M77.5932 386.393C81.5786 385.864 93.5799 387.7 97.5759 393.433C97.7466 393.677 97.5666 394.022 97.2946 394.14C90.9492 396.876 80.5706 389.749 77.3466 387.344C76.9639 387.058 77.1212 386.456 77.5932 386.393Z" fill="#8C894E"/>
<mask id="mask14_1449_1792" style="mask-type:luminance" maskUnits="userSpaceOnUse" x="87" y="397" width="5" height="6">
<path d="M87.0176 397.849H91.8563V402.689H87.0176V397.849Z" fill="white"/>
</mask>
<g mask="url(#mask14_1449_1792)">
<g opacity="0.399994">
<path d="M91.8478 400.474C91.7344 401.805 90.5638 402.793 89.2318 402.678C87.9011 402.565 86.9131 401.394 87.0264 400.062C87.1398 398.732 88.3104 397.745 89.6424 397.858C90.9731 397.972 91.9611 399.142 91.8478 400.474Z" fill="white"/>
</g>
</g>
<mask id="mask15_1449_1792" style="mask-type:luminance" maskUnits="userSpaceOnUse" x="95" y="371" width="7" height="7">
<path d="M95.0059 371.505H101.214V377.713H95.0059V371.505Z" fill="white"/>
</mask>
<g mask="url(#mask15_1449_1792)">
<g opacity="0.399994">
<path d="M101.203 374.873C101.057 376.58 99.5545 377.847 97.8465 377.703C96.1385 377.557 94.8719 376.055 95.0172 374.345C95.1625 372.639 96.6652 371.372 98.3732 371.516C100.081 371.663 101.348 373.165 101.203 374.873Z" fill="white"/>
</g>
</g>
<mask id="mask16_1449_1792" style="mask-type:luminance" maskUnits="userSpaceOnUse" x="85" y="404" width="5" height="7">
<path d="M85.291 404.352H89.4657V410.548H85.291V404.352Z" fill="white"/>
</mask>
<g mask="url(#mask16_1449_1792)">
<g opacity="0.399994">
<path d="M89.4482 407.626C89.3028 409.334 88.2575 410.641 87.1148 410.543C85.9708 410.445 85.1615 408.982 85.3082 407.274C85.4522 405.566 86.4975 404.261 87.6415 404.358C88.7842 404.455 89.5935 405.919 89.4482 407.626Z" fill="white"/>
</g>
</g>
<mask id="mask17_1449_1792" style="mask-type:luminance" maskUnits="userSpaceOnUse" x="96" y="380" width="6" height="7">
<path d="M96.9512 380.425H101.126V386.621H96.9512V380.425Z" fill="white"/>
</mask>
<g mask="url(#mask17_1449_1792)">
<g opacity="0.399994">
<path d="M101.109 383.699C100.964 385.407 99.9187 386.713 98.776 386.616C97.632 386.517 96.8227 385.055 96.968 383.347C97.1134 381.639 98.1587 380.333 99.3027 380.431C100.445 380.528 101.255 381.992 101.109 383.699Z" fill="white"/>
</g>
</g>
<mask id="mask18_1449_1792" style="mask-type:luminance" maskUnits="userSpaceOnUse" x="78" y="403" width="5" height="6">
<path d="M78.751 403.529H82.1515V408.576H78.751V403.529Z" fill="white"/>
</mask>
<g mask="url(#mask18_1449_1792)">
<g opacity="0.399994">
<path d="M82.1381 406.196C82.0195 407.588 81.1675 408.651 80.2368 408.572C79.3048 408.493 78.6461 407.3 78.7648 405.909C78.8835 404.517 79.7341 403.453 80.6661 403.533C81.5968 403.613 82.2555 404.805 82.1381 406.196Z" fill="white"/>
</g>
</g>
<path d="M122.466 370.157C122.834 369.701 123.009 369.096 122.901 368.475C122.702 367.329 121.61 366.561 120.463 366.76C96.1407 370.991 77.9847 383.308 76.414 384.816C75.582 385.625 75.5487 386.956 76.354 387.796C77.1447 388.62 78.4434 388.66 79.286 387.901C79.7194 387.565 96.542 375.2 121.187 370.912C121.711 370.821 122.157 370.543 122.466 370.157Z" fill="#8C894E"/>
<path d="M106.539 298.288C105.471 297.164 104.255 296.153 102.908 295.285C103.672 296.17 104.35 297.116 104.932 298.106C105.472 298.144 106.008 298.205 106.539 298.288Z" fill="#FCF1E1"/>
<path d="M117.249 304.318C123.474 311.846 122.189 323.352 114.275 330.215C110.489 333.498 105.862 335.127 101.347 335.144C99.4621 338.266 96.6435 340.942 93.0608 342.719C89.2901 344.588 85.2395 345.179 81.4475 344.658C80.0128 346.02 78.3461 347.204 76.4661 348.136C70.1248 351.282 62.9928 350.812 57.6328 347.512C62.9221 353.906 72.4888 355.911 80.7221 351.828C82.6035 350.896 84.2701 349.712 85.7048 348.35C89.4968 348.87 93.5475 348.28 97.3181 346.41C100.901 344.634 103.719 341.956 105.605 338.836C110.119 338.819 114.745 337.19 118.531 333.906C126.553 326.952 127.771 315.22 121.253 307.702C120.074 306.342 118.721 305.214 117.249 304.318Z" fill="#FCF1E1"/>
<mask id="mask19_1449_1792" style="mask-type:luminance" maskUnits="userSpaceOnUse" x="57" y="304" width="69" height="50">
<path d="M57.6328 304.319H125.445V353.951H57.6328V304.319Z" fill="white"/>
</mask>
<g mask="url(#mask19_1449_1792)">
<g opacity="0.360001">
<path d="M117.249 304.318C123.474 311.846 122.189 323.352 114.275 330.215C110.489 333.498 105.862 335.127 101.347 335.144C99.4621 338.266 96.6435 340.942 93.0608 342.719C89.2901 344.588 85.2395 345.179 81.4475 344.658C80.0128 346.02 78.3461 347.204 76.4661 348.136C70.1248 351.282 62.9928 350.812 57.6328 347.512C62.9221 353.906 72.4888 355.911 80.7221 351.828C82.6035 350.896 84.2701 349.712 85.7048 348.35C89.4968 348.87 93.5475 348.28 97.3181 346.41C100.901 344.634 103.719 341.956 105.605 338.836C110.119 338.819 114.745 337.19 118.531 333.906C126.553 326.952 127.771 315.22 121.253 307.702C120.074 306.342 118.721 305.214 117.249 304.318Z" fill="#FCEBCD"/>
</g>
</g>
<path d="M109.19 301.799C112.042 301.993 114.808 302.833 117.25 304.318C117.166 304.215 117.084 304.11 116.996 304.01C114.231 300.819 110.514 298.906 106.539 298.287C107.563 299.366 108.452 300.545 109.19 301.799Z" fill="#FCF1E1"/>
<path d="M76.4665 348.137C78.3478 347.205 80.0132 346.021 81.4492 344.658C85.2412 345.178 89.2918 344.589 93.0625 342.719C96.6452 340.942 99.4638 338.266 101.349 335.145C105.863 335.127 110.489 333.498 114.276 330.215C122.189 323.353 123.476 311.845 117.249 304.318C114.809 302.833 112.041 301.993 109.189 301.799C108.453 300.545 107.563 299.366 106.54 298.287C106.008 298.206 105.472 298.143 104.933 298.107C104.351 297.115 103.672 296.17 102.909 295.285C101.523 294.39 99.9985 293.645 98.3532 293.09C90.9972 290.61 83.2865 292.566 78.4278 297.479C73.8758 296.237 68.9278 296.57 64.4372 298.797C54.4652 303.742 50.5332 316.123 55.6545 326.453C55.8305 326.81 56.0185 327.158 56.2118 327.499C53.2878 332.597 52.8092 338.806 55.4985 344.229C56.0918 345.426 56.8132 346.519 57.6332 347.511C62.9945 350.813 70.1252 351.281 76.4665 348.137Z" fill="#FCF1E1"/>
<path d="M98.7413 347.918C94.696 350.674 80.6373 355.242 73.1546 351.194C72.836 351.022 72.8426 350.55 73.0746 350.273C78.4786 343.823 93.6666 345.897 98.4893 346.747C99.0613 346.849 99.2213 347.591 98.7413 347.918Z" fill="#8C894E"/>
<path d="M98.5851 348.14C93.7478 347.391 80.3585 341.127 77.6571 333.058C77.5425 332.716 77.8691 332.375 78.2278 332.331C86.5811 331.31 96.2585 343.199 99.1998 347.112C99.5491 347.578 99.1598 348.228 98.5851 348.14Z" fill="#8C894E"/>
<path d="M96.9233 347.68C94.4059 343.482 90.6606 329.182 95.1366 321.945C95.3259 321.638 95.7979 321.672 96.0606 321.92C102.186 327.688 99.2353 342.732 98.1059 347.496C97.9726 348.061 97.2219 348.178 96.9233 347.68Z" fill="#8C894E"/>
<path d="M98.4765 347.246C98.0885 342.366 101.096 327.892 108.324 323.403C108.631 323.212 109.038 323.451 109.163 323.79C112.083 331.682 102.748 343.842 99.6165 347.607C99.2458 348.054 98.5218 347.824 98.4765 347.246Z" fill="#8C894E"/>
<path d="M98.4954 347.071C100.382 342.554 109.673 331.058 118.154 330.37C118.514 330.339 118.767 330.739 118.723 331.098C117.713 339.451 103.851 345.997 99.3448 347.915C98.8101 348.143 98.2714 347.607 98.4954 347.071Z" fill="#8C894E"/>
<mask id="mask20_1449_1792" style="mask-type:luminance" maskUnits="userSpaceOnUse" x="90" y="295" width="9" height="8">
<path d="M90.8965 295.346H98.4551V302.904H90.8965V295.346Z" fill="white"/>
</mask>
<g mask="url(#mask20_1449_1792)">
<g opacity="0.399994">
<path d="M97.4593 296.57C98.8713 298.107 98.7673 300.498 97.2313 301.91C95.6926 303.319 93.302 303.218 91.8913 301.681C90.4806 300.143 90.582 297.753 92.1206 296.341C93.658 294.93 96.0486 295.033 97.4593 296.57Z" fill="white"/>
</g>
</g>
<mask id="mask21_1449_1792" style="mask-type:luminance" maskUnits="userSpaceOnUse" x="56" y="315" width="9" height="9">
<path d="M56.9609 315.855H64.5189V323.412H56.9609V315.855Z" fill="white"/>
</mask>
<g mask="url(#mask21_1449_1792)">
<g opacity="0.399994">
<path d="M63.5243 317.078C64.9363 318.615 64.8323 321.006 63.2949 322.418C61.7576 323.828 59.3669 323.726 57.9563 322.188C56.5443 320.651 56.6469 318.26 58.1856 316.85C59.7216 315.439 62.1123 315.54 63.5243 317.078Z" fill="white"/>
</g>
</g>
<mask id="mask22_1449_1792" style="mask-type:luminance" maskUnits="userSpaceOnUse" x="109" y="310" width="9" height="9">
<path d="M109.792 310.789H117.351V318.347H109.792V310.789Z" fill="white"/>
</mask>
<g mask="url(#mask22_1449_1792)">
<g opacity="0.399994">
<path d="M116.356 312.013C117.768 313.55 117.664 315.941 116.128 317.351C114.589 318.762 112.198 318.659 110.788 317.123C109.377 315.586 109.478 313.195 111.017 311.783C112.554 310.373 114.945 310.475 116.356 312.013Z" fill="white"/>
</g>
</g>
<mask id="mask23_1449_1792" style="mask-type:luminance" maskUnits="userSpaceOnUse" x="101" y="300" width="7" height="8">
<path d="M101.595 300.5H107.921V307.036H101.595V300.5Z" fill="white"/>
</mask>
<g mask="url(#mask23_1449_1792)">
<g opacity="0.399994">
<path d="M106.622 302.057C108.034 303.595 108.344 305.608 107.314 306.552C106.285 307.497 104.306 307.017 102.894 305.479C101.484 303.941 101.174 301.928 102.204 300.984C103.233 300.039 105.21 300.52 106.622 302.057Z" fill="white"/>
</g>
</g>
<mask id="mask24_1449_1792" style="mask-type:luminance" maskUnits="userSpaceOnUse" x="58" y="329" width="7" height="7">
<path d="M58.3574 329.327H64.6836V335.863H58.3574V329.327Z" fill="white"/>
</mask>
<g mask="url(#mask24_1449_1792)">
<g opacity="0.399994">
<path d="M63.3845 330.884C64.7952 332.421 65.1058 334.433 64.0752 335.379C63.0458 336.324 61.0672 335.844 59.6565 334.305C58.2458 332.768 57.9352 330.755 58.9658 329.811C59.9952 328.865 61.9725 329.347 63.3845 330.884Z" fill="white"/>
</g>
</g>
<mask id="mask25_1449_1792" style="mask-type:luminance" maskUnits="userSpaceOnUse" x="95" y="306" width="6" height="6">
<path d="M95.2207 306.164H100.374V311.488H95.2207V306.164Z" fill="white"/>
</mask>
<g mask="url(#mask25_1449_1792)">
<g opacity="0.399994">
<path d="M99.3159 307.432C100.465 308.684 100.717 310.324 99.8785 311.093C99.0399 311.863 97.4292 311.471 96.2799 310.219C95.1292 308.965 94.8772 307.327 95.7159 306.557C96.5545 305.788 98.1665 306.18 99.3159 307.432Z" fill="white"/>
</g>
</g>
<path d="M94.222 377.634C92.2727 373.951 89.738 361.626 93.8714 355.678C94.0474 355.426 94.446 355.475 94.6594 355.698C99.6047 360.881 96.4114 373.533 95.2354 377.533C95.0967 378.006 94.4527 378.071 94.222 377.634Z" fill="#8C894E"/>
<path d="M144.446 443.578C145.018 447.652 144.392 451.474 142.565 455C136.465 466.777 119.292 471.072 118.565 471.248C118.306 471.31 118.034 471.248 117.83 471.08C117.624 470.91 117.513 470.654 117.521 470.392C118.08 457.826 121.545 448.568 127.82 442.87C134.48 436.825 141.798 437.134 142.108 437.152C142.437 437.169 142.726 437.377 142.849 437.685C143.645 439.7 144.178 441.668 144.446 443.578Z" fill="#B8A040"/>
<path d="M149.371 431.953C149.41 432.225 149.315 432.509 149.094 432.704C133.768 446.194 121.716 468.054 121.596 468.272C121.372 468.681 120.859 468.832 120.451 468.608C120.042 468.384 119.891 467.873 120.116 467.464C120.236 467.241 132.427 445.128 147.979 431.437C148.328 431.13 148.862 431.164 149.17 431.513C149.283 431.642 149.348 431.796 149.371 431.953Z" fill="#8C894E"/>
<path d="M151.218 419.744C150.85 421.571 150.226 423.436 149.346 425.332C149.207 425.632 148.907 425.824 148.576 425.822C148.276 425.82 141.16 425.711 135.042 419.476C129.279 413.604 126.44 404.439 126.604 392.235C126.604 391.967 126.735 391.719 126.95 391.564C127.163 391.408 127.439 391.362 127.694 391.439C128.39 391.651 144.788 396.772 150.04 408.53C151.618 412.06 152.01 415.816 151.218 419.744Z" fill="#B8A040"/>
<path d="M157.238 433.574C157.206 433.73 157.131 433.879 157.011 433.999C156.682 434.331 156.149 434.334 155.818 434.006C138.902 417.235 129.525 395.658 129.433 395.442C129.247 395.012 129.446 394.519 129.874 394.334C130.303 394.15 130.798 394.348 130.983 394.775C131.074 394.99 140.33 416.274 157.005 432.807C157.214 433.015 157.293 433.304 157.238 433.574Z" fill="#8C894E"/>
<path d="M140.138 430.502C140.093 430.636 140.016 430.758 139.908 430.858C139.601 431.138 132.286 437.708 121.753 437.081C114.038 436.62 106.709 432.417 99.9665 424.585C99.7998 424.392 99.7291 424.134 99.7758 423.884C99.8238 423.629 99.9785 423.418 100.2 423.294C100.858 422.934 116.45 414.536 128.796 418.816C133.926 420.593 137.734 424.325 140.113 429.905C140.197 430.098 140.201 430.31 140.138 430.502Z" fill="#B8A040"/>
<path d="M177.153 440.241C177.15 440.25 177.148 440.257 177.145 440.265C176.986 440.702 176.502 440.927 176.064 440.769C159.229 434.622 144.624 431.266 144.478 431.233C124.029 426.539 106.044 425.063 105.864 425.049C105.401 425.013 105.054 424.605 105.092 424.142C105.133 423.674 105.536 423.33 106 423.369C106.181 423.382 124.288 424.869 144.853 429.587C145 429.621 159.704 432.999 176.642 439.182C177.072 439.339 177.297 439.81 177.153 440.241Z" fill="#8C894E"/>
<path d="M469.652 216.107C467.652 212.513 466.86 208.721 467.294 204.775C468.744 191.591 483.218 181.4 483.833 180.973C484.052 180.82 484.329 180.781 484.58 180.865C484.832 180.948 485.028 181.148 485.114 181.396C489.12 193.32 489.221 203.205 485.418 210.779C481.382 218.817 474.442 221.164 474.148 221.26C473.836 221.363 473.49 221.272 473.266 221.031C471.797 219.436 470.59 217.792 469.652 216.107Z" fill="#B8A040"/>
<path d="M469.246 228.726C469.113 228.486 469.1 228.188 469.236 227.925C478.673 209.821 482.045 185.088 482.078 184.84C482.14 184.378 482.564 184.053 483.025 184.116C483.488 184.177 483.813 184.6 483.75 185.062C483.718 185.313 480.309 210.333 470.73 228.705C470.516 229.118 470.005 229.28 469.593 229.064C469.441 228.985 469.325 228.865 469.246 228.726Z" fill="#8C894E"/>
<path d="M493.369 225.916C492.117 224.535 490.987 222.928 489.981 221.095C489.824 220.805 489.847 220.448 490.045 220.184C490.225 219.944 494.535 214.28 503.183 213.055C511.329 211.9 520.392 215.053 530.117 222.427C530.333 222.585 530.453 222.837 530.452 223.103C530.452 223.367 530.325 223.617 530.112 223.776C529.528 224.209 515.675 234.371 503.095 231.623C499.316 230.797 496.061 228.884 493.369 225.916Z" fill="#B8A040"/>
<path d="M478.666 222.556C478.559 222.439 478.483 222.29 478.458 222.12C478.385 221.66 478.701 221.228 479.161 221.158C502.697 217.492 525.631 222.747 525.859 222.8C526.314 222.906 526.593 223.359 526.487 223.814C526.382 224.268 525.929 224.548 525.474 224.443C525.25 224.39 502.623 219.211 479.421 222.824C479.13 222.87 478.851 222.759 478.666 222.556Z" fill="#8C894E"/>
<path d="M470.71 243.032C469.768 241.697 468.956 240.177 468.276 238.474C468.168 238.205 468.228 237.898 468.426 237.689C468.609 237.5 472.962 233.029 480.621 232.881C487.834 232.744 495.386 236.452 503.068 243.904C503.238 244.064 503.317 244.297 503.286 244.528C503.257 244.758 503.122 244.962 502.918 245.078C502.365 245.393 489.226 252.764 478.569 249.033C475.368 247.913 472.738 245.901 470.71 243.032Z" fill="#B8A040"/>
<path d="M458.27 238.543C458.19 238.43 458.139 238.293 458.135 238.142C458.122 237.734 458.442 237.391 458.851 237.378C479.726 236.691 499.128 243.705 499.32 243.775C499.706 243.917 499.902 244.341 499.76 244.725C499.62 245.109 499.195 245.305 498.811 245.165C498.622 245.095 479.478 238.181 458.899 238.857C458.641 238.866 458.409 238.739 458.27 238.543Z" fill="#8C894E"/>
<path d="M456.874 248.152C457.839 247.263 458.963 246.456 460.25 245.737C460.454 245.624 460.703 245.639 460.891 245.776C461.062 245.901 465.076 248.904 465.992 254.989C466.854 260.721 464.686 267.124 459.551 274.019C459.44 274.173 459.263 274.259 459.076 274.259C458.89 274.26 458.714 274.173 458.599 274.023C458.29 273.615 451.05 263.916 452.91 255.039C453.47 252.371 454.798 250.067 456.874 248.152Z" fill="#B8A040"/>
<path d="M459.152 237.774C459.235 237.698 459.339 237.643 459.458 237.624C459.782 237.571 460.087 237.79 460.14 238.114C462.863 254.672 459.298 270.859 459.262 271.02C459.19 271.342 458.872 271.542 458.552 271.47C458.231 271.398 458.03 271.08 458.102 270.76C458.138 270.602 461.652 254.631 458.968 238.307C458.934 238.103 459.011 237.906 459.152 237.774Z" fill="#8C894E"/>
<path d="M491.286 210.615C491.203 210.5 491.15 210.364 491.136 210.218C491.091 209.804 490.143 200.019 496.899 191.914C501.847 185.976 509.58 182.57 519.884 181.788C520.139 181.77 520.387 181.866 520.562 182.051C520.739 182.242 520.816 182.491 520.784 182.743C520.684 183.486 518.192 201.02 507.422 208.419C502.946 211.494 497.683 212.344 491.78 210.948C491.575 210.9 491.402 210.779 491.286 210.615Z" fill="#B8A040"/>
<path d="M440.929 250.711C440.923 250.704 440.918 250.698 440.914 250.691C440.657 250.303 440.762 249.779 441.151 249.522C456.086 239.618 488.01 213.771 488.122 213.674C504.034 199.998 515.893 186.398 516.011 186.26C516.315 185.91 516.847 185.872 517.201 186.178C517.551 186.488 517.59 187.016 517.285 187.368C517.166 187.504 505.226 201.198 489.225 214.952C489.11 215.05 457.111 240.962 442.083 250.927C441.701 251.18 441.19 251.082 440.929 250.711Z" fill="#8C894E"/>
<path d="M68.2995 255.63C68.1675 255.933 67.8728 256.131 67.5421 256.138C67.2328 256.143 59.9075 256.209 53.4528 249.945C47.3715 244.042 44.2168 234.673 44.0781 222.095C44.0781 221.833 44.1981 221.581 44.4101 221.418C44.6181 221.257 44.8928 221.203 45.1501 221.275C45.8701 221.475 62.8915 226.339 68.5955 238.315C70.3021 241.899 70.8008 245.741 70.0941 249.791C69.7621 251.694 69.1635 253.642 68.2995 255.63Z" fill="#B8A040"/>
<path d="M74.6276 261.577C74.6743 261.306 74.589 261.019 74.3743 260.817C59.509 246.823 48.1916 224.573 48.0796 224.351C47.869 223.935 47.361 223.767 46.9463 223.977C46.5303 224.188 46.361 224.693 46.573 225.11C46.6863 225.335 58.1316 247.845 73.2183 262.046C73.5583 262.365 74.093 262.349 74.4103 262.009C74.529 261.885 74.5996 261.733 74.6276 261.577Z" fill="#8C894E"/>
<path d="M43.6129 275.443C32.6369 282.173 16.2116 277.133 15.5183 276.915C15.2649 276.835 15.0636 276.64 14.9756 276.391C14.8863 276.141 14.9169 275.863 15.0689 275.641C21.8303 265.481 29.3516 259.524 37.4236 257.936C45.9943 256.249 51.9276 260.181 52.1756 260.349C52.4489 260.533 52.5889 260.861 52.5343 261.188C52.1889 263.248 51.6489 265.139 50.9209 266.855C49.3543 270.543 46.9103 273.42 43.6129 275.443Z" fill="#B8A040"/>
<path d="M63.7032 258.848C63.7659 258.701 63.7886 258.536 63.7579 258.368C63.6739 257.909 63.2339 257.604 62.7766 257.689C39.3432 261.966 19.4139 274.469 19.2152 274.596C18.8192 274.845 18.7046 275.364 18.9539 275.76C19.2032 276.153 19.7246 276.269 20.1179 276.021C20.3139 275.897 39.9779 263.565 63.0779 259.348C63.3686 259.296 63.5966 259.1 63.7032 258.848Z" fill="#8C894E"/>
<path d="M72.4997 283.82C63.6624 290.848 48.8304 288.207 48.2037 288.091C47.973 288.048 47.777 287.901 47.6744 287.692C47.5704 287.484 47.5677 287.239 47.677 287.031C52.481 277.467 58.393 271.481 65.2504 269.24C72.5317 266.861 78.113 269.652 78.3477 269.772C78.605 269.903 78.7624 270.175 78.749 270.463C78.6664 272.295 78.3997 273.997 77.9477 275.568C76.9757 278.945 75.1544 281.709 72.4997 283.82Z" fill="#B8A040"/>
<path d="M88.2212 267.239C88.2598 267.104 88.2612 266.958 88.2172 266.815C88.0958 266.426 87.6812 266.207 87.2905 266.328C67.3505 272.544 51.3332 285.547 51.1732 285.678C50.8558 285.936 50.8118 286.402 51.0705 286.718C51.3292 287.035 51.7945 287.082 52.1105 286.823C52.2692 286.694 68.0732 273.87 87.7305 267.742C87.9772 267.664 88.1545 267.47 88.2212 267.239Z" fill="#8C894E"/>
<path d="M47.5019 252.198C42.3872 255.457 37.1365 256.383 31.8979 254.95C19.2952 251.505 11.1752 235.766 10.8365 235.097C10.7232 234.87 10.7152 234.609 10.8192 234.37C10.9219 234.138 11.1259 233.965 11.3725 233.899C21.3605 231.25 29.7832 231.923 36.4085 235.903C45.4539 241.337 47.7765 250.891 47.8699 251.294C47.9045 251.438 47.8979 251.585 47.8605 251.719C47.8045 251.913 47.6805 252.085 47.5019 252.198Z" fill="#B8A040"/>
<path d="M108.6 273.027C108.601 273.019 108.604 273.011 108.606 273.003C108.721 272.554 108.45 272.094 107.998 271.978C90.6358 267.535 51.9891 253.623 51.8518 253.568C32.3278 245.884 16.6571 236.939 16.4998 236.85C16.0971 236.618 15.5811 236.758 15.3491 237.162C15.1198 237.571 15.2571 238.082 15.6611 238.314C15.8185 238.403 31.5971 247.41 51.2318 255.138C51.3718 255.192 90.1105 269.142 107.58 273.611C108.024 273.724 108.474 273.464 108.6 273.027Z" fill="#8C894E"/>
<path d="M265.316 475.058C240.446 480.24 215.578 479.182 190.709 477.168C197.876 480.573 216.852 484.776 266.702 485.301C328.22 485.949 390.204 491.104 438.51 458.122C381.062 455.173 325.59 463.392 265.316 475.058Z" fill="#FFD7BD"/>
<path d="M487.599 400.295L335.846 393.71L187.683 470.036L186.486 472.73C186.486 472.73 185.612 474.747 190.71 477.167C215.578 479.182 240.447 480.239 265.316 475.058C325.59 463.391 381.063 455.172 438.511 458.122C457.19 445.37 473.827 426.921 487.599 400.295Z" fill="#FFCCAD"/>
<path d="M135.122 290.038C135.501 289.902 135.861 289.739 136.201 289.547C147.274 283.262 83.5192 191.072 35.0312 189.575C35.0312 189.575 39.8646 198.431 48.1179 211.29C82.1166 231.798 112.151 258.203 135.122 290.038Z" fill="#FFCCAD"/>
<path d="M48.1172 211.29C54.1039 220.618 61.8879 232.049 70.9492 243.751C91.8399 270.737 123.137 294.343 135.121 290.038C112.151 258.203 82.1159 231.798 48.1172 211.29Z" fill="#FFD7BD"/>
<path d="M173.315 64.4607C173.315 64.4607 133.206 66.8553 107.465 102.174C87.5046 129.563 54.1872 165.63 46.4046 173.411C38.6219 181.194 35.0312 189.575 35.0312 189.575C35.0312 189.575 52.3913 200.35 71.5472 215.915C90.7032 231.479 133.806 277.574 136.201 289.546C136.201 289.546 142.186 285.357 143.982 283.561C143.982 283.561 144.581 366.173 152.962 394.907C161.343 423.642 186.485 472.73 186.485 472.73C186.485 472.73 224.199 452.377 293.641 457.765C363.082 463.153 440.306 450.581 487.599 400.295C487.599 400.295 483.407 373.357 463.055 318.879C442.701 264.405 442.401 245.249 442.401 245.249L437.911 227.887C438.211 227.29 438.959 234.174 448.389 236.867C507.205 164.582 505.558 109.957 505.558 109.957C505.558 109.957 465.13 71.5407 443.599 58.7727C420.189 44.8927 391.817 20.1606 363.681 26.1473C335.546 32.134 285.858 43.5087 263.11 48.8953C240.362 54.2833 173.315 64.4607 173.315 64.4607Z" fill="#FFE7D5"/>
<path d="M184.851 244.991C186.776 249.995 190.263 252.038 195.314 251.121C198.791 250.49 200.971 248.503 201.854 245.158C202.738 241.813 202.549 236.664 201.287 229.711C200.213 232.006 198.531 233.937 196.241 235.505C193.95 237.072 191.264 238.136 188.181 238.695C183.983 239.457 180.089 239.283 176.5 238.173C172.899 236.997 169.837 234.876 167.316 231.81C164.848 228.667 163.168 224.636 162.275 219.716C161.395 214.862 161.611 210.453 162.924 206.488C164.303 202.511 166.65 199.205 169.966 196.571C173.348 193.924 177.564 192.143 182.615 191.226C192.323 189.464 199.66 191.25 204.625 196.582C209.591 201.915 213.139 210.452 215.269 222.193C216.817 230.721 217.31 237.915 216.747 243.776C216.238 249.56 214.409 254.228 211.26 257.781C208.176 261.322 203.485 263.664 197.188 264.807C192.203 265.711 187.76 265.501 183.861 264.176C180.028 262.839 176.868 260.736 174.382 257.867C171.962 254.986 170.27 251.635 169.305 247.812L184.851 244.991ZM189.608 224.716C192.363 224.216 194.411 222.997 195.753 221.06C197.084 219.057 197.487 216.612 196.963 213.726C196.392 210.577 195.099 208.305 193.084 206.909C191.069 205.513 188.618 205.077 185.732 205.601C182.846 206.125 180.711 207.427 179.327 209.507C177.996 211.51 177.605 214.021 178.152 217.038C178.664 219.859 179.901 222.006 181.862 223.479C183.877 224.875 186.459 225.287 189.608 224.716ZM235.911 217.634C229.149 215.473 225.132 210.884 223.858 203.865C223.215 200.323 223.55 196.942 224.863 193.723C226.164 190.437 228.53 187.603 231.959 185.219C235.377 182.769 239.807 181.05 245.252 180.062C250.696 179.074 255.416 179.133 259.411 180.237C263.459 181.264 266.669 183.087 269.042 185.705C271.402 188.258 272.904 191.306 273.547 194.848C274.19 198.39 273.896 201.628 272.667 204.561C271.503 207.482 269.648 209.953 267.101 211.974C270.953 213.037 274.104 214.904 276.553 217.576C278.991 220.183 280.573 223.487 281.3 227.488C282.145 232.145 281.696 236.394 279.954 240.233C278.199 244.007 275.449 247.149 271.704 249.658C268.024 252.155 263.724 253.85 258.805 254.743C253.885 255.635 249.231 255.565 244.843 254.532C240.52 253.487 236.874 251.507 233.906 248.59C230.925 245.607 229.013 241.787 228.167 237.13C227.429 233.063 227.744 229.381 229.11 226.084C230.465 222.722 232.732 219.905 235.911 217.634ZM257.678 200.37C257.19 197.681 256.028 195.757 254.191 194.6C252.409 193.365 250.239 192.98 247.68 193.444C245.122 193.908 243.193 195.037 241.892 196.832C240.657 198.614 240.284 200.85 240.772 203.54C241.236 206.098 242.392 207.989 244.241 209.211C246.077 210.369 248.241 210.721 250.734 210.269C253.226 209.817 255.123 208.693 256.423 206.899C257.724 205.105 258.142 202.928 257.678 200.37ZM252.876 222.076C249.793 222.636 247.456 223.941 245.863 225.991C244.258 227.977 243.724 230.445 244.259 233.397C244.759 236.152 246.088 238.248 248.246 239.686C250.47 241.112 253.156 241.539 256.305 240.968C259.453 240.396 261.752 239.064 263.202 236.972C264.717 234.867 265.225 232.438 264.725 229.683C264.201 226.797 262.834 224.673 260.622 223.313C258.476 221.941 255.894 221.529 252.876 222.076ZM318.385 194.231L315.352 252.561L307.234 254.034L310.268 195.705L318.385 194.231ZM334.021 210.654L332.601 202.831L346.228 200.358L352.746 236.272L343.989 237.861L338.891 209.77L334.021 210.654ZM355.153 216.779C354.129 211.137 354.405 206.497 355.98 202.857C357.588 199.211 360.819 196.948 365.674 196.067C370.528 195.186 374.332 196.173 377.085 199.027C379.872 201.875 381.777 206.12 382.801 211.761C383.837 217.468 383.55 222.144 381.942 225.79C380.367 229.43 377.152 231.69 372.298 232.571C367.444 233.452 363.624 232.468 360.837 229.62C358.083 226.766 356.188 222.485 355.153 216.779ZM374.536 213.261C373.935 209.948 373.113 207.472 372.07 205.832C371.021 204.159 369.365 203.528 367.102 203.939C364.839 204.349 363.51 205.522 363.116 207.457C362.716 209.359 362.817 211.966 363.418 215.279C363.822 217.509 364.29 219.338 364.82 220.766C365.344 222.162 366.083 223.247 367.037 224.023C368.018 224.76 369.295 224.985 370.87 224.699C372.444 224.414 373.544 223.757 374.171 222.728C374.824 221.661 375.151 220.382 375.151 218.892C375.146 217.368 374.941 215.491 374.536 213.261ZM387.246 210.954C386.222 205.313 386.498 200.673 388.073 197.033C389.681 193.387 392.912 191.124 397.767 190.243C402.621 189.362 406.425 190.349 409.178 193.203C411.965 196.051 413.87 200.296 414.894 205.937C415.93 211.644 415.643 216.32 414.035 219.966C412.46 223.606 409.245 225.866 404.391 226.747C399.537 227.628 395.717 226.644 392.93 223.796C390.176 220.942 388.281 216.661 387.246 210.954ZM406.629 207.437C406.028 204.124 405.206 201.648 404.163 200.008C403.114 198.335 401.458 197.704 399.195 198.114C396.932 198.525 395.603 199.698 395.209 201.633C394.809 203.535 394.91 206.142 395.511 209.455C395.915 211.685 396.383 213.514 396.913 214.942C397.437 216.338 398.176 217.423 399.13 218.199C400.111 218.936 401.388 219.161 402.963 218.875C404.537 218.59 405.637 217.933 406.264 216.904C406.917 215.837 407.244 214.558 407.244 213.067C407.239 211.544 407.034 209.667 406.629 207.437Z" fill="#99AF8C"/>
<mask id="mask26_1449_1792" style="mask-type:luminance" maskUnits="userSpaceOnUse" x="191" y="37" width="152" height="81">
<path d="M191.238 37.8735H342.982V117.64H191.238V37.8735Z" fill="white"/>
</mask>
<g mask="url(#mask26_1449_1792)">
<path d="M195.906 92.6087C188.859 83.3354 191.416 68.4607 202.054 65.5634C218.172 61.1714 244.868 54.4607 266.702 50.0927C296.634 44.1074 313.09 41.9634 328.96 38.7194C336.062 37.2687 343.387 47.7674 342.13 56.0807C339.899 70.8421 336.742 93.1954 302.054 108.463C251.084 128.243 208.635 109.358 195.906 92.6087Z" stroke="#FFD7BD" stroke-width="1.42133" stroke-miterlimit="10"/>
</g>
<path d="M210.773 95.5897C229.375 105.67 262.075 113.282 301.273 98.583C312.353 92.4683 319.848 85.7857 324.928 79.215C301.484 81.039 278.136 81.2257 254.299 85.335C240.795 87.5857 224.535 88.0017 210.773 95.5897Z" fill="#FFCCAD"/>
<path d="M325.384 43.6045C310.725 46.7379 286.224 51.7352 263.109 55.3472C242.679 58.5392 221.164 63.8978 206.321 67.9525C196.525 70.6285 193.755 83.3498 201.697 89.6765C204.169 91.6458 207.217 93.6618 210.773 95.5898C224.535 88.0005 240.796 87.5858 254.299 85.3352C278.137 81.2245 301.484 81.0392 324.928 79.2152C331.784 70.3445 334.228 61.6752 335.077 54.8858C335.909 48.2312 331.941 42.2019 325.384 43.6045Z" fill="#FFD7BD"/>
<mask id="mask27_1449_1792" style="mask-type:luminance" maskUnits="userSpaceOnUse" x="303" y="272" width="132" height="126">
<path d="M303 273H434.708V397.358H303V273Z" fill="white"/>
</mask>
<g mask="url(#mask27_1449_1792)">
<g opacity="0.449997">
<path d="M303.615 397.004C333.899 344.291 380.003 300.8 434.391 273.636" stroke="#FFBA99" stroke-width="1.42133" stroke-miterlimit="10"/>
</g>
</g>
<mask id="mask28_1449_1792" style="mask-type:luminance" maskUnits="userSpaceOnUse" x="330" y="296" width="116" height="115">
<path d="M330 296H445.413V410.656H330V296Z" fill="white"/>
</mask>
<g mask="url(#mask28_1449_1792)">
<g opacity="0.449997">
<path d="M330.613 410.297C358.091 363.376 397.953 323.78 445.059 296.617" stroke="#FFBA99" stroke-width="1.42133" stroke-miterlimit="10"/>
</g>
</g>
<mask id="mask29_1449_1792" style="mask-type:luminance" maskUnits="userSpaceOnUse" x="181" y="389" width="306" height="77">
<path d="M181.996 389.657H486.344V465.293H181.996V389.657Z" fill="white"/>
</mask>
<g mask="url(#mask29_1449_1792)">
<path d="M182.294 464.648C182.294 464.648 219.062 447.587 252.334 447.587C295.435 447.587 352.007 459.26 408.578 436.811C465.15 414.363 485.802 390.119 485.802 390.119" stroke="#FFD7BD" stroke-width="1.42133" stroke-miterlimit="10"/>
</g>
<mask id="mask30_1449_1792" style="mask-type:luminance" maskUnits="userSpaceOnUse" x="41" y="181" width="101" height="106">
<path d="M41.3789 181.644H141.199V286.667H41.3789V181.644Z" fill="white"/>
</mask>
<g mask="url(#mask30_1449_1792)">
<path d="M41.7646 182.242C41.7646 182.242 118.989 232.078 140.539 286.404" stroke="#FFD7BD" stroke-width="1.42133" stroke-miterlimit="10"/>
</g>
<mask id="mask31_1449_1792" style="mask-type:luminance" maskUnits="userSpaceOnUse" x="440" y="105" width="60" height="129">
<path d="M440.787 105.778H499.52V233.854H440.787V105.778Z" fill="white"/>
</mask>
<g mask="url(#mask31_1449_1792)">
<path d="M441.354 233.426C441.354 233.426 449.869 222.12 466.049 195.262C488.496 157.998 498.824 105.916 498.824 105.916" stroke="#FFD7BD" stroke-width="1.42133" stroke-miterlimit="10"/>
</g>
</svg>
