<svg width="496" height="406" viewBox="0 0 496 406" fill="none" xmlns="http://www.w3.org/2000/svg">
<path d="M232.27 24.0219C232.27 24.0219 20.3023 5.94028 27.1036 207.41C33.9049 408.878 220.936 385.631 275.344 381.758C329.752 377.884 468.043 368.844 471.442 198.37C474.844 27.8945 337.687 16.2723 232.27 24.0219Z" fill="#F2EEEB"/>
<path d="M222.948 5.69491C222.948 5.69491 221.548 6.29268 219.101 7.10118C216.682 7.94624 213.098 8.7655 209.027 9.84493C206.982 10.3524 204.783 10.847 202.469 11.2964C200.16 11.7049 197.693 12.3113 195.164 12.7177C192.631 13.1736 190.012 13.524 187.363 13.9821C184.716 14.4358 182.013 14.754 179.313 15.0894C176.618 15.455 173.926 15.8463 171.251 16.0829C168.576 16.3301 165.955 16.6419 163.394 16.8634C160.842 17.1193 158.324 17.1602 155.963 17.3687C153.593 17.5343 151.329 17.6289 149.217 17.6676C144.977 17.6805 141.427 17.7988 138.849 17.6117C136.281 17.4655 134.757 17.2526 134.757 17.2526C134.757 17.2526 135.922 16.2936 138.06 14.84C139.128 14.1154 140.449 13.2832 141.984 12.3694C143.515 11.4404 145.276 10.49 147.246 9.59335C149.211 8.67948 151.361 7.74411 153.664 6.8195C155.963 5.87768 158.451 5.14874 161.027 4.36819C163.609 3.62204 166.282 2.82214 169.058 2.34693C171.817 1.77066 174.647 1.33415 177.47 0.871844C180.319 0.598759 183.166 0.30847 185.978 0.160101C188.785 -0.0721285 191.567 -0.00331818 194.253 0.0676408C196.947 0.160103 199.517 0.23321 202.004 0.5493C204.484 0.846037 206.817 1.19439 208.958 1.57068C211.111 1.92763 213.029 2.38778 214.721 2.88019C216.418 3.3554 217.899 3.81342 219.116 4.23272C221.557 5.07778 222.948 5.69491 222.948 5.69491Z" fill="#F2EEEB"/>
<path d="M488.391 148.395C488.391 148.395 487.189 144.837 485.243 138.618C484.136 135.556 483.001 131.851 481.388 127.667C479.88 123.461 477.932 118.823 475.778 113.834C473.548 108.876 471.054 103.571 468.032 98.2081C465.153 92.77 461.588 87.3771 457.838 81.9133C453.955 76.529 449.62 71.2544 444.939 66.1604C440.165 61.1503 435.019 56.3595 429.534 51.96C424.12 47.4681 418.23 43.5567 412.321 39.8712C409.369 38.0198 406.313 36.3791 403.335 34.6697C400.277 33.1064 397.278 31.5109 394.235 30.0939C388.193 27.1846 382.174 24.6537 376.364 22.4475C370.58 20.1661 364.963 18.3211 359.762 16.5945C354.543 14.9259 349.709 13.4551 345.394 12.2015C341.046 11.0124 337.255 9.97592 334.133 9.12227C330.983 8.28366 328.51 7.62568 326.822 7.17627C325.13 6.70536 324.227 6.45593 324.227 6.45593C324.227 6.45593 325.162 6.42153 326.917 6.35702C328.667 6.34412 331.254 6.18069 334.522 6.29681C337.801 6.32906 341.786 6.45808 346.349 6.79998C348.63 7.0021 351.06 7.21928 353.621 7.4472C356.175 7.75254 358.859 8.10304 361.661 8.50729C367.243 9.4147 373.304 10.5006 379.622 12.1585C382.806 12.8895 385.997 13.9496 389.309 14.8915C392.577 15.9709 395.921 17.0826 399.258 18.4157C405.961 20.9853 412.766 24.0903 419.361 27.8812C425.984 31.612 432.478 35.9018 438.52 40.7979C444.53 45.7242 450.213 51.0805 455.245 56.8583C460.244 62.6619 464.672 68.773 468.443 74.9722C472.107 81.2317 475.337 87.4459 477.741 93.5914C480.274 99.6788 482.106 105.622 483.59 111.123C485.011 116.644 486.02 121.756 486.673 126.308C487.514 130.81 487.677 134.879 488.036 138.126C488.299 141.383 488.262 143.959 488.348 145.708C488.376 147.46 488.391 148.395 488.391 148.395Z" fill="#F2EEEB"/>
<path d="M392.503 370.353C392.503 370.353 393.288 369.835 394.756 368.861C396.21 367.887 398.47 366.562 401.1 364.676C402.42 363.754 403.88 362.735 405.469 361.623C407 360.406 408.699 359.185 410.481 357.843C413.999 355.084 417.812 351.822 421.822 348.158C423.794 346.287 425.821 344.318 427.877 342.258C429.83 340.077 432.025 338.032 433.98 335.628C438.136 331.068 442.026 325.84 445.972 320.434C449.812 314.932 453.459 309.047 456.944 302.933C460.303 296.743 463.505 290.341 466.367 283.766C469.218 277.182 471.73 270.449 474.041 263.745C476.211 256.995 478.251 250.299 479.911 243.713C481.541 237.124 483.038 230.704 484.158 224.541C485.378 218.393 486.255 212.517 487.065 207.07C487.425 204.335 487.769 201.716 488.095 199.224C488.381 196.716 488.652 194.338 488.908 192.102C489.267 187.619 489.715 183.686 489.917 180.437C490.398 173.902 490.674 170.167 490.674 170.167C490.674 170.167 490.884 171.083 491.282 172.801C491.626 174.526 492.288 177.05 492.766 180.303C493.344 183.552 493.923 187.518 494.394 192.098C494.589 194.394 494.8 196.837 495.019 199.413C495.163 201.993 495.262 204.713 495.359 207.556C495.424 213.237 495.37 219.417 494.862 225.934C494.432 232.46 493.553 239.322 492.344 246.379C491.717 249.906 491.013 253.481 490.142 257.072C489.379 260.687 488.319 264.282 487.308 267.918C485.165 275.163 482.5 282.383 479.512 289.481C476.364 296.513 472.867 303.402 468.947 309.92C464.967 316.403 460.639 322.535 456.041 328.139C451.358 333.674 446.61 338.837 441.611 343.206C439.207 345.481 436.622 347.435 434.231 349.412C431.728 351.265 429.32 353.058 426.933 354.663C424.475 356.174 422.228 357.752 419.919 358.993C417.603 360.223 415.472 361.466 413.378 362.472C411.273 363.461 409.335 364.42 407.501 365.22C405.628 365.949 403.908 366.618 402.353 367.222C400.814 367.846 399.435 368.336 398.201 368.669C396.98 369.037 395.941 369.351 395.098 369.607C393.406 370.093 392.503 370.353 392.503 370.353Z" fill="#F2EEEB"/>
<path d="M35.8135 315.646C35.8135 315.646 36.6284 316.648 38.1573 318.525C38.912 319.469 39.8431 320.635 40.9376 322.004C42.0063 323.402 43.3179 324.927 44.821 326.569C46.3176 328.225 47.9174 330.081 49.7343 332.029C51.6717 333.895 53.6779 335.97 55.8497 338.146C58.0731 340.275 60.5975 342.374 63.1499 344.664C65.8076 346.842 68.6395 349.078 71.5876 351.39C73.1272 352.461 74.699 353.555 76.301 354.671C77.8857 355.8 79.5178 356.923 81.2702 357.933C83.0034 358.97 84.7257 360.073 86.4804 361.18C88.2715 362.232 90.1444 363.216 92.0065 364.257C99.5153 368.334 107.747 372.026 116.5 375.217C125.25 378.408 134.462 381.266 144.039 383.446C153.605 385.637 163.449 387.424 173.392 388.689C183.324 390.045 193.355 390.828 203.266 391.359C213.179 391.841 222.973 392.058 232.484 392.032C241.992 391.983 251.215 391.847 259.999 391.57C264.405 391.424 268.69 391.284 272.838 391.146C276.997 391.073 281.016 391.002 284.873 390.933C288.746 390.903 292.397 390.734 295.885 390.656C299.372 390.557 302.703 390.594 305.806 390.392C308.915 390.241 311.825 390.048 314.532 389.97C317.237 389.876 319.727 389.8 321.955 389.572C326.418 389.179 329.964 388.998 332.375 388.818C334.796 388.676 336.088 388.6 336.088 388.6C336.088 388.6 334.85 388.957 332.527 389.628C330.194 390.26 326.782 391.269 322.391 392.391C318.009 393.58 312.616 394.593 306.419 395.845C300.23 396.989 293.137 398.18 285.497 399.141C277.837 400.15 269.604 401.272 260.777 402.244C251.959 403.246 242.601 404.222 232.864 404.74C223.13 405.287 213.022 405.54 202.735 405.254C192.446 405.033 181.978 404.242 171.549 402.9C161.134 401.493 150.752 399.565 140.691 396.92C138.184 396.227 135.685 395.537 133.201 394.851C130.748 394.047 128.305 393.245 125.88 392.449C123.444 391.695 121.093 390.693 118.724 389.837C117.547 389.385 116.373 388.934 115.206 388.486C114.058 387.981 112.914 387.478 111.776 386.977C107.194 385.05 102.814 382.855 98.5799 380.625C96.4727 379.49 94.4514 378.24 92.4259 377.075C91.4195 376.484 90.4175 375.894 89.4219 375.31C88.4586 374.671 87.4996 374.039 86.5492 373.409C78.8017 368.599 72.2326 362.941 66.3452 357.677C63.5348 354.88 60.7846 352.276 58.3698 349.612C56.0518 346.849 53.779 344.318 51.8115 341.806C49.9128 339.23 48.1109 336.858 46.524 334.614C45.0123 332.293 43.705 330.109 42.4965 328.182C41.8987 327.217 41.3332 326.301 40.8 325.44C40.3097 324.561 39.9054 323.71 39.499 322.933C38.7013 321.37 38.024 320.043 37.4735 318.966C36.3897 316.803 35.8135 315.646 35.8135 315.646Z" fill="#F2EEEB"/>
<path d="M80.8481 35.8242C80.8481 35.8242 80.016 36.594 78.4527 38.0347C76.9217 39.4904 74.4704 41.4751 71.7181 44.264C70.329 45.6316 68.7915 47.1454 67.1186 48.7925C65.5188 50.5106 63.79 52.3663 61.9429 54.351C60.0464 56.2712 58.2832 58.559 56.363 60.8835C55.4233 62.0661 54.3933 63.2122 53.4236 64.4594C52.4903 65.7324 51.5356 67.0354 50.5594 68.3664C49.5853 69.6889 48.5897 71.0371 47.5748 72.4111C46.6481 73.8453 45.7041 75.3075 44.7429 76.7934C43.8054 78.2921 42.7625 79.7457 41.8314 81.3111C40.9369 82.8958 40.0295 84.5042 39.107 86.1341C38.2297 87.7877 37.1653 89.3509 36.3697 91.1034C35.529 92.8236 34.6796 94.5654 33.8195 96.3264C32.0004 99.7884 30.6242 103.566 29.0223 107.291C28.6417 108.232 28.2159 109.157 27.8676 110.118C27.5364 111.088 27.2053 112.062 26.8698 113.041C26.1904 114.987 25.5066 116.948 24.8185 118.922C24.0659 120.868 23.6186 122.94 23.0295 124.97C22.451 127.004 21.8705 129.047 21.2856 131.098C20.2233 135.236 19.4665 139.491 18.458 143.693C17.671 147.952 17.056 152.27 16.3378 156.562C15.7572 160.882 15.3637 165.238 14.8649 169.56C14.452 173.893 14.3079 178.25 14.0048 182.552L13.8048 185.778L13.7682 189.001C13.7338 191.147 13.6994 193.282 13.665 195.402C13.6285 197.482 13.5941 199.548 13.5575 201.599C13.6091 203.741 13.6586 205.87 13.7102 207.979C13.7553 210.089 13.7983 212.181 13.8435 214.254C13.865 216.348 14.065 218.271 14.1381 220.262C14.3918 224.203 14.4542 228.061 14.8778 231.843C15.2412 235.617 15.4927 239.32 15.9207 242.867C16.3722 246.422 16.8087 249.854 17.2259 253.15C18.3419 259.689 19.2106 265.764 20.4384 271.049C21.477 276.395 22.7585 280.957 23.6745 284.791C24.6637 288.595 25.6119 291.541 26.1796 293.588C26.7537 295.639 27.0591 296.732 27.0591 296.732C27.0591 296.732 26.4892 295.753 25.4227 293.917C24.898 292.99 24.2508 291.846 23.4896 290.502C22.7327 289.154 21.8124 287.617 21.006 285.802C19.3439 282.196 17.0581 277.872 15.1853 272.634C14.2155 270.028 12.9941 267.292 12.0824 264.306C11.1363 261.319 10.1407 258.177 9.10214 254.898C8.25278 251.565 7.36902 248.093 6.453 244.5C5.57569 240.891 4.96501 237.111 4.17371 233.241C3.33295 229.387 2.96311 225.298 2.33523 221.169C1.67079 216.985 1.38911 212.865 1.01496 208.665C0.836492 206.562 0.658019 204.442 0.477396 202.307C0.404287 200.075 0.333324 197.828 0.260215 195.566C0.176355 191.128 -0.171991 186.64 0.105394 182.096C0.30967 177.557 0.27097 172.971 0.701025 168.382C1.18484 163.796 1.55038 159.177 2.14385 154.579C2.94375 150.004 3.64904 145.413 4.5371 140.869C5.61654 136.356 6.65083 131.853 7.88938 127.441C9.31071 123.069 10.5428 118.685 12.1964 114.492C13.0371 112.402 13.8736 110.325 14.7014 108.26C15.1229 107.233 15.5422 106.209 15.9594 105.19C16.4023 104.181 16.9248 103.205 17.4 102.22C19.3998 98.3197 21.0942 94.3632 23.3907 90.8088C25.5539 87.1921 27.5794 83.614 30.0028 80.408C31.1596 78.7781 32.2993 77.1697 33.4239 75.5849C34.5829 74.0281 35.8386 72.5788 37.032 71.1274C38.2319 69.6867 39.4124 68.2697 40.5714 66.8806C41.7949 65.5474 43.0334 64.2723 44.2419 63.0252C45.4503 61.7823 46.6308 60.5653 47.7877 59.3762C48.9746 58.2215 50.2046 57.1592 51.3851 56.1142C53.7633 54.0392 55.9415 52.0136 58.2122 50.3579C60.4463 48.6656 62.4504 47.0035 64.448 45.6359C66.4714 44.3092 68.3314 43.0921 70.0108 41.9912C70.8451 41.4493 71.6364 40.9354 72.3782 40.4516C73.1502 40.0237 73.8748 39.6237 74.5478 39.2517C75.896 38.5078 77.0421 37.8756 77.9711 37.3638C79.8483 36.3596 80.8481 35.8242 80.8481 35.8242Z" fill="#F2EEEB"/>
</svg>