<svg width="275" height="66" viewBox="0 0 275 66" fill="none" xmlns="http://www.w3.org/2000/svg">
<path d="M12.113 42.72H21.073V48H5.27297V19.92H12.113V42.72ZM34.4955 48.32C32.3088 48.32 30.3355 47.8533 28.5755 46.92C26.8421 45.9867 25.4688 44.6533 24.4555 42.92C23.4688 41.1867 22.9755 39.16 22.9755 36.84C22.9755 34.5467 23.4821 32.5333 24.4955 30.8C25.5088 29.04 26.8955 27.6933 28.6555 26.76C30.4155 25.8267 32.3888 25.36 34.5755 25.36C36.7621 25.36 38.7355 25.8267 40.4955 26.76C42.2555 27.6933 43.6421 29.04 44.6555 30.8C45.6688 32.5333 46.1755 34.5467 46.1755 36.84C46.1755 39.1333 45.6555 41.16 44.6155 42.92C43.6021 44.6533 42.2021 45.9867 40.4155 46.92C38.6555 47.8533 36.6821 48.32 34.4955 48.32ZM34.4955 42.4C35.8021 42.4 36.9088 41.92 37.8155 40.96C38.7488 40 39.2155 38.6267 39.2155 36.84C39.2155 35.0533 38.7621 33.68 37.8555 32.72C36.9755 31.76 35.8821 31.28 34.5755 31.28C33.2421 31.28 32.1355 31.76 31.2555 32.72C30.3755 33.6533 29.9355 35.0267 29.9355 36.84C29.9355 38.6267 30.3621 40 31.2155 40.96C32.0955 41.92 33.1888 42.4 34.4955 42.4ZM48.4442 36.84C48.4442 34.52 48.9109 32.4933 49.8442 30.76C50.8042 29.0267 52.1242 27.6933 53.8042 26.76C55.5109 25.8267 57.4576 25.36 59.6442 25.36C62.4442 25.36 64.7776 26.0933 66.6442 27.56C68.5376 29.0267 69.7776 31.0933 70.3642 33.76H63.0842C62.4709 32.0533 61.2842 31.2 59.5242 31.2C58.2709 31.2 57.2709 31.6933 56.5242 32.68C55.7776 33.64 55.4042 35.0267 55.4042 36.84C55.4042 38.6533 55.7776 40.0533 56.5242 41.04C57.2709 42 58.2709 42.48 59.5242 42.48C61.2842 42.48 62.4709 41.6267 63.0842 39.92H70.3642C69.7776 42.5333 68.5376 44.5867 66.6442 46.08C64.7509 47.5733 62.4176 48.32 59.6442 48.32C57.4576 48.32 55.5109 47.8533 53.8042 46.92C52.1242 45.9867 50.8042 44.6533 49.8442 42.92C48.9109 41.1867 48.4442 39.16 48.4442 36.84ZM72.663 36.8C72.663 34.5067 73.0896 32.4933 73.943 30.76C74.823 29.0267 76.0096 27.6933 77.503 26.76C78.9963 25.8267 80.663 25.36 82.503 25.36C84.0763 25.36 85.4496 25.68 86.623 26.32C87.823 26.96 88.743 27.8 89.383 28.84V25.68H96.223V48H89.383V44.84C88.7163 45.88 87.783 46.72 86.583 47.36C85.4096 48 84.0363 48.32 82.463 48.32C80.6496 48.32 78.9963 47.8533 77.503 46.92C76.0096 45.96 74.823 44.6133 73.943 42.88C73.0896 41.12 72.663 39.0933 72.663 36.8ZM89.383 36.84C89.383 35.1333 88.903 33.7867 87.943 32.8C87.0096 31.8133 85.863 31.32 84.503 31.32C83.143 31.32 81.983 31.8133 81.023 32.8C80.0896 33.76 79.623 35.0933 79.623 36.8C79.623 38.5067 80.0896 39.8667 81.023 40.88C81.983 41.8667 83.143 42.36 84.503 42.36C85.863 42.36 87.0096 41.8667 87.943 40.88C88.903 39.8933 89.383 38.5467 89.383 36.84ZM108.011 18.4V48H101.171V18.4H108.011ZM123.128 48.28C121.075 48.28 119.235 47.9467 117.608 47.28C115.982 46.6133 114.675 45.6267 113.688 44.32C112.728 43.0133 112.222 41.44 112.168 39.6H119.448C119.555 40.64 119.915 41.44 120.528 42C121.142 42.5333 121.942 42.8 122.928 42.8C123.942 42.8 124.742 42.5733 125.328 42.12C125.915 41.64 126.208 40.9867 126.208 40.16C126.208 39.4667 125.968 38.8933 125.488 38.44C125.035 37.9867 124.462 37.6133 123.768 37.32C123.102 37.0267 122.142 36.6933 120.888 36.32C119.075 35.76 117.595 35.2 116.448 34.64C115.302 34.08 114.315 33.2533 113.488 32.16C112.662 31.0667 112.248 29.64 112.248 27.88C112.248 25.2667 113.195 23.2267 115.088 21.76C116.982 20.2667 119.448 19.52 122.488 19.52C125.582 19.52 128.075 20.2667 129.968 21.76C131.862 23.2267 132.875 25.28 133.008 27.92H125.608C125.555 27.0133 125.222 26.3067 124.608 25.8C123.995 25.2667 123.208 25 122.248 25C121.422 25 120.755 25.2267 120.248 25.68C119.742 26.1067 119.488 26.7333 119.488 27.56C119.488 28.4667 119.915 29.1733 120.768 29.68C121.622 30.1867 122.955 30.7333 124.768 31.32C126.582 31.9333 128.048 32.52 129.168 33.08C130.315 33.64 131.302 34.4533 132.128 35.52C132.955 36.5867 133.368 37.96 133.368 39.64C133.368 41.24 132.955 42.6933 132.128 44C131.328 45.3067 130.155 46.3467 128.608 47.12C127.062 47.8933 125.235 48.28 123.128 48.28ZM151.298 25.44C153.858 25.44 155.911 26.2933 157.458 28C159.004 29.68 159.778 32 159.778 34.96V48H152.978V35.88C152.978 34.3867 152.591 33.2267 151.818 32.4C151.044 31.5733 150.004 31.16 148.698 31.16C147.391 31.16 146.351 31.5733 145.578 32.4C144.804 33.2267 144.418 34.3867 144.418 35.88V48H137.578V18.4H144.418V28.68C145.111 27.6933 146.058 26.9067 147.258 26.32C148.458 25.7333 149.804 25.44 151.298 25.44ZM167.971 23.36C166.771 23.36 165.784 23.0133 165.011 22.32C164.264 21.6 163.891 20.72 163.891 19.68C163.891 18.6133 164.264 17.7333 165.011 17.04C165.784 16.32 166.771 15.96 167.971 15.96C169.144 15.96 170.104 16.32 170.851 17.04C171.624 17.7333 172.011 18.6133 172.011 19.68C172.011 20.72 171.624 21.6 170.851 22.32C170.104 23.0133 169.144 23.36 167.971 23.36ZM171.371 25.68V48H164.531V25.68H171.371ZM183.168 29.4C183.968 28.1733 184.968 27.2133 186.168 26.52C187.368 25.8 188.701 25.44 190.168 25.44V32.68H188.288C186.581 32.68 185.301 33.0533 184.448 33.8C183.594 34.52 183.168 35.8 183.168 37.64V48H176.328V25.68H183.168V29.4ZM205.877 42.2V48H202.397C199.917 48 197.984 47.4 196.597 46.2C195.21 44.9733 194.517 42.9867 194.517 40.24V31.36H191.797V25.68H194.517V20.24H201.357V25.68H205.837V31.36H201.357V40.32C201.357 40.9867 201.517 41.4667 201.837 41.76C202.157 42.0533 202.69 42.2 203.437 42.2H205.877Z" fill="#F4F4F4"/>
<path d="M252.909 64.8773C252.703 64.8492 248.777 64.5328 244.183 64.1741C239.589 63.8154 233.247 63.3164 230.089 63.0651C224.787 62.6433 224.32 62.5844 223.997 62.2968C223.805 62.1255 223.583 61.8673 223.503 61.7231C223.409 61.5523 223.417 60.7654 223.526 59.4648C223.65 57.9856 223.752 57.4242 223.922 57.2966C224.048 57.202 224.246 57.1598 224.361 57.2029C224.527 57.2652 224.57 57.7138 224.57 59.3815C224.57 61.423 224.579 61.4853 224.906 61.614C225.09 61.6867 231.72 62.2793 239.638 62.9308C250.387 63.8152 254.137 64.0775 254.437 63.9661C254.668 63.8803 254.869 63.675 254.909 63.4838C254.947 63.3007 255.12 61.4462 255.294 59.3628C255.467 57.2793 256.144 49.7068 256.797 42.5349C257.45 35.3631 258.034 29.1346 258.095 28.6939C258.201 27.9251 258.223 27.8926 258.652 27.8926C259.098 27.8926 259.098 27.8926 259.065 29.3495C259.047 30.1508 258.328 38.2635 257.466 47.3777C256.199 60.7862 255.853 64.0199 255.651 64.3207C255.514 64.5252 255.281 64.7554 255.134 64.8323C254.987 64.9091 254.51 64.9622 254.074 64.9502C253.638 64.9382 253.114 64.9054 252.909 64.8773ZM223.994 54.5793C223.88 54.4453 223.848 54.0928 223.902 53.5889C223.949 53.1585 224.353 48.653 224.8 43.5765C225.248 38.5 225.614 34.2548 225.614 34.1427C225.614 34.0306 225.564 33.9392 225.502 33.9395C225.441 33.9398 224.182 34.8899 222.706 36.0507C220.243 37.9866 219.971 38.1614 219.416 38.1627C218.926 38.1639 218.725 38.0743 218.355 37.6906C218.104 37.4301 217.264 36.4303 216.488 35.4687C215.712 34.5071 214.26 32.6832 213.261 31.4156C211.808 29.5711 211.445 29.0182 211.447 28.6473C211.449 28.3925 211.499 28.1132 211.559 28.0267C211.619 27.9402 212.91 26.8559 214.428 25.6171C215.946 24.3784 218.119 22.6595 219.259 21.7975C220.398 20.9354 222.233 19.6406 223.337 18.9201C224.441 18.1995 225.925 17.3268 226.635 16.9806C227.345 16.6344 228.463 16.1793 229.119 15.9693C229.775 15.7593 230.883 15.4568 231.58 15.2969C232.277 15.1371 233.307 14.9431 233.869 14.8658C234.728 14.7474 235.199 14.5529 236.852 13.6322C237.931 13.031 239.686 12.0081 240.753 11.3592C241.819 10.7102 242.977 10.1026 243.326 10.009C243.941 9.84368 243.96 9.8213 243.96 9.23592C243.96 8.83694 244.052 8.55155 244.232 8.39197C244.382 8.25935 244.727 8.15084 244.998 8.15084C245.269 8.15084 245.754 8.07396 246.075 7.97999C246.396 7.88602 246.853 7.59278 247.091 7.32834C247.328 7.06391 247.593 6.5999 247.679 6.29721C247.765 5.99452 247.836 5.46076 247.837 5.11108C247.837 4.73839 247.711 4.25502 247.531 3.94301C247.363 3.65026 247.004 3.26256 246.733 3.08145C246.462 2.90035 246.013 2.68839 245.735 2.61045C245.457 2.5325 244.974 2.46872 244.663 2.46872C244.352 2.46872 243.838 2.59759 243.522 2.75509C243.206 2.91259 242.712 3.3098 242.425 3.63779C242.138 3.96577 241.829 4.51795 241.74 4.86486C241.65 5.21176 241.467 5.53687 241.333 5.58732C241.198 5.63777 240.996 5.60432 240.883 5.513C240.77 5.42167 240.678 5.25909 240.678 5.15171C240.678 5.04433 240.823 4.57906 240.999 4.11778C241.217 3.54986 241.566 3.03982 242.081 2.53802C242.622 2.01011 243.046 1.74123 243.552 1.60319C243.976 1.48767 244.641 1.43898 245.197 1.48262C245.711 1.52293 246.406 1.69278 246.742 1.86049C247.079 2.02805 247.627 2.46813 247.96 2.83845C248.294 3.20876 248.68 3.84343 248.818 4.24881C248.991 4.75858 249.044 5.24925 248.989 5.83994C248.939 6.38317 248.77 6.92763 248.525 7.33594C248.291 7.72506 247.86 8.14534 247.429 8.40308C247.038 8.63694 246.491 8.90533 246.212 8.9995C245.933 9.09366 245.547 9.17071 245.354 9.17071C245.064 9.17071 245.004 9.2462 245.004 9.60584C245.004 9.95893 245.095 10.0784 245.488 10.2394C245.755 10.3485 247.517 11.7556 249.403 13.3662C252.436 15.9549 252.92 16.3148 253.58 16.4681C253.99 16.5635 254.899 16.8817 255.601 17.1753C256.303 17.4688 257.594 18.1263 258.47 18.6364C259.347 19.1465 260.588 19.9685 261.228 20.463C261.93 21.0052 264.403 23.4885 267.457 26.7171C270.243 29.6623 272.673 32.2771 272.857 32.5278C273.074 32.8217 273.193 33.194 273.193 33.5755C273.193 34.098 273.101 34.2546 272.41 34.9108C271.979 35.3196 270.091 37.0042 268.215 38.6543C265.766 40.8077 264.671 41.6786 264.336 41.7401C264.078 41.7872 263.691 41.7603 263.476 41.6802C263.26 41.6002 262.337 40.7079 261.425 39.6974C259.992 38.1108 259.787 37.8212 259.922 37.575C260.008 37.4182 260.168 37.2899 260.278 37.2899C260.388 37.2899 261.198 38.0439 262.078 38.9654C263.341 40.2887 263.761 40.6409 264.073 40.6409C264.383 40.6409 265.199 39.9724 267.824 37.5697C269.67 35.8806 271.405 34.282 271.681 34.0173C272.05 33.6643 272.148 33.4753 272.052 33.3075C271.98 33.1818 269.443 30.4522 266.415 27.2418C261.691 22.2344 260.727 21.284 259.63 20.5556C258.928 20.0886 257.925 19.4645 257.403 19.1686C256.881 18.8728 256.076 18.4766 255.614 18.2883C255.151 18.0999 254.564 17.9023 254.309 17.8492C253.846 17.7527 253.844 17.7545 253.285 19.0345C252.978 19.7395 252.49 20.6985 252.203 21.1655C251.915 21.6325 251.335 22.3588 250.914 22.7794C250.494 23.2001 249.777 23.7852 249.323 24.0796C248.869 24.374 248.12 24.7444 247.659 24.9027C247.198 25.0609 246.328 25.2654 245.726 25.357C245.087 25.4542 244.093 25.4842 243.341 25.4291C242.631 25.3772 241.658 25.2375 241.178 25.1188C240.698 25.0001 239.745 24.6349 239.06 24.3073C238.193 23.8927 237.49 23.4102 236.748 22.7199C236.162 22.1744 235.455 21.3607 235.178 20.9117C234.901 20.4628 234.511 19.6546 234.31 19.1157C234.11 18.5769 233.9 17.6432 233.844 17.0408C233.742 15.9455 233.742 15.9455 232.822 15.9701C232.316 15.9836 231.376 16.1347 230.734 16.3059C230.092 16.4772 228.761 17.001 227.777 17.47C226.792 17.9389 225.081 18.9073 223.974 19.622C222.866 20.3367 220.987 21.6314 219.797 22.4991C218.608 23.3669 216.964 24.6177 216.143 25.2788C215.323 25.9399 214.227 26.9039 213.708 27.4209C212.955 28.1705 212.773 28.4386 212.813 28.7437C212.841 28.9657 214.114 30.7462 215.845 32.986C217.801 35.5166 218.948 36.8784 219.175 36.9408C219.416 37.0068 219.668 36.9328 219.996 36.6998C220.256 36.5149 221.68 35.3983 223.161 34.2185C225.853 32.0734 225.853 32.0734 226.201 28.8174C226.392 27.0266 226.605 25.4139 226.674 25.2336C226.744 25.0533 226.894 24.9058 227.009 24.9058C227.124 24.9058 227.294 24.9951 227.387 25.1042C227.514 25.2533 227.242 28.7894 226.292 39.3459C225.597 47.0697 224.976 53.6843 224.911 54.0449C224.82 54.5529 224.724 54.7103 224.483 54.744C224.311 54.7679 224.092 54.6938 223.994 54.5793ZM246.197 24.2523C246.648 24.1352 247.487 23.8124 248.062 23.535C248.637 23.2577 249.539 22.6495 250.066 22.1836C250.593 21.7176 251.28 20.9492 251.593 20.476C251.907 20.0028 252.163 19.5435 252.163 19.4553C252.163 19.3672 251.139 18.7084 249.888 17.9913C248.637 17.2742 246.879 16.2747 245.981 15.7702C245.083 15.2656 244.21 14.8523 244.042 14.8516C243.873 14.8509 241.857 15.5169 239.56 16.3315C237.263 17.1461 235.329 17.8586 235.263 17.9148C235.197 17.9709 235.28 18.4006 235.449 18.8696C235.618 19.3385 236.002 20.0854 236.304 20.5292C236.605 20.9731 237.214 21.6816 237.656 22.1036C238.098 22.5257 238.841 23.0575 239.308 23.2853C239.774 23.5132 240.497 23.8086 240.913 23.9418C241.33 24.0749 241.967 24.2407 242.33 24.3103C242.693 24.3799 243.527 24.4432 244.183 24.451C244.84 24.4589 245.746 24.3694 246.197 24.2523ZM243.96 43.6326C243.96 43.5858 244.204 43.0738 244.502 42.4949C244.801 41.9159 245.365 40.9833 245.756 40.4224C246.147 39.8614 246.874 39.0133 247.371 38.5376C248.066 37.8726 248.238 37.6284 248.113 37.4813C248.023 37.376 247.894 37.2899 247.826 37.2899C247.758 37.2899 247.225 37.7548 246.641 38.323C246.057 38.8912 245.359 39.6944 245.09 40.1078C244.821 40.5212 244.35 41.3184 244.043 41.8793C243.486 42.8992 243.486 42.8992 243.569 41.9074C243.614 41.3619 243.762 40.4768 243.897 39.9405C244.032 39.4042 244.384 38.5129 244.678 37.9598C245.096 37.1755 245.405 36.8166 246.083 36.3291C246.561 35.9853 247.308 35.5396 247.743 35.3387C248.177 35.1377 249.028 34.8394 249.633 34.6757C250.238 34.5119 251.145 34.3367 251.648 34.2863C252.564 34.1947 252.564 34.1947 252.428 35.1892C252.353 35.7361 252.093 36.7876 251.851 37.5259C251.597 38.2999 251.15 39.2499 250.795 39.7699C250.455 40.2659 249.803 40.9591 249.345 41.3103C248.887 41.6616 248.035 42.176 247.453 42.4535C246.87 42.7311 245.914 43.088 245.328 43.2466C244.742 43.4053 244.194 43.5762 244.111 43.6264C244.028 43.6766 243.96 43.6794 243.96 43.6326ZM241.697 43.3325C241.637 43.1076 241.397 43.0038 240.599 42.8568C240.037 42.7533 239.036 42.4193 238.375 42.1145C237.714 41.8097 236.636 41.1689 235.98 40.6906C235.324 40.2123 234.296 39.3006 233.695 38.6647C232.959 37.8849 232.414 37.129 232.02 36.3429C231.699 35.7018 231.268 34.599 231.063 33.8921C230.857 33.1853 230.615 32.0141 230.525 31.2896C230.412 30.3851 230.409 29.9253 230.515 29.8222C230.62 29.719 231.155 29.7254 232.221 29.8426C233.075 29.9365 234.472 30.1781 235.325 30.3794C236.177 30.5807 237.419 31.0022 238.083 31.3161C238.995 31.7466 239.5 32.106 240.138 32.7793C240.603 33.2702 241.278 34.1631 241.638 34.7637C241.998 35.3642 242.416 36.3258 242.567 36.9006C242.763 37.6504 242.839 38.4599 242.835 39.7667C242.832 40.8054 242.748 41.8618 242.638 42.2252C242.447 42.8625 242.447 42.8625 242.038 41.7112C241.814 41.0781 241.275 39.9062 240.841 39.1071C240.407 38.308 239.727 37.228 239.329 36.7071C238.932 36.1863 238.274 35.4836 237.868 35.1457C237.462 34.8077 236.893 34.4214 236.605 34.2872C236.317 34.1531 235.97 34.085 235.834 34.1361C235.641 34.2085 235.911 34.5404 237.068 35.6501C237.882 36.4318 238.814 37.4648 239.138 37.9455C239.462 38.4263 239.939 39.192 240.198 39.6469C240.457 40.1019 240.941 41.1132 241.274 41.8944C241.607 42.6755 241.855 43.3834 241.827 43.4674C241.798 43.5514 241.74 43.4907 241.697 43.3325Z" fill="#F4F4F4"/>
<path d="M241.951 50.4104C241.898 50.3257 241.937 49.2104 242.039 47.932C242.186 46.0873 242.186 45.3652 242.04 44.4337C241.933 43.7501 241.608 42.6781 241.262 41.867C240.936 41.1009 240.457 40.1019 240.198 39.6469C239.94 39.192 239.463 38.4264 239.138 37.9456C238.814 37.4648 237.882 36.4318 237.068 35.6502C235.911 34.5404 235.641 34.2086 235.834 34.1361C235.971 34.0851 236.318 34.1531 236.606 34.2873C236.894 34.4214 237.462 34.8077 237.868 35.1457C238.274 35.4836 238.951 36.2104 239.371 36.7607C239.792 37.311 240.549 38.5601 241.054 39.5364C241.559 40.5128 242.083 41.7344 242.218 42.2511C242.354 42.7678 242.537 43.4776 242.626 43.8283C242.715 44.1791 242.84 44.4086 242.903 44.3383C242.967 44.268 243.177 43.8171 243.372 43.3363C243.566 42.8555 244.02 41.9376 244.38 41.2966C244.74 40.6555 245.211 39.9015 245.426 39.6211C245.641 39.3406 246.244 38.7014 246.765 38.2005C247.287 37.6997 247.767 37.2899 247.832 37.2899C247.897 37.2899 248.023 37.3761 248.113 37.4813C248.238 37.6284 248.066 37.8726 247.371 38.5376C246.874 39.0133 246.147 39.8615 245.756 40.4224C245.365 40.9833 244.793 41.9323 244.484 42.5311C244.175 43.13 243.727 44.3746 243.489 45.2968C243.251 46.2191 242.982 47.5977 242.893 48.3603C242.803 49.1229 242.682 49.9108 242.624 50.1111C242.566 50.3115 242.413 50.4954 242.283 50.5199C242.154 50.5443 242.005 50.4951 241.951 50.4104Z" fill="#F4F4F4"/>
</svg>
