<svg width="473" height="600" viewBox="0 0 473 600" fill="none" xmlns="http://www.w3.org/2000/svg">
<path d="M174.117 16.1405C174.117 16.1405 151.755 24.2352 138.922 84.1458C126.541 141.949 105.421 164.784 81.8153 186.422C58.2126 208.059 36.8926 229.218 45.2686 257.471C53.6446 285.723 83.3392 290.291 83.3392 290.291C83.3392 290.291 80.4232 347.69 125.217 367.955C170.009 388.223 361.938 381.691 388.475 352.624C402.309 337.474 408.667 310.114 403.995 289.448C399.705 270.468 384.869 257.471 384.869 257.471C384.869 257.471 416.258 246.815 398.745 206.16C381.233 165.507 350.594 174.591 334.605 128.89C318.615 83.1898 318.355 64.1658 318.355 64.1658L174.117 16.1405Z" fill="#00352F"/>
<path d="M388.476 314.526L398.183 333.621L422.396 227.455C422.396 227.455 412.337 218.409 409.357 208.403L406.379 198.399L414.201 190.367C414.201 190.367 412.711 133.21 417.18 129.111C421.651 125.014 429.845 179.029 429.845 179.029C429.845 179.029 441.767 129.485 446.609 130.974C451.451 132.465 446.609 171.565 446.609 171.565C448.965 169.961 452.101 170.118 454.285 171.95L459.815 176.583C462.231 178.609 462.801 182.098 461.159 184.789L457.504 190.769C457.504 190.769 462.943 185.634 467.68 189.977C472.419 194.321 473.276 201.966 472.485 205.914C471.696 209.862 462.773 220.902 459.021 224.258C455.271 227.614 447.829 232.623 447.829 232.623C447.829 232.623 443.019 303.61 439.693 335.758C436.368 367.905 420.849 425.547 420.849 425.547C420.849 425.547 388.428 412.739 373.923 398.943C359.416 385.146 345.471 367.165 345.471 367.165L359.143 321.347L388.476 314.526Z" fill="#F5CAC3"/>
<path d="M278.895 206.588L277.263 195.056C267.93 199.762 257.31 201.93 246.883 201.11C238.935 200.485 231.15 198.122 224.138 194.336L223.387 205.597L211.823 211.874L267.662 257.47L291.782 211.544L278.895 206.588Z" fill="#F5CAC3"/>
<path d="M277.264 195.056L273.94 171.565L225.371 175.861L224.139 194.336C231.151 198.122 238.936 200.485 246.883 201.11C257.309 201.93 267.931 199.762 277.264 195.056Z" fill="#F28482"/>
<path d="M324.134 117.146C324.131 123.502 322.535 129.85 319.53 135.45C317.137 139.911 313.457 144.147 308.495 145.155C302.957 146.281 297.15 142.83 294.43 137.877C289.577 129.039 293.131 112.403 300.757 105.615C311.739 95.8395 324.139 103.706 324.134 117.146Z" fill="#F28482"/>
<path d="M306.502 47.7515C306.502 47.7515 320.012 148.878 294.07 173.509C267.24 198.984 226.648 196.462 201.305 173.509C175.962 150.557 171.181 103.697 168.312 80.2662C165.442 56.8369 181.318 20.4955 239.606 20.0182C297.894 19.5395 306.502 47.7515 306.502 47.7515Z" fill="#F5CAC3"/>
<path d="M166.938 125.676C175.826 120.98 180.624 111.005 183.022 101.242C187.826 81.6758 185.122 60.3638 175.584 42.6171C165.147 53.3585 158.94 67.1571 157.819 82.0918C156.698 97.0278 160.054 112.373 166.938 125.676Z" fill="#00352F"/>
<path d="M176.253 56.4397C181.531 48.6944 188.852 42.1517 197.625 38.8544C206.399 35.557 216.668 35.773 224.793 40.4437C232.92 45.1144 238.419 54.4904 237.483 63.8157L318.356 64.165C317.905 50.1957 316.571 35.549 308.853 23.8944C301.945 13.461 290.516 6.60771 278.469 3.22504C266.421 -0.156288 253.709 -0.35762 241.213 0.298378C218.096 1.50904 194.776 5.69571 174.117 16.1397L176.253 56.4397Z" fill="#00352F"/>
<path d="M149.524 116.131C149.527 123.228 151.31 130.319 154.666 136.573C157.339 141.555 161.448 146.287 166.99 147.412C173.175 148.669 179.66 144.816 182.699 139.283C188.119 129.413 184.15 110.833 175.632 103.252C163.367 92.3334 149.519 101.12 149.524 116.131Z" fill="#F5CAC3"/>
<mask id="mask0_1448_1344" style="mask-type:luminance" maskUnits="userSpaceOnUse" x="154" y="106" width="24" height="32">
<path d="M154.978 106.768H177.254V137.407H154.978V106.768Z" fill="white"/>
</mask>
<g mask="url(#mask0_1448_1344)">
<g opacity="0.5">
<path d="M173.889 136.28C170.809 136.795 167.492 135.402 165.703 132.842C163.915 130.283 163.745 126.688 165.287 123.974C165.721 123.207 166.303 122.491 167.085 122.087C167.745 121.747 168.503 121.65 169.245 121.635C172.217 121.575 175.193 122.807 177.253 124.948C176.513 121.224 175.7 117.448 173.891 114.11C172.083 110.77 169.121 107.867 165.424 106.999C161.727 106.13 157.348 107.763 155.817 111.239C155.817 111.239 152.005 123.447 160.625 132.066C169.245 140.687 173.889 136.28 173.889 136.28Z" fill="#F28482"/>
</g>
</g>
<path d="M155.817 111.239C156.832 108.503 159.715 106.787 162.604 106.446C165.581 106.093 168.559 107.351 170.787 109.254C173.071 111.154 174.633 113.778 175.697 116.475C176.764 119.191 177.397 122.019 177.952 124.81L178.431 127.222L176.739 125.443C175.003 123.618 172.539 122.457 170.001 122.301C168.709 122.219 167.476 122.319 166.677 123.141C165.848 123.959 165.257 125.163 164.957 126.375C164.36 128.837 164.973 131.635 166.732 133.549C168.459 135.497 171.192 136.561 173.889 136.281C171.225 136.878 168.273 135.971 166.236 134.026C164.193 132.035 163.357 128.969 163.896 126.15C164.191 124.741 164.725 123.357 165.82 122.253C166.361 121.701 167.135 121.294 167.885 121.143C168.641 120.979 169.359 120.977 170.075 121.005C172.947 121.141 175.736 122.391 177.767 124.455L176.553 125.087C176.001 122.309 175.456 119.545 174.471 116.95C173.515 114.347 172.043 111.967 170.045 110.093C168.067 108.241 165.417 106.967 162.664 107.159C159.948 107.262 157.133 108.669 155.817 111.239Z" fill="#00352F"/>
<path d="M251.515 76.3103C252.505 79.6076 253.473 82.909 254.347 86.2303L255.681 91.209C256.14 92.8636 256.52 94.5463 257.037 96.141C257.556 97.7316 258.192 99.2676 259.128 100.566C260.047 101.872 261.363 102.826 262.775 103.762C265.648 105.621 268.539 107.497 271.395 109.402L271.872 109.721L271.643 110.222C270.364 113.028 268.591 115.581 266.512 117.814C265.477 118.94 264.32 119.942 263.111 120.86C261.901 121.777 260.62 122.594 259.271 123.273C260.515 122.42 261.699 121.496 262.805 120.492C263.912 119.486 264.921 118.388 265.88 117.256C267.788 114.98 269.307 112.408 270.433 109.694L270.681 110.513C267.753 108.709 264.853 106.885 261.948 105.026C260.491 104.098 258.989 102.96 257.923 101.433C256.855 99.9289 256.191 98.2316 255.707 96.5463C254.768 93.1676 254.199 89.8143 253.459 86.4436C252.74 83.081 252.116 79.6983 251.515 76.3103Z" fill="#00352F"/>
<path d="M210.381 102.357C212.428 101.274 214.632 100.504 216.869 99.8663C219.121 99.2809 221.42 98.8823 223.729 98.6023C226.038 98.3049 228.364 98.2156 230.68 98.1383C232.996 98.0943 235.309 98.1103 237.614 98.1423L237.07 99.4409C234.038 96.4209 229.993 94.5329 225.794 93.4396C223.684 92.8889 221.506 92.5636 219.312 92.3649C217.117 92.1209 214.9 92.0703 212.677 91.9876C214.888 91.7316 217.114 91.6343 219.352 91.6329C221.586 91.6756 223.83 91.8836 226.049 92.3129C230.472 93.1703 234.82 95.1156 238.136 98.3609L239.497 99.6929L237.592 99.6609C232.985 99.5796 228.4 99.5009 223.836 99.7783C221.554 99.9129 219.281 100.169 217.036 100.604C214.777 100.982 212.564 101.598 210.381 102.357Z" fill="#00352F"/>
<path d="M196.456 81.8975C196.357 78.2948 197.205 74.6028 198.759 71.1468C199.56 69.4322 200.539 67.7735 201.691 66.2068C202.876 64.6722 204.231 63.2348 205.743 61.9362C207.26 60.6495 208.837 59.3642 210.581 58.2815C212.328 57.2122 214.309 56.5615 216.345 56.4055C218.379 56.2442 220.441 56.4535 222.395 57.0562C224.341 57.6762 226.199 58.6508 227.695 60.2642L227.527 61.1628C225.623 62.1388 224.015 62.8308 222.501 63.5095L218.253 65.3375C216.905 65.9042 215.572 66.3015 214.137 66.5935C212.701 66.8708 211.232 67.2602 209.903 67.9428C208.571 68.6162 207.285 69.4428 206.077 70.4068C204.837 71.3388 203.669 72.4135 202.603 73.6108C200.423 75.9815 198.656 78.8415 197.355 82.0562L196.456 81.8975Z" fill="#00352F"/>
<path d="M287.327 93.701C287.327 98.1957 284.919 101.838 281.95 101.838C278.98 101.838 276.572 98.1957 276.572 93.701C276.572 89.2064 278.98 85.5637 281.95 85.5637C284.919 85.5637 287.327 89.2064 287.327 93.701Z" fill="#00352F"/>
<path d="M235.4 137.591C240.434 143.173 249.614 151.511 258.695 150.257C259.196 150.188 259.683 150.089 260.163 149.975C260.155 149.964 260.15 149.952 260.143 149.943C254.918 141.797 245.031 136.941 235.4 137.591Z" fill="#F28482"/>
<path d="M277.496 129.56C277.496 129.56 270.09 136.306 257.764 137.235C245.44 138.166 231.488 132.818 231.488 132.818C231.488 132.818 232.959 134.882 235.4 137.591C245.031 136.942 254.918 141.798 260.143 149.943C260.15 149.952 260.156 149.964 260.163 149.975C272.567 147.015 277.496 129.56 277.496 129.56Z" fill="#00352F"/>
<path d="M141.578 500.781L124.068 600.353H405.916L377.132 486.337C304.526 521.29 217.902 526.648 141.578 500.781Z" fill="#00352F"/>
<path d="M377.133 486.337L353.625 393.221C353.625 393.221 359.621 384.976 368.24 372.611C376.858 360.245 368.24 329.516 368.24 329.516L388.476 314.527C388.476 314.527 361.494 244.451 351.752 236.207C342.008 227.963 283.616 208.404 283.616 208.404C283.616 208.404 279.205 246.773 266.157 245.587C253.109 244.4 218.217 208.404 218.217 208.404C218.217 208.404 131.425 223.876 121.365 232.879C111.304 241.88 59.4103 307.541 59.4103 307.541C59.4103 307.541 57.8223 313.896 71.589 329.252C85.357 344.608 103.361 350.432 103.361 350.432L133.014 323.427L157.606 409.631L141.578 500.781C217.902 526.648 304.526 521.291 377.133 486.337Z" fill="#329F5B"/>
<path d="M59.4107 307.541L0 396.248C0 396.248 52.9147 421.384 89.2933 435.273C125.673 449.164 145.387 451.809 154.381 448.503C163.375 445.195 175.816 435.935 175.816 435.935C175.816 435.935 195.323 448.288 205.911 449.784C216.497 451.281 230.371 436.844 223.915 429.143C217.46 421.443 172.907 403.511 172.907 403.511C172.907 403.511 214.528 414.612 220.28 416.861C226.032 419.113 220.531 408.795 210.025 404.543C199.521 400.292 176.012 387.223 170.009 388.223C164.007 389.223 146.999 417.984 146.999 417.984L73.968 380.719L103.361 350.432C103.361 350.432 89.7547 346.412 75.308 332.217C62.9907 320.112 59.4107 307.541 59.4107 307.541Z" fill="#F5CAC3"/>
<path d="M413.703 190.758C416.046 189.355 418.455 188.076 420.866 186.792C423.299 185.555 425.755 184.363 428.231 183.208C430.699 182.035 433.231 181.008 435.756 179.967C438.288 178.942 440.835 177.946 443.404 177.018L444.012 176.799L444.287 177.376C445.478 179.879 445.923 182.695 445.622 185.424C445.32 188.152 444.227 190.811 442.455 192.892C440.726 194.987 438.348 196.574 435.866 197.427C434.662 197.77 434.419 199.211 433.859 200.394C433.36 201.608 432.843 202.818 432.316 204.024C432.702 202.766 433.096 201.511 433.508 200.263C433.719 199.634 433.898 199.022 434.134 198.376C434.339 197.719 434.932 197.079 435.571 196.8C438.006 195.798 440.068 194.25 441.602 192.212C443.11 190.184 444.1 187.795 444.33 185.29C444.563 182.794 444.11 180.234 443.004 178.004L443.887 178.363C441.327 179.274 438.774 180.202 436.24 181.187C433.702 182.155 431.203 183.223 428.676 184.23C426.159 185.255 423.658 186.326 421.174 187.435C418.666 188.498 416.196 189.648 413.703 190.758Z" fill="#00352F"/>
<path d="M457.503 190.769C456.34 194.055 454.986 197.295 453.202 200.333C451.443 203.382 449.246 206.209 446.642 208.63C445.318 209.829 443.828 210.934 442.094 211.611C440.368 212.287 438.398 212.483 436.586 211.93C435.684 211.657 434.824 211.199 434.134 210.55C433.452 209.898 432.924 209.107 432.586 208.259C431.939 206.549 431.892 204.67 432.448 203.01C432.204 204.731 432.426 206.502 433.216 207.97C433.975 209.45 435.312 210.518 436.878 210.858C438.436 211.206 440.107 211.013 441.586 210.358C443.084 209.721 444.442 208.727 445.671 207.575C448.174 205.267 450.338 202.597 452.246 199.738C454.143 196.869 455.826 193.829 457.503 190.769Z" fill="#00352F"/>
<path d="M466.552 205.914C464.601 207.982 462.513 209.92 460.3 211.707C458.084 213.504 455.82 215.188 453.363 216.718C452.116 217.45 450.795 218.115 449.369 218.551C447.959 218.939 446.416 219.27 444.845 218.808C444.085 218.611 443.291 218.046 442.897 217.379C442.467 216.719 442.208 216.011 442.024 215.302C441.711 213.872 441.599 212.415 441.841 211.006C441.923 212.42 442.181 213.815 442.696 215.088C443.192 216.355 443.933 217.55 445.135 217.724C446.336 217.97 447.691 217.688 448.956 217.255C450.228 216.826 451.448 216.203 452.627 215.486C454.989 214.05 457.311 212.404 459.628 210.816L466.552 205.914Z" fill="#00352F"/>
<path d="M398.183 333.621C397.693 335.592 397.116 337.534 396.585 339.49L394.845 345.314C393.684 349.194 392.415 353.038 391.147 356.885C389.844 360.718 388.54 364.552 387.131 368.35L385.011 374.045C384.255 375.926 383.544 377.825 382.748 379.693C383.236 377.721 383.813 375.78 384.343 373.821L386.083 367.998C387.245 364.118 388.513 360.273 389.784 356.428C391.088 352.594 392.391 348.761 393.803 344.964L395.921 339.268C396.676 337.386 397.385 335.489 398.183 333.621Z" fill="#00352F"/>
<path d="M172.906 413.754C175.166 414.506 177.386 415.364 179.617 416.2C181.825 417.087 184.022 418.006 186.213 418.942C190.59 420.822 194.877 422.904 199.113 425.086C203.332 427.298 207.501 429.611 211.554 432.112C213.578 433.367 215.592 434.638 217.588 435.936C219.553 437.282 221.532 438.606 223.444 440.023L217.22 436.536C215.156 435.363 213.085 434.203 211.001 433.067C206.83 430.8 202.665 428.534 198.45 426.36C194.25 424.158 190.002 422.051 185.752 419.94C183.624 418.887 181.484 417.86 179.337 416.843L172.906 413.754Z" fill="#00352F"/>
<path d="M174.969 426.423C176.885 426.874 178.766 427.44 180.658 427.984C182.53 428.583 184.393 429.218 186.249 429.872C189.958 431.192 193.585 432.736 197.155 434.395C200.713 436.083 204.215 437.89 207.601 439.9C209.289 440.912 210.966 441.943 212.622 443.002C214.249 444.111 215.885 445.199 217.454 446.386L212.263 443.607C210.539 442.674 208.81 441.758 207.067 440.87C203.579 439.098 200.089 437.34 196.545 435.694C193.017 434.015 189.435 432.451 185.846 430.895C184.049 430.12 182.239 429.376 180.422 428.644L174.969 426.423Z" fill="#00352F"/>
<path d="M73.9686 380.718C71.7153 380.052 69.4273 379.545 67.1179 379.177C64.8166 378.766 62.4993 378.458 60.1753 378.238C57.8539 378.033 55.5139 377.83 53.1993 377.782C50.9006 377.688 48.5779 377.878 46.2673 378.094C41.6366 378.549 37.0379 379.417 32.4459 380.317C30.1499 380.769 27.8619 381.277 25.5806 381.818C23.2859 382.31 21.0126 382.889 18.7246 383.436C23.1219 381.757 27.6353 380.4 32.2006 379.241C36.7673 378.08 41.4073 377.162 46.1233 376.666C47.3073 376.582 48.4833 376.44 49.6766 376.426L51.4606 376.37L53.2526 376.426C55.6286 376.561 57.9713 376.778 60.3086 377.145C64.9686 377.86 69.6393 378.838 73.9686 380.718Z" fill="#00352F"/>
<path d="M147.663 54.7374C145.504 66.268 142.501 77.6454 138.844 88.8187C135.1 99.96 130.584 110.863 125.236 121.363C114.555 142.348 100.073 161.568 82.2667 177.124C73.3867 184.86 64.0894 191.999 55.976 200.311C47.8734 208.541 41.1014 218.276 37.6627 229.261C35.9854 234.735 35.2694 240.54 35.9254 246.227C36.4867 251.931 38.6374 257.416 41.616 262.332C44.5947 267.276 48.696 271.531 53.4014 274.925C58.1547 278.261 63.6414 280.587 69.412 281.639C63.5947 280.897 57.924 278.796 52.9747 275.556C48.06 272.28 43.6934 268.081 40.4294 263.089C37.216 258.092 34.8574 252.428 34.124 246.451C33.3014 240.492 33.9187 234.399 35.5427 228.64C37.152 222.865 39.7627 217.413 42.9827 212.404C46.1814 207.376 49.9854 202.748 54.0987 198.491C62.328 189.944 71.6334 182.683 80.3734 174.965C89.1827 167.34 97.2254 158.892 104.359 149.681C111.521 140.499 117.724 130.592 123.287 120.343C128.819 110.069 133.524 99.344 137.523 88.356C141.608 77.3934 144.873 66.1267 147.663 54.7374Z" fill="#00352F"/>
<path d="M390.932 195.24C396.336 200.839 401.601 206.714 405.446 213.7C407.389 217.167 408.826 220.956 409.754 224.862C410.632 228.779 410.964 232.815 410.769 236.827C410.52 240.835 409.774 244.82 408.444 248.612C407.778 250.506 406.978 252.354 406.04 254.124C405.132 255.911 404.058 257.607 402.878 259.216C398.205 265.68 391.696 270.787 384.362 273.5C391.176 269.699 396.91 264.322 401.028 257.95C405.145 251.583 407.526 244.196 407.902 236.671C408.358 229.14 406.797 221.56 403.46 214.72C400.152 207.835 395.433 201.604 390.932 195.24Z" fill="#00352F"/>
<mask id="mask1_1448_1344" style="mask-type:luminance" maskUnits="userSpaceOnUse" x="212" y="117" width="24" height="13">
<path d="M212.222 117.33H235.763V129.216H212.222V117.33Z" fill="white"/>
</mask>
<g mask="url(#mask1_1448_1344)">
<g opacity="0.5">
<path d="M235.753 122.328C236.013 125.569 230.959 128.618 224.463 129.141C217.969 129.662 212.491 127.46 212.231 124.218C211.971 120.978 217.025 117.929 223.521 117.406C230.015 116.884 235.493 119.088 235.753 122.328Z" fill="#F28482"/>
</g>
</g>
<mask id="mask2_1448_1344" style="mask-type:luminance" maskUnits="userSpaceOnUse" x="275" y="115" width="24" height="13">
<path d="M275.019 115.343H298.56V127.229H275.019V115.343Z" fill="white"/>
</mask>
<g mask="url(#mask2_1448_1344)">
<g opacity="0.5">
<path d="M275.028 120.341C274.768 123.581 279.821 126.631 286.317 127.153C292.812 127.675 298.289 125.471 298.549 122.231C298.811 118.991 293.756 115.941 287.26 115.419C280.765 114.897 275.288 117.101 275.028 120.341Z" fill="#F28482"/>
</g>
</g>
<path d="M240.732 389.802C254.224 397.438 271.3 393.675 280.348 381.098C281.319 379.758 281.016 377.886 279.667 376.918C278.328 375.961 276.457 376.265 275.488 377.603C271.575 383.041 265.593 386.633 258.96 387.527C245.597 389.33 233.305 379.967 231.503 366.619C235.28 374.035 242.42 379.151 250.669 380.353C257.433 368.689 253.464 353.743 241.799 346.967C238.893 345.297 235.681 344.23 232.351 343.843C218.835 342.282 206.563 335.286 198.323 324.462C193.087 344.722 197.447 366.263 210.125 382.905C217.304 392.319 230.208 395.234 240.732 389.802Z" fill="#8FD5A6"/>
<path d="M230.619 286.76C217.269 294.635 211.98 311.303 218.344 325.432C219.025 326.939 220.797 327.61 222.305 326.927C223.813 326.256 224.483 324.486 223.8 322.966C221.053 316.866 220.939 309.89 223.476 303.694C228.588 291.212 242.84 285.251 255.309 290.363C247.001 289.935 238.997 293.563 233.837 300.096C240.551 311.788 255.476 315.823 267.167 309.108C270.08 307.435 272.616 305.179 274.615 302.486C282.716 291.57 294.919 284.428 308.409 282.722C293.48 268.042 272.645 261.043 251.903 263.704C240.148 265.219 231.185 274.938 230.619 286.76Z" fill="#8FD5A6"/>
<path d="M324.902 329.526C324.76 314.03 312.989 301.119 297.56 299.559C295.909 299.402 294.44 300.593 294.281 302.242C294.113 303.891 295.317 305.361 296.966 305.519C303.628 306.194 309.721 309.579 313.83 314.878C322.07 325.545 320.109 340.866 309.444 349.115C313.978 342.129 314.837 333.375 311.764 325.65C298.274 325.623 287.317 336.522 287.289 350.013C287.285 353.367 287.969 356.693 289.302 359.77C294.705 372.246 294.788 386.383 289.526 398.917C309.689 393.322 326.161 378.779 334.237 359.477C338.802 348.562 334.874 335.929 324.902 329.526Z" fill="#8FD5A6"/>
<path d="M345.471 252.138L368.24 329.516L376.893 323.105L345.471 252.138Z" fill="#0C8346"/>
<path d="M133.014 323.427L124.068 288.055L126.327 329.515L133.014 323.427Z" fill="#0C8346"/>
<path d="M138.73 516.97C148.621 520.224 158.686 522.915 168.809 525.31C178.93 527.706 189.124 529.806 199.396 531.416C201.957 531.855 204.541 532.151 207.113 532.524L210.972 533.068C212.258 533.243 213.553 533.359 214.844 533.506L222.592 534.343L230.364 534.887C231.658 534.968 232.953 535.09 234.249 535.139L238.142 535.242C240.737 535.294 243.332 535.419 245.926 535.411C251.112 535.243 256.31 535.319 261.47 534.764C282.178 533.232 302.59 528.67 322.514 522.81C332.493 519.891 342.316 516.444 352.022 512.707C361.734 508.987 371.333 504.932 380.657 500.295C362.184 509.92 342.737 517.658 322.836 523.867C320.362 524.694 317.838 525.354 315.338 526.096C312.834 526.823 310.325 527.534 307.789 528.142L300.198 530.034L292.549 531.687C282.318 533.703 272.017 535.507 261.58 536.195C256.374 536.731 251.144 536.635 245.925 536.78C243.314 536.776 240.706 536.643 238.097 536.579L234.184 536.459C232.881 536.403 231.582 536.276 230.281 536.19L222.476 535.61L214.7 534.738C212.104 534.476 209.521 534.111 206.945 533.711C204.369 533.303 201.782 532.974 199.218 532.502C178.672 528.948 158.392 523.846 138.73 516.97Z" fill="#0C8346"/>
<path d="M131.496 558.113C134.085 559.252 136.76 560.168 139.487 560.832C142.204 561.526 144.977 561.972 147.755 562.077C150.532 562.137 153.301 561.869 155.933 561.105C158.608 560.416 160.945 558.912 163.065 557.21C165.197 555.457 167.007 553.338 168.663 551.113C170.248 548.825 171.593 546.381 172.825 543.868C174.008 541.333 175.017 538.709 175.855 536.025C176.729 533.35 177.417 530.612 177.944 527.832C177.467 533.48 176.012 539.041 173.835 544.32C172.736 546.961 171.316 549.462 169.736 551.862C168.057 554.193 166.209 556.432 163.991 558.308C161.708 560.092 159.145 561.668 156.297 562.36C153.489 563.108 150.568 563.413 147.697 563.174C141.964 562.685 136.429 560.889 131.496 558.113Z" fill="#0C8346"/>
<path d="M341.812 516.97C342.506 519.87 343.294 522.738 344.256 525.547C345.177 528.367 346.226 531.143 347.477 533.818C348.734 536.484 350.113 539.096 351.818 541.468C353.52 543.831 355.546 545.982 357.986 547.455C359.186 548.232 360.496 548.758 361.888 549.104L364.006 549.583L366.172 549.834C369.073 550.075 372.004 549.832 374.901 549.372C377.804 548.896 380.648 548.048 383.421 547.023C386.213 546.031 388.913 544.778 391.525 543.344C386.597 546.706 381.01 549.163 375.113 550.456C372.162 551.107 369.109 551.322 366.069 551.139L363.793 550.906L361.548 550.435C360.054 550.087 358.546 549.511 357.236 548.679C354.588 547.022 352.489 544.704 350.753 542.222C349.034 539.72 347.594 537.048 346.469 534.26C344.181 528.702 342.628 522.88 341.812 516.97Z" fill="#0C8346"/>
<path d="M275.751 600.353C275.715 595.742 276.113 591.181 276.614 586.633C277.161 582.089 277.814 577.557 278.905 573.077C278.943 577.689 278.547 582.249 278.041 586.797C277.493 591.339 276.838 595.871 275.751 600.353Z" fill="#0C8346"/>
<path d="M151.769 24.725C151.459 20.8583 151.409 16.7823 153.165 13.3237C153.875 11.925 155.414 10.517 156.827 11.197C157.786 11.6597 158.11 12.845 158.283 13.893C159.757 22.809 158.517 34.0077 154.978 42.3477C152.346 37.8423 152.189 29.969 151.769 24.725Z" fill="#F28482"/>
<path d="M158.186 59.9698C158.496 63.8365 158.548 67.9125 156.79 71.3712C156.08 72.7698 154.541 74.1778 153.128 73.4978C152.169 73.0352 151.846 71.8512 151.673 70.8018C150.2 61.8858 151.44 50.6872 154.978 42.3472C157.609 46.8525 157.766 54.7258 158.186 59.9698Z" fill="#F28482"/>
<path d="M172.6 39.1385C176.467 38.8291 180.542 38.7785 184.002 40.5345C185.4 41.2451 186.808 42.7838 186.127 44.1971C185.666 45.1558 184.48 45.4798 183.432 45.6531C174.516 47.1265 163.318 45.8865 154.978 42.3478C159.483 39.7158 167.356 39.5585 172.6 39.1385Z" fill="#F28482"/>
<path d="M137.355 45.5566C133.488 45.866 129.412 45.9166 125.954 44.1606C124.555 43.45 123.147 41.9113 123.827 40.498C124.29 39.5393 125.474 39.2153 126.523 39.042C135.439 37.5686 146.638 38.8086 154.978 42.3473C150.472 44.9793 142.599 45.1366 137.355 45.5566Z" fill="#F28482"/>
<path d="M165.17 27.6173C167.684 24.664 170.531 21.7467 174.219 20.5427C175.71 20.056 177.794 20.148 178.312 21.6293C178.663 22.6333 178.054 23.7 177.435 24.564C172.171 31.9107 163.376 38.952 154.978 42.3467C156.303 37.3013 161.758 31.6227 165.17 27.6173Z" fill="#F28482"/>
<path d="M144.786 57.0775C142.27 60.0308 139.424 62.9482 135.736 64.1522C134.246 64.6388 132.16 64.5468 131.643 63.0655C131.292 62.0615 131.902 60.9948 132.52 60.1308C137.783 52.7842 146.579 45.7428 154.978 42.3482C153.652 47.3935 148.196 53.0722 144.786 57.0775Z" fill="#F28482"/>
<path d="M169.708 52.5397C172.661 55.0557 175.579 57.901 176.783 61.589C177.269 63.0797 177.177 65.165 175.696 65.6823C174.692 66.033 173.625 65.4237 172.761 64.805C165.415 59.5423 158.373 50.7463 154.979 42.3477C160.024 43.673 165.703 49.129 169.708 52.5397Z" fill="#F28482"/>
<path d="M140.248 32.1557C137.294 29.641 134.377 26.7943 133.173 23.1063C132.686 21.6157 132.778 19.5317 134.26 19.0143C135.264 18.6623 136.33 19.2717 137.194 19.8903C144.541 25.153 151.582 33.949 154.977 42.3477C149.932 41.0223 144.253 35.5677 140.248 32.1557Z" fill="#F28482"/>
<path d="M158.891 42.3475C158.891 44.5089 157.139 46.2622 154.977 46.2622C152.815 46.2622 151.063 44.5089 151.063 42.3475C151.063 40.1862 152.815 38.4329 154.977 38.4329C157.139 38.4329 158.891 40.1862 158.891 42.3475Z" fill="#FFF8ED"/>
<path d="M195.417 23.0215C195.202 20.3495 195.167 17.5335 196.382 15.1429C196.873 14.1762 197.935 13.2029 198.913 13.6735C199.575 13.9922 199.798 14.8109 199.918 15.5362C200.937 21.6975 200.079 29.4375 197.634 35.2002C195.815 32.0869 195.707 26.6455 195.417 23.0215Z" fill="#329F5B"/>
<path d="M199.851 47.3779C200.064 50.0499 200.1 52.8659 198.886 55.2565C198.395 56.2232 197.331 57.1965 196.355 56.7259C195.692 56.4072 195.468 55.5885 195.35 54.8632C194.331 48.7019 195.188 40.9619 197.634 35.1992C199.452 38.3125 199.56 43.7539 199.851 47.3779Z" fill="#329F5B"/>
<path d="M209.812 32.9822C212.484 32.7675 215.3 32.7328 217.691 33.9475C218.658 34.4382 219.631 35.5022 219.16 36.4782C218.84 37.1408 218.023 37.3648 217.298 37.4835C211.136 38.5022 203.396 37.6448 197.634 35.1995C200.747 33.3808 206.188 33.2728 209.812 32.9822Z" fill="#329F5B"/>
<path d="M185.456 37.4173C182.784 37.632 179.966 37.6666 177.577 36.452C176.61 35.9613 175.637 34.8973 176.108 33.9213C176.426 33.2586 177.245 33.0346 177.97 32.916C184.132 31.8973 191.87 32.7546 197.634 35.2C194.521 37.0186 189.08 37.1266 185.456 37.4173Z" fill="#329F5B"/>
<path d="M204.676 25.0202C206.415 22.9802 208.382 20.9642 210.93 20.1309C211.96 19.7949 213.4 19.8589 213.759 20.8815C214.002 21.5762 213.58 22.3135 213.152 22.9109C209.515 27.9882 203.438 32.8535 197.634 35.2002C198.548 31.7122 202.319 27.7882 204.676 25.0202Z" fill="#329F5B"/>
<path d="M190.59 45.3794C188.852 47.4194 186.885 49.4354 184.337 50.2687C183.306 50.6047 181.866 50.5407 181.508 49.5167C181.265 48.8234 181.686 48.086 182.114 47.4887C185.752 42.4114 191.829 37.546 197.634 35.1994C196.718 38.6874 192.948 42.6114 190.59 45.3794Z" fill="#329F5B"/>
<path d="M207.812 42.2431C209.854 43.9818 211.87 45.9471 212.702 48.4964C213.038 49.5271 212.975 50.9671 211.951 51.3258C211.256 51.5684 210.519 51.1471 209.923 50.7191C204.846 47.0818 199.979 41.0031 197.634 35.1991C201.12 36.1151 205.044 39.8858 207.812 42.2431Z" fill="#329F5B"/>
<path d="M187.454 28.1562C185.413 26.4175 183.398 24.4522 182.565 21.9029C182.229 20.8722 182.293 19.4322 183.316 19.0735C184.01 18.8309 184.748 19.2522 185.345 19.6802C190.422 23.3175 195.288 29.3962 197.634 35.2002C194.146 34.2842 190.222 30.5135 187.454 28.1562Z" fill="#329F5B"/>
<path d="M200.338 35.1998C200.338 36.6931 199.127 37.9038 197.634 37.9038C196.139 37.9038 194.929 36.6931 194.929 35.1998C194.929 33.7051 196.139 32.4945 197.634 32.4945C199.127 32.4945 200.338 33.7051 200.338 35.1998Z" fill="#F28482"/>
<path d="M176.083 145.37C176.083 147.914 174.021 149.975 171.477 149.975C168.935 149.975 166.872 147.914 166.872 145.37C166.872 142.826 168.935 140.764 171.477 140.764C174.021 140.764 176.083 142.826 176.083 145.37Z" fill="#FFF8ED"/>
<path d="M164.895 169.678C167.31 166.15 168.807 162.092 170.28 158.078C171.2 155.574 172.119 153.069 173.039 150.565C172.247 149.988 171.359 149.62 170.372 149.582C166.372 149.433 162.115 153.621 160.276 156.76C158.271 160.18 157.267 164.081 155.726 167.736C153.688 172.566 150.682 176.981 146.944 180.658C154.09 179.67 160.812 175.642 164.895 169.678Z" fill="#329F5B"/>
<path d="M177.437 158.943C177.081 156.39 175.561 152.398 173.039 150.564C172.119 153.068 171.199 155.574 170.281 158.079C168.807 162.091 167.31 166.151 164.895 169.678C160.813 175.642 154.089 179.67 146.945 180.658C146.849 180.751 146.758 180.851 146.662 180.944C153.733 183.783 162.223 183.058 168.494 178.731C174.766 174.403 178.486 166.491 177.437 158.943Z" fill="#0C8346"/>
<path d="M307.902 145.37C307.902 147.914 309.964 149.975 312.508 149.975C315.052 149.975 317.113 147.914 317.113 145.37C317.113 142.826 315.052 140.764 312.508 140.764C309.964 140.764 307.902 142.826 307.902 145.37Z" fill="#FFF8ED"/>
<path d="M319.09 169.678C316.676 166.15 315.178 162.092 313.705 158.078C312.785 155.574 311.866 153.069 310.946 150.565C311.738 149.988 312.628 149.62 313.613 149.582C317.614 149.433 321.87 153.621 323.709 156.76C325.714 160.18 326.72 164.081 328.26 167.736C330.297 172.566 333.304 176.981 337.041 180.658C329.896 179.67 323.173 175.642 319.09 169.678Z" fill="#329F5B"/>
<path d="M306.549 158.943C306.904 156.39 308.425 152.398 310.947 150.564C311.867 153.068 312.785 155.574 313.705 158.079C315.179 162.091 316.676 166.151 319.091 169.678C323.173 175.642 329.896 179.67 337.041 180.658C337.137 180.751 337.227 180.851 337.324 180.944C330.253 183.783 321.763 183.058 315.492 178.731C309.22 174.403 305.5 166.491 306.549 158.943Z" fill="#0C8346"/>
<mask id="mask3_1448_1344" style="mask-type:luminance" maskUnits="userSpaceOnUse" x="215" y="12" width="92" height="52">
<path d="M215.03 12.3269H306.624V63.8735H215.03V12.3269Z" fill="white"/>
</mask>
<g mask="url(#mask3_1448_1344)">
<g opacity="0.5">
<path d="M215.03 19.9517C221.278 17.8704 228 16.813 234.666 17.6504C241.332 18.3877 247.754 21.597 252.392 26.4957C257.004 31.4184 260.12 37.6157 261.65 44.0997C262.408 47.3477 262.864 50.6517 263.042 53.9624C263.189 57.2744 263.128 60.5864 262.833 63.873C262.802 60.5744 262.722 57.2797 262.34 54.017C262.022 50.753 261.449 47.5184 260.58 44.3757C258.868 38.1024 255.857 32.1384 251.354 27.4877C249.141 25.1464 246.572 23.1317 243.701 21.6744C240.838 20.1917 237.709 19.2664 234.509 18.7384C231.308 18.1944 228.02 18.1544 224.758 18.397C221.486 18.5997 218.245 19.213 215.03 19.9517Z" fill="#FFF8ED"/>
<path d="M245.154 12.5877C251.949 12.2184 258.882 11.9944 265.636 13.6944C272.409 15.3357 278.442 19.493 282.893 24.7997C287.317 30.1717 290.26 36.665 291.701 43.3997C292.432 46.769 292.822 50.1984 292.97 53.6224C293.068 57.0517 292.953 60.4784 292.573 63.873C292.628 60.4597 292.601 57.049 292.266 53.6664C291.98 50.285 291.472 46.9224 290.625 43.6517C288.992 37.1104 286.146 30.8384 281.79 25.7184C279.654 23.141 277.196 20.8224 274.417 18.9584C271.654 17.065 268.566 15.713 265.348 14.7544C262.118 13.8144 258.752 13.3184 255.368 13.0584C251.982 12.741 248.568 12.7104 245.154 12.5877Z" fill="#FFF8ED"/>
<path d="M266.209 14.0274C269.16 14.2514 272.082 14.8487 274.949 15.6514C277.802 16.5034 280.58 17.6274 283.242 18.9887C288.57 21.7114 293.362 25.5274 297.2 30.17C301.01 34.834 303.776 40.338 305.226 46.1514C305.956 49.0554 306.402 52.0207 306.576 54.9927C306.694 57.9674 306.606 60.9447 306.181 63.874C306.242 60.9167 306.17 57.9687 305.789 55.058C305.46 52.1474 304.885 49.27 304.034 46.4834C302.346 40.914 299.648 35.658 295.956 31.19C292.292 26.6967 287.702 22.9767 282.653 20.0714C280.126 18.614 277.46 17.3887 274.704 16.3967C271.961 15.3554 269.109 14.6114 266.209 14.0274Z" fill="#FFF8ED"/>
</g>
</g>
</svg>
