<svg width="232" height="331" viewBox="0 0 232 331" fill="none" xmlns="http://www.w3.org/2000/svg">
<ellipse cx="130.087" cy="298.664" rx="69.6721" ry="31.6692" fill="#00352F"/>
<path d="M85.4466 7.91915C85.4466 7.91915 74.4728 11.8916 68.1748 41.2929C62.0986 69.6596 51.734 80.8664 40.1496 91.485C28.5666 102.104 18.1037 112.487 22.2143 126.353C26.3248 140.217 40.8975 142.459 40.8975 142.459C40.8975 142.459 39.4665 170.627 61.4489 180.573C83.4306 190.519 177.62 187.314 190.643 173.049C197.432 165.614 200.553 152.187 198.26 142.045C196.154 132.731 188.873 126.353 188.873 126.353C188.873 126.353 204.278 121.123 195.683 101.172C187.089 81.2211 172.053 85.679 164.206 63.251C156.36 40.8237 156.232 31.4877 156.232 31.4877L85.4466 7.91915Z" fill="#00352F"/>
<path d="M190.646 154.354L195.41 163.725L207.292 111.624C207.292 111.624 202.356 107.184 200.893 102.274L199.432 97.3647L203.271 93.423C203.271 93.423 202.539 65.373 204.732 63.3615C206.926 61.3508 210.948 87.8585 210.948 87.8585C210.948 87.8585 216.798 63.5447 219.175 64.2756C221.551 65.0072 219.175 84.1956 219.175 84.1956C220.331 83.4084 221.87 83.4856 222.942 84.3847L225.655 86.6585C226.841 87.6524 227.121 89.3648 226.315 90.6852L224.522 93.6199C224.522 93.6199 227.191 91.1001 229.515 93.2313C231.841 95.3631 232.262 99.115 231.874 101.053C231.486 102.99 227.107 108.408 225.266 110.055C223.426 111.702 219.774 114.16 219.774 114.16C219.774 114.16 217.413 148.997 215.781 164.774C214.149 180.55 206.533 208.838 206.533 208.838C206.533 208.838 190.622 202.552 183.504 195.782C176.385 189.011 169.541 180.187 169.541 180.187L176.251 157.702L190.646 154.354Z" fill="#F5CAC3"/>
<path d="M136.868 101.383L136.067 95.7234C131.487 98.0332 126.275 99.0972 121.158 98.6948C117.257 98.3879 113.437 97.2284 109.996 95.3701L109.627 100.897L103.952 103.977L131.355 126.354L143.192 103.815L136.868 101.383Z" fill="#F5CAC3"/>
<path d="M136.068 95.7236L134.437 84.1955L110.602 86.3038L109.997 95.3702C113.438 97.2285 117.259 98.388 121.159 98.6949C126.276 99.0973 131.488 98.0334 136.068 95.7236Z" fill="#F28482"/>
<path d="M159.071 57.4899C159.069 60.6091 158.286 63.7244 156.811 66.4726C155.637 68.662 153.831 70.7408 151.396 71.2355C148.678 71.7877 145.828 70.0943 144.493 67.6635C142.112 63.3265 143.856 55.1624 147.598 51.8312C152.988 47.0336 159.073 50.8942 159.071 57.4899Z" fill="#F28482"/>
<path d="M150.417 23.433C150.417 23.433 157.047 73.061 144.316 85.1486C131.149 97.6503 111.229 96.413 98.7917 85.1486C86.3547 73.8848 84.0083 50.8882 82.6002 39.3896C81.192 27.8916 88.9832 10.0571 117.588 9.82281C146.193 9.58791 150.417 23.433 150.417 23.433Z" fill="#F5CAC3"/>
<path d="M81.925 61.6763C86.2868 59.3717 88.6418 54.4766 89.8182 49.6856C92.1758 40.0832 90.8488 29.6243 86.1684 20.9151C81.0462 26.1864 78.0003 32.9582 77.45 40.2874C76.8997 47.6172 78.5467 55.148 81.925 61.6763Z" fill="#00352F"/>
<path d="M86.4945 27.698C89.0844 23.897 92.6773 20.6862 96.9829 19.068C101.288 17.4498 106.328 17.5558 110.316 19.848C114.304 22.1401 117.002 26.7414 116.543 31.3178L156.232 31.4893C156.01 24.6338 155.355 17.4459 151.568 11.7264C148.178 6.6062 142.569 3.24292 136.657 1.58287C130.745 -0.0765196 124.506 -0.175324 118.374 0.146609C107.029 0.740745 95.5846 2.79536 85.4463 7.92076L86.4945 27.698Z" fill="#00352F"/>
<path d="M73.3779 56.9914C73.3792 60.4744 74.2541 63.9542 75.901 67.0237C77.213 69.4683 79.2296 71.7905 81.9491 72.3428C84.9845 72.9598 88.1672 71.0688 89.6584 68.3533C92.3183 63.5099 90.3704 54.3917 86.1905 50.6712C80.1712 45.3128 73.3753 49.6249 73.3779 56.9914Z" fill="#F5CAC3"/>
<mask id="mask0_2103_794" style="mask-type:luminance" maskUnits="userSpaceOnUse" x="76" y="52" width="11" height="16">
<path d="M76.0518 52.3976H86.9837V67.4336H76.0518V52.3976Z" fill="white"/>
</mask>
<g mask="url(#mask0_2103_794)">
<g opacity="0.5">
<path d="M85.3327 66.881C83.8212 67.1335 82.1932 66.4498 81.3151 65.1934C80.4376 63.9378 80.3545 62.1737 81.1109 60.8415C81.3243 60.4652 81.6095 60.1138 81.9936 59.9156C82.3175 59.7487 82.6892 59.701 83.0537 59.6938C84.5122 59.6643 85.9726 60.2689 86.9836 61.3198C86.6204 59.4922 86.2213 57.6391 85.3334 56.0007C84.4461 54.3616 82.9928 52.9371 81.1783 52.5111C79.3639 52.0845 77.215 52.8861 76.4638 54.5919C76.4638 54.5919 74.5931 60.583 78.8234 64.8126C83.0537 69.0436 85.3327 66.881 85.3327 66.881Z" fill="#F28482"/>
</g>
</g>
<path d="M76.4668 54.591C76.9647 53.2483 78.3794 52.4062 79.7974 52.2386C81.2585 52.0652 82.7196 52.6829 83.813 53.6167C84.9339 54.5491 85.7008 55.8368 86.2229 57.1605C86.7464 58.4934 87.0572 59.8813 87.3294 61.2508L87.5643 62.4345L86.734 61.5616C85.882 60.6658 84.6728 60.0959 83.4276 60.0193C82.7936 59.9794 82.1883 60.0285 81.7964 60.4316C81.3894 60.8333 81.0995 61.4242 80.9523 62.019C80.6591 63.2269 80.9601 64.6003 81.8232 65.5393C82.6705 66.4953 84.0119 67.0175 85.3357 66.88C84.0283 67.1732 82.5796 66.7282 81.5798 65.7736C80.5773 64.7966 80.1671 63.2917 80.4314 61.9084C80.576 61.2168 80.8384 60.5376 81.3756 59.9958C81.6413 59.7249 82.0208 59.5253 82.3892 59.4514C82.7602 59.3709 83.1122 59.3696 83.4636 59.3833C84.873 59.4501 86.2419 60.0638 87.2385 61.0767L86.643 61.3869C86.3721 60.0233 86.1045 58.6668 85.6209 57.3935C85.1518 56.1162 84.4294 54.9482 83.4492 54.0282C82.4782 53.1194 81.178 52.4945 79.8268 52.5887C78.4939 52.6391 77.1126 53.3294 76.4668 54.591Z" fill="#00352F"/>
<path d="M123.432 37.4496C123.918 39.0678 124.393 40.6879 124.821 42.3178L125.476 44.7611C125.702 45.5732 125.888 46.3989 126.142 47.1815C126.396 47.9621 126.709 48.7159 127.168 49.3533C127.619 49.9938 128.265 50.4624 128.958 50.9217C130.368 51.8338 131.786 52.7545 133.188 53.6895L133.422 53.8459L133.309 54.0919C132.682 55.4687 131.812 56.7217 130.792 57.8177C130.284 58.37 129.716 58.8621 129.122 59.3122C128.529 59.7624 127.9 60.1635 127.238 60.4966C127.848 60.0778 128.429 59.6244 128.973 59.1316C129.516 58.6383 130.011 58.0991 130.481 57.5436C131.418 56.4266 132.163 55.1644 132.716 53.8328L132.838 54.2346C131.401 53.3493 129.978 52.4541 128.552 51.542C127.837 51.0866 127.1 50.5278 126.576 49.7786C126.052 49.0405 125.726 48.2075 125.489 47.3804C125.028 45.7223 124.749 44.0767 124.386 42.4225C124.033 40.7723 123.727 39.1123 123.432 37.4496Z" fill="#00352F"/>
<path d="M103.245 50.2314C104.25 49.7001 105.331 49.3219 106.429 49.0091C107.534 48.7219 108.662 48.5262 109.796 48.3888C110.929 48.2429 112.07 48.1991 113.207 48.1611C114.343 48.1395 115.479 48.1474 116.61 48.1631L116.343 48.8004C114.855 47.3183 112.87 46.3918 110.809 45.8553C109.773 45.585 108.705 45.4254 107.628 45.3279C106.551 45.2081 105.463 45.1832 104.372 45.1427C105.457 45.017 106.55 44.9693 107.647 44.9686C108.744 44.9896 109.845 45.0916 110.934 45.3023C113.105 45.7231 115.238 46.6778 116.866 48.2704L117.534 48.9241L116.599 48.9084C114.338 48.8685 112.088 48.8299 109.848 48.966C108.728 49.032 107.613 49.1577 106.511 49.371C105.402 49.5568 104.316 49.8591 103.245 50.2314Z" fill="#00352F"/>
<path d="M96.412 40.1912C96.3636 38.4232 96.7797 36.6113 97.542 34.9153C97.9353 34.0738 98.4156 33.2598 98.9809 32.491C99.5626 31.7378 100.227 31.0324 100.969 30.3951C101.714 29.7637 102.488 29.1329 103.344 28.6016C104.201 28.0768 105.174 27.7575 106.173 27.6809C107.171 27.6018 108.183 27.7045 109.141 28.0003C110.097 28.3045 111.008 28.7828 111.742 29.5746L111.66 30.0156C110.726 30.4946 109.936 30.8342 109.194 31.1672L107.109 32.0643C106.448 32.3424 105.793 32.5374 105.089 32.6807C104.384 32.8168 103.663 33.0079 103.011 33.3429C102.357 33.6733 101.727 34.079 101.134 34.5521C100.525 35.0095 99.952 35.5369 99.4285 36.1245C98.3587 37.2879 97.4917 38.6914 96.853 40.269L96.412 40.1912Z" fill="#00352F"/>
<path d="M141.005 45.9827C141.005 48.1884 139.824 49.9761 138.366 49.9761C136.909 49.9761 135.728 48.1884 135.728 45.9827C135.728 43.7769 136.909 41.9893 138.366 41.9893C139.824 41.9893 141.005 43.7769 141.005 45.9827Z" fill="#00352F"/>
<path d="M115.521 67.5215C117.992 70.2612 122.497 74.3528 126.953 73.7377C127.199 73.7037 127.438 73.6553 127.674 73.599C127.67 73.5938 127.667 73.5879 127.664 73.5833C125.1 69.586 120.248 67.2029 115.521 67.5215Z" fill="#F28482"/>
<path d="M136.18 63.5811C136.18 63.5811 132.545 66.8914 126.497 67.3474C120.449 67.8042 113.602 65.1796 113.602 65.1796C113.602 65.1796 114.323 66.1925 115.521 67.5221C120.248 67.2035 125.1 69.5866 127.664 73.5839C127.667 73.5885 127.67 73.5944 127.674 73.5996C133.761 72.147 136.18 63.5811 136.18 63.5811Z" fill="#00352F"/>
<path d="M69.4794 245.759L60.8867 294.624H199.204L185.078 238.671C149.446 255.824 106.936 258.453 69.4794 245.759Z" fill="#00352F"/>
<path d="M185.08 238.672L173.544 192.975C173.544 192.975 176.486 188.929 180.716 182.86C184.945 176.792 180.716 161.712 180.716 161.712L190.647 154.356C190.647 154.356 177.405 119.966 172.624 115.92C167.842 111.874 139.186 102.276 139.186 102.276C139.186 102.276 137.022 121.106 130.618 120.523C124.215 119.941 107.092 102.276 107.092 102.276C107.092 102.276 64.4986 109.869 59.5616 114.287C54.624 118.704 29.1573 150.927 29.1573 150.927C29.1573 150.927 28.378 154.046 35.134 161.582C41.8906 169.118 50.7261 171.976 50.7261 171.976L65.2785 158.723L77.3471 201.028L69.4813 245.76C106.937 258.454 149.448 255.825 185.08 238.672Z" fill="#329F5B"/>
<path d="M29.1559 150.926L0 194.459C0 194.459 25.9679 206.795 43.8208 213.611C61.6744 220.428 71.3487 221.726 75.7629 220.103C80.1763 218.48 86.2819 213.936 86.2819 213.936C86.2819 213.936 95.8549 219.998 101.051 220.732C106.246 221.467 113.055 214.382 109.886 210.602C106.719 206.824 84.8542 198.023 84.8542 198.023C84.8542 198.023 105.28 203.471 108.103 204.575C110.926 205.68 108.226 200.617 103.07 198.53C97.9154 196.444 86.3781 190.03 83.4323 190.521C80.4865 191.012 72.1398 205.126 72.1398 205.126L36.2999 186.838L50.7247 171.975C50.7247 171.975 44.0472 170.002 36.9575 163.036C30.9128 157.095 29.1559 150.926 29.1559 150.926Z" fill="#F5CAC3"/>
<path d="M203.025 93.6144C204.175 92.926 205.357 92.2985 206.54 91.6684C207.735 91.0611 208.94 90.4762 210.155 89.9095C211.366 89.3337 212.609 88.8299 213.848 88.3188C215.091 87.8156 216.34 87.3269 217.601 86.8714L217.9 86.7641L218.035 87.0475C218.619 88.2756 218.837 89.6576 218.69 90.997C218.542 92.3358 218.005 93.6405 217.135 94.662C216.287 95.6899 215.12 96.4686 213.902 96.8873C213.311 97.0555 213.192 97.7629 212.917 98.3432C212.672 98.9393 212.418 99.5328 212.16 100.125C212.349 99.5073 212.543 98.8916 212.745 98.2791C212.848 97.9703 212.936 97.6699 213.052 97.3532C213.153 97.0306 213.444 96.7166 213.757 96.5798C214.952 96.0878 215.964 95.3281 216.717 94.3282C217.457 93.333 217.943 92.1604 218.055 90.9309C218.17 89.706 217.948 88.4497 217.405 87.3557L217.838 87.5317C216.582 87.9786 215.329 88.434 214.086 88.9175C212.84 89.3926 211.614 89.9167 210.374 90.4107C209.138 90.9139 207.911 91.4394 206.692 91.9838C205.461 92.5053 204.249 93.07 203.025 93.6144Z" fill="#00352F"/>
<path d="M224.521 93.6193C223.95 95.2323 223.285 96.8223 222.41 98.3129C221.547 99.8094 220.468 101.197 219.19 102.385C218.541 102.973 217.81 103.516 216.959 103.848C216.112 104.18 215.145 104.276 214.255 104.004C213.813 103.87 213.391 103.646 213.052 103.327C212.718 103.007 212.459 102.619 212.292 102.203C211.975 101.363 211.952 100.441 212.225 99.6268C212.105 100.472 212.214 101.341 212.602 102.061C212.974 102.787 213.631 103.311 214.399 103.478C215.164 103.649 215.984 103.554 216.709 103.233C217.445 102.92 218.111 102.433 218.714 101.867C219.942 100.735 221.004 99.424 221.941 98.0211C222.872 96.6129 223.698 95.121 224.521 93.6193Z" fill="#00352F"/>
<path d="M228.96 101.052C228.003 102.067 226.978 103.019 225.892 103.895C224.804 104.777 223.693 105.604 222.487 106.354C221.875 106.714 221.227 107.04 220.527 107.254C219.835 107.445 219.078 107.607 218.307 107.38C217.934 107.284 217.544 107.006 217.351 106.679C217.14 106.355 217.013 106.008 216.923 105.659C216.769 104.958 216.714 104.243 216.833 103.551C216.873 104.245 217 104.93 217.253 105.555C217.496 106.176 217.86 106.763 218.449 106.848C219.039 106.969 219.704 106.831 220.325 106.618C220.949 106.407 221.548 106.102 222.126 105.75C223.285 105.045 224.425 104.238 225.562 103.458L228.96 101.052Z" fill="#00352F"/>
<path d="M195.41 163.723C195.169 164.69 194.886 165.644 194.626 166.603L193.772 169.462C193.202 171.366 192.579 173.252 191.957 175.14C191.317 177.021 190.677 178.902 189.986 180.767L188.945 183.561C188.574 184.485 188.226 185.416 187.835 186.333C188.074 185.365 188.358 184.413 188.618 183.451L189.471 180.594C190.042 178.69 190.664 176.803 191.288 174.916C191.928 173.034 192.567 171.153 193.26 169.29L194.3 166.494C194.67 165.571 195.018 164.64 195.41 163.723Z" fill="#00352F"/>
<path d="M84.8545 203.049C85.9636 203.418 87.0531 203.839 88.1478 204.249C89.2313 204.685 90.3097 205.135 91.3848 205.595C93.5329 206.517 95.6366 207.539 97.7154 208.61C99.7858 209.695 101.832 210.831 103.821 212.058C104.814 212.674 105.802 213.298 106.782 213.935C107.746 214.595 108.717 215.245 109.656 215.94L106.601 214.229C105.588 213.654 104.572 213.084 103.55 212.527C101.503 211.414 99.4586 210.302 97.3902 209.235C95.3291 208.154 93.2444 207.121 91.1584 206.085C90.114 205.568 89.0638 205.064 88.0104 204.565L84.8545 203.049Z" fill="#00352F"/>
<path d="M85.8662 209.267C86.8065 209.488 87.7298 209.766 88.6583 210.033C89.5769 210.327 90.4911 210.638 91.4019 210.96C93.2222 211.607 95.002 212.365 96.7543 213.179C98.5001 214.007 100.219 214.894 101.88 215.881C102.709 216.377 103.532 216.883 104.345 217.403C105.143 217.947 105.946 218.481 106.716 219.063L104.169 217.7C103.323 217.242 102.474 216.792 101.619 216.356C99.9069 215.487 98.1939 214.624 96.4547 213.816C94.7233 212.993 92.9657 212.225 91.2043 211.461C90.3222 211.081 89.4343 210.716 88.5424 210.357L85.8662 209.267Z" fill="#00352F"/>
<path d="M36.2986 186.838C35.1927 186.511 34.0699 186.263 32.9366 186.082C31.8072 185.88 30.67 185.729 29.5295 185.621C28.3903 185.521 27.2419 185.421 26.106 185.397C24.9779 185.351 23.8381 185.445 22.7041 185.551C20.4316 185.774 18.1748 186.2 15.9213 186.641C14.7945 186.863 13.6717 187.113 12.5521 187.378C11.426 187.62 10.3103 187.904 9.1875 188.172C11.3455 187.348 13.5604 186.682 15.8009 186.113C18.042 185.543 20.319 185.093 22.6334 184.85C23.2145 184.809 23.7916 184.739 24.3772 184.732L25.2527 184.705L26.1322 184.732C27.2982 184.798 28.4479 184.905 29.5949 185.085C31.8818 185.435 34.1739 185.916 36.2986 186.838Z" fill="#00352F"/>
<path d="M72.4649 26.8617C71.4056 32.5204 69.932 38.1039 68.1372 43.5872C66.2998 49.0548 64.0835 54.4053 61.459 59.5582C56.2171 69.8568 49.1104 79.289 40.3718 86.9232C36.0139 90.7196 31.4512 94.2229 27.4696 98.302C23.4932 102.341 20.1698 107.119 18.4823 112.51C17.6591 115.196 17.3077 118.045 17.6297 120.835C17.9052 123.635 18.9606 126.327 20.4224 128.739C21.8842 131.165 23.8969 133.253 26.2061 134.919C28.5388 136.556 31.2313 137.698 34.0633 138.214C31.2084 137.85 28.4256 136.819 25.9967 135.229C23.5848 133.621 21.4418 131.561 19.84 129.111C18.2631 126.658 17.1056 123.879 16.7457 120.945C16.3419 118.021 16.6449 115.031 17.4419 112.205C18.2317 109.371 19.5129 106.695 21.0931 104.237C22.6628 101.769 24.5296 99.4982 26.5483 97.4089C30.5868 93.2146 35.1534 89.6511 39.4426 85.8638C43.7658 82.1216 47.7127 77.9758 51.2134 73.4556C54.7285 68.9492 57.7725 64.0875 60.5024 59.0576C63.2172 54.016 65.5264 48.7525 67.4887 43.3601C69.4936 37.9802 71.0961 32.4511 72.4649 26.8617Z" fill="#00352F"/>
<path d="M191.85 95.8145C194.502 98.5621 197.086 101.445 198.973 104.874C199.926 106.575 200.632 108.435 201.087 110.351C201.518 112.274 201.681 114.254 201.585 116.223C201.463 118.19 201.097 120.146 200.444 122.007C200.117 122.936 199.725 123.843 199.264 124.712C198.819 125.589 198.292 126.421 197.713 127.211C195.419 130.383 192.225 132.889 188.626 134.221C191.97 132.355 194.784 129.716 196.805 126.589C198.825 123.465 199.994 119.84 200.178 116.147C200.402 112.451 199.636 108.731 197.998 105.374C196.375 101.995 194.059 98.9376 191.85 95.8145Z" fill="#00352F"/>
<mask id="mask1_2103_794" style="mask-type:luminance" maskUnits="userSpaceOnUse" x="104" y="57" width="12" height="7">
<path d="M104.146 57.5777H115.699V63.4111H104.146V57.5777Z" fill="white"/>
</mask>
<g mask="url(#mask1_2103_794)">
<g opacity="0.5">
<path d="M115.694 60.0315C115.822 61.6222 113.342 63.1186 110.154 63.3751C106.967 63.631 104.279 62.55 104.151 60.9593C104.024 59.3693 106.504 57.8728 109.691 57.6163C112.879 57.3598 115.567 58.4414 115.694 60.0315Z" fill="#F28482"/>
</g>
</g>
<mask id="mask2_2103_794" style="mask-type:luminance" maskUnits="userSpaceOnUse" x="134" y="56" width="13" height="7">
<path d="M134.964 56.6031H146.517V62.4365H134.964V56.6031Z" fill="white"/>
</mask>
<g mask="url(#mask2_2103_794)">
<g opacity="0.5">
<path d="M134.969 59.0559C134.841 60.6459 137.321 62.143 140.509 62.3989C143.696 62.6554 146.384 61.5738 146.512 59.9837C146.64 58.3937 144.159 56.8966 140.971 56.6407C137.784 56.3842 135.096 57.4658 134.969 59.0559Z" fill="#F28482"/>
</g>
</g>
<path d="M118.14 191.296C124.761 195.043 133.141 193.197 137.581 187.025C138.058 186.367 137.909 185.448 137.247 184.973C136.59 184.503 135.672 184.653 135.196 185.31C133.276 187.978 130.341 189.741 127.085 190.18C120.527 191.064 114.495 186.47 113.61 179.919C115.464 183.559 118.968 186.069 123.017 186.659C126.336 180.935 124.388 173.6 118.663 170.275C117.237 169.455 115.661 168.932 114.027 168.742C107.394 167.976 101.371 164.542 97.3273 159.23C94.7578 169.173 96.8974 179.744 103.12 187.911C106.642 192.531 112.975 193.962 118.14 191.296Z" fill="#8FD5A6"/>
<path d="M113.176 140.729C106.625 144.594 104.029 152.774 107.153 159.708C107.487 160.447 108.357 160.776 109.097 160.441C109.837 160.112 110.165 159.243 109.83 158.497C108.482 155.504 108.426 152.08 109.671 149.039C112.18 142.914 119.174 139.989 125.293 142.497C121.216 142.287 117.288 144.068 114.756 147.274C118.05 153.012 125.375 154.992 131.112 151.697C132.542 150.875 133.787 149.768 134.767 148.447C138.743 143.089 144.732 139.585 151.352 138.747C144.026 131.543 133.801 128.108 123.621 129.415C117.853 130.158 113.454 134.927 113.176 140.729Z" fill="#8FD5A6"/>
<path d="M159.447 161.715C159.377 154.11 153.601 147.774 146.029 147.009C145.219 146.932 144.497 147.516 144.42 148.325C144.337 149.135 144.928 149.856 145.737 149.934C149.007 150.265 151.997 151.926 154.013 154.526C158.057 159.761 157.095 167.28 151.861 171.328C154.086 167.9 154.508 163.604 152.999 159.813C146.379 159.8 141.002 165.148 140.988 171.769C140.986 173.415 141.322 175.047 141.976 176.557C144.628 182.68 144.668 189.618 142.086 195.769C151.981 193.023 160.065 185.886 164.028 176.413C166.269 171.057 164.341 164.857 159.447 161.715Z" fill="#8FD5A6"/>
<path d="M169.541 123.735L180.715 161.708L184.962 158.562L169.541 123.735Z" fill="#0C8346"/>
<path d="M65.2767 158.721L60.8867 141.362L61.9952 161.709L65.2767 158.721Z" fill="#0C8346"/>
<path d="M68.082 253.705C72.9359 255.302 77.8755 256.622 82.8432 257.798C87.8102 258.973 92.8126 260.004 97.8536 260.794C99.1106 261.01 100.379 261.155 101.641 261.338L103.535 261.605C104.166 261.691 104.801 261.748 105.435 261.82L109.237 262.231L113.051 262.498C113.687 262.538 114.322 262.597 114.958 262.621L116.869 262.672C118.142 262.697 119.415 262.759 120.689 262.755C123.233 262.672 125.785 262.71 128.317 262.437C138.479 261.686 148.497 259.446 158.274 256.571C163.171 255.138 167.992 253.447 172.755 251.613C177.522 249.787 182.232 247.797 186.808 245.522C177.742 250.245 168.199 254.042 158.432 257.09C157.218 257.495 155.98 257.819 154.753 258.184C153.524 258.54 152.292 258.889 151.048 259.187L147.323 260.116L143.569 260.927C138.548 261.917 133.493 262.802 128.371 263.14C125.816 263.403 123.249 263.355 120.688 263.427C119.407 263.425 118.127 263.359 116.846 263.328L114.926 263.269C114.287 263.242 113.649 263.179 113.011 263.137L109.18 262.852L105.364 262.424C104.09 262.296 102.823 262.117 101.558 261.92C100.294 261.72 99.0249 261.559 97.7666 261.327C87.6833 259.583 77.7309 257.079 68.082 253.705Z" fill="#0C8346"/>
<path d="M64.5332 273.893C65.8039 274.452 67.1165 274.901 68.4546 275.227C69.7882 275.568 71.1492 275.787 72.5122 275.838C73.8751 275.868 75.2342 275.736 76.5259 275.361C77.8385 275.023 78.9855 274.285 80.0259 273.45C81.0722 272.59 81.9601 271.55 82.7728 270.458C83.5508 269.335 84.211 268.136 84.8156 266.902C85.396 265.658 85.8914 264.371 86.3023 263.053C86.7315 261.741 87.0692 260.397 87.3276 259.032C87.0934 261.804 86.3795 264.533 85.311 267.124C84.7718 268.42 84.0749 269.648 83.2995 270.826C82.4757 271.969 81.5688 273.068 80.48 273.989C79.3598 274.864 78.1022 275.638 76.7045 275.977C75.3265 276.344 73.8928 276.494 72.484 276.377C69.6704 276.137 66.9542 275.255 64.5332 273.893Z" fill="#0C8346"/>
<path d="M167.744 253.703C168.085 255.126 168.472 256.533 168.944 257.912C169.396 259.296 169.911 260.658 170.524 261.971C171.141 263.279 171.818 264.561 172.655 265.725C173.49 266.885 174.484 267.94 175.682 268.663C176.271 269.045 176.913 269.303 177.596 269.473L178.636 269.708L179.699 269.831C181.123 269.949 182.561 269.83 183.983 269.604C185.407 269.371 186.803 268.955 188.164 268.451C189.534 267.965 190.859 267.349 192.141 266.646C189.723 268.296 186.981 269.502 184.087 270.136C182.639 270.456 181.14 270.561 179.648 270.471L178.532 270.357L177.43 270.126C176.697 269.955 175.957 269.672 175.313 269.264C174.014 268.451 172.984 267.313 172.132 266.095C171.289 264.868 170.582 263.556 170.03 262.188C168.907 259.46 168.145 256.603 167.744 253.703Z" fill="#0C8346"/>
<path d="M135.324 294.624C135.307 292.361 135.502 290.123 135.748 287.891C136.016 285.661 136.337 283.437 136.872 281.238C136.891 283.502 136.696 285.739 136.448 287.971C136.179 290.201 135.858 292.425 135.324 294.624Z" fill="#0C8346"/>
<path d="M74.4804 12.1334C74.3286 10.2358 74.3037 8.23552 75.1655 6.53817C75.5142 5.85177 76.2693 5.1608 76.9629 5.49451C77.4334 5.72156 77.5924 6.30326 77.6775 6.81757C78.4005 11.1931 77.792 16.6889 76.0554 20.7817C74.7637 18.5707 74.6865 14.7069 74.4804 12.1334Z" fill="#F28482"/>
<path d="M77.6289 29.4298C77.7807 31.3274 77.8062 33.3277 76.9438 35.025C76.595 35.7114 75.8399 36.4024 75.1463 36.0687C74.6759 35.8416 74.5175 35.2606 74.4325 34.7456C73.7094 30.3701 74.3179 24.8743 76.0545 20.7814C77.3456 22.9924 77.4228 26.8563 77.6289 29.4298Z" fill="#F28482"/>
<path d="M84.703 19.2069C86.6006 19.0551 88.6003 19.0302 90.2983 19.892C90.9847 20.2407 91.6756 20.9958 91.3413 21.6894C91.1149 22.1599 90.5332 22.3189 90.0189 22.404C85.6433 23.127 80.1476 22.5185 76.0547 20.7819C78.2657 19.4902 82.1295 19.413 84.703 19.2069Z" fill="#F28482"/>
<path d="M67.4071 22.3565C65.5096 22.5083 63.5093 22.5332 61.8119 21.6714C61.1255 21.3227 60.4345 20.5676 60.7683 19.874C60.9953 19.4035 61.5764 19.2445 62.0913 19.1594C66.4669 18.4364 71.9626 19.0449 76.0555 20.7815C73.8445 22.0732 69.9806 22.1504 67.4071 22.3565Z" fill="#F28482"/>
<path d="M81.0564 13.5533C82.2905 12.1039 83.6875 10.6723 85.4974 10.0814C86.2289 9.84256 87.2517 9.88771 87.5062 10.6147C87.6783 11.1074 87.3793 11.6309 87.0757 12.0549C84.4923 15.6603 80.1763 19.1158 76.0547 20.7817C76.7051 18.3057 79.382 15.5189 81.0564 13.5533Z" fill="#F28482"/>
<path d="M71.053 28.0104C69.8182 29.4598 68.4219 30.8915 66.612 31.4823C65.8805 31.7212 64.8571 31.676 64.6032 30.949C64.4311 30.4563 64.7301 29.9329 65.0337 29.5089C67.6164 25.9035 71.9331 22.4479 76.0547 20.782C75.4043 23.258 72.7268 26.0448 71.053 28.0104Z" fill="#F28482"/>
<path d="M83.2851 25.7834C84.7344 27.0182 86.1661 28.4145 86.757 30.2244C86.9958 30.956 86.9507 31.9793 86.2237 32.2332C85.731 32.4053 85.2075 32.1063 84.7835 31.8027C81.1781 29.22 77.7226 24.9034 76.0566 20.7817C78.5326 21.4321 81.3195 24.1097 83.2851 25.7834Z" fill="#F28482"/>
<path d="M68.826 15.78C67.3766 14.5459 65.945 13.1489 65.3541 11.339C65.1153 10.6075 65.1604 9.58476 65.8874 9.33087C66.3801 9.15813 66.9036 9.45716 67.3276 9.76077C70.933 12.3434 74.3885 16.6601 76.0544 20.7817C73.5784 20.1313 70.7916 17.4544 68.826 15.78Z" fill="#F28482"/>
<path d="M77.9754 20.782C77.9754 21.8427 77.1156 22.7031 76.0543 22.7031C74.9936 22.7031 74.1338 21.8427 74.1338 20.782C74.1338 19.7213 74.9936 18.8609 76.0543 18.8609C77.1156 18.8609 77.9754 19.7213 77.9754 20.782Z" fill="#FFF8ED"/>
<path d="M95.9016 11.2972C95.7963 9.98594 95.7792 8.60399 96.3753 7.43076C96.6161 6.95637 97.1376 6.4787 97.6173 6.70968C97.9425 6.86607 98.0517 7.26783 98.1106 7.62379C98.6105 10.6475 98.1898 14.4459 96.9898 17.2739C96.0972 15.7461 96.0442 13.0757 95.9016 11.2972Z" fill="#329F5B"/>
<path d="M98.0777 23.2499C98.1823 24.5612 98.2 25.9432 97.6039 27.1164C97.3631 27.5908 96.841 28.0684 96.362 27.8375C96.0368 27.6811 95.9269 27.2793 95.8686 26.9234C95.3687 23.8997 95.7894 20.1013 96.9895 17.2732C97.882 18.8011 97.935 21.4714 98.0777 23.2499Z" fill="#329F5B"/>
<path d="M102.965 16.1855C104.276 16.0802 105.658 16.0632 106.831 16.6593C107.306 16.9001 107.784 17.4222 107.553 17.9012C107.395 18.2264 106.994 18.3363 106.638 18.3946C103.615 18.8945 99.8163 18.4737 96.9883 17.2737C98.5162 16.3812 101.186 16.3282 102.965 16.1855Z" fill="#329F5B"/>
<path d="M91.0128 18.3616C89.7015 18.4669 88.3189 18.4839 87.1463 17.8878C86.6719 17.6471 86.1943 17.1249 86.4252 16.6459C86.5816 16.3207 86.9834 16.2108 87.3393 16.1525C90.363 15.6526 94.1608 16.0734 96.9895 17.2734C95.4616 18.1659 92.7913 18.2189 91.0128 18.3616Z" fill="#329F5B"/>
<path d="M100.444 12.2781C101.298 11.2769 102.263 10.2876 103.513 9.87863C104.019 9.71374 104.726 9.74515 104.902 10.247C105.021 10.5879 104.814 10.9498 104.604 11.2429C102.819 13.7346 99.8366 16.1223 96.9883 17.2739C97.4372 15.5622 99.2876 13.6365 100.444 12.2781Z" fill="#329F5B"/>
<path d="M93.5323 22.27C92.6791 23.2712 91.7139 24.2605 90.4635 24.6695C89.9577 24.8344 89.251 24.803 89.075 24.3004C88.9559 23.9602 89.1627 23.5983 89.3727 23.3052C91.1577 20.8135 94.1402 18.4258 96.9892 17.2742C96.5396 18.9859 94.6892 20.9116 93.5323 22.27Z" fill="#329F5B"/>
<path d="M101.983 20.7299C102.985 21.5832 103.975 22.5476 104.383 23.7987C104.548 24.3045 104.517 25.0112 104.015 25.1872C103.674 25.3063 103.312 25.0995 103.019 24.8895C100.528 23.1045 98.1393 20.1214 96.9883 17.273C98.6994 17.7226 100.625 19.573 101.983 20.7299Z" fill="#329F5B"/>
<path d="M91.9927 13.8171C90.9909 12.9638 90.0022 11.9993 89.5932 10.7482C89.4284 10.2424 89.4598 9.53576 89.9616 9.35974C90.3025 9.24065 90.6644 9.44742 90.9575 9.65746C93.4492 11.4425 95.8369 14.4256 96.9885 17.2739C95.2768 16.8244 93.3511 14.9739 91.9927 13.8171Z" fill="#329F5B"/>
<path d="M98.3167 17.2741C98.3167 18.0069 97.7226 18.6011 96.9898 18.6011C96.2562 18.6011 95.6621 18.0069 95.6621 17.2741C95.6621 16.5406 96.2562 15.9464 96.9898 15.9464C97.7226 15.9464 98.3167 16.5406 98.3167 17.2741Z" fill="#F28482"/>
<path d="M86.4117 71.3395C86.4117 72.588 85.4001 73.5996 84.1517 73.5996C82.9039 73.5996 81.8916 72.588 81.8916 71.3395C81.8916 70.0911 82.9039 69.0795 84.1517 69.0795C85.4001 69.0795 86.4117 70.0911 86.4117 71.3395Z" fill="#FFF8ED"/>
<path d="M80.9216 83.2698C82.1066 81.5384 82.8414 79.5466 83.5645 77.577C84.016 76.3482 84.4668 75.1187 84.9183 73.8899C84.5296 73.6065 84.0938 73.4259 83.6096 73.4076C81.6466 73.3343 79.5573 75.3896 78.655 76.9299C77.6709 78.6083 77.1782 80.5229 76.4218 82.3164C75.4219 84.687 73.9464 86.8535 72.1123 88.6582C75.6189 88.1733 78.918 86.1966 80.9216 83.2698Z" fill="#329F5B"/>
<path d="M87.0783 78.0007C86.9036 76.7477 86.1576 74.7886 84.9203 73.8889C84.4688 75.1177 84.0173 76.3472 83.5665 77.5767C82.8434 79.5456 82.1086 81.538 80.9236 83.2688C78.92 86.1956 75.6202 88.1723 72.1143 88.6572C72.0672 88.703 72.0227 88.7521 71.9756 88.7979C75.4455 90.191 79.6123 89.835 82.6897 87.7117C85.7677 85.5877 87.5933 81.7049 87.0783 78.0007Z" fill="#0C8346"/>
<path d="M151.103 71.3395C151.103 72.588 152.114 73.5996 153.363 73.5996C154.611 73.5996 155.623 72.588 155.623 71.3395C155.623 70.0911 154.611 69.0795 153.363 69.0795C152.114 69.0795 151.103 70.0911 151.103 71.3395Z" fill="#FFF8ED"/>
<path d="M156.594 83.2702C155.409 81.5389 154.675 79.5471 153.951 77.5775C153.5 76.3487 153.049 75.1192 152.598 73.8903C152.986 73.607 153.423 73.4264 153.906 73.4081C155.87 73.3348 157.959 75.3901 158.861 76.9304C159.845 78.6088 160.338 80.5233 161.094 82.3169C162.094 84.6875 163.57 86.854 165.404 88.6587C161.897 88.1738 158.598 86.1971 156.594 83.2702Z" fill="#329F5B"/>
<path d="M150.439 78.0007C150.613 76.7477 151.36 74.7886 152.597 73.8889C153.049 75.1177 153.499 76.3472 153.951 77.5767C154.674 79.5456 155.409 81.538 156.594 83.2688C158.597 86.1956 161.896 88.1723 165.403 88.6572C165.45 88.703 165.494 88.7521 165.542 88.7979C162.072 90.191 157.905 89.835 154.828 87.7117C151.75 85.5877 149.924 81.7049 150.439 78.0007Z" fill="#0C8346"/>
<mask id="mask3_2103_794" style="mask-type:luminance" maskUnits="userSpaceOnUse" x="105" y="6" width="46" height="26">
<path d="M105.53 6.04861H150.48V31.3452H105.53V6.04861Z" fill="white"/>
</mask>
<g mask="url(#mask3_2103_794)">
<g opacity="0.5">
<path d="M105.53 9.78978C108.596 8.76836 111.895 8.24947 115.167 8.6604C118.438 9.02224 121.59 10.5972 123.865 13.0013C126.129 15.4171 127.658 18.4584 128.409 21.6404C128.781 23.2344 129.005 24.8558 129.092 26.4806C129.164 28.1059 129.134 29.7313 128.99 31.3442C128.974 29.7254 128.935 28.1085 128.747 26.5074C128.592 24.9056 128.31 23.3182 127.884 21.7759C127.044 18.6972 125.566 15.7704 123.356 13.4881C122.27 12.3391 121.009 11.3504 119.6 10.6352C118.196 9.90756 116.66 9.45345 115.089 9.19434C113.518 8.92737 111.905 8.90774 110.304 9.02683C108.699 9.12629 107.108 9.42728 105.53 9.78978Z" fill="#FFF8ED"/>
<path d="M120.312 6.17687C123.647 5.99561 127.05 5.88569 130.364 6.71996C133.688 7.52545 136.649 9.56567 138.833 12.1699C141.004 14.8062 142.448 17.9928 143.155 21.2979C143.514 22.9514 143.706 24.6344 143.778 26.3147C143.826 27.9976 143.77 29.6793 143.583 31.3452C143.61 29.6701 143.597 27.9963 143.433 26.3363C143.292 24.6769 143.043 23.0267 142.627 21.4216C141.826 18.2114 140.429 15.1334 138.292 12.6208C137.243 11.3559 136.037 10.218 134.673 9.30328C133.317 8.37412 131.802 7.71063 130.222 7.24016C128.638 6.77885 126.985 6.53544 125.325 6.40785C123.663 6.25211 121.988 6.23706 120.312 6.17687Z" fill="#FFF8ED"/>
<path d="M130.645 6.88289C132.093 6.99282 133.527 7.28596 134.934 7.67987C136.334 8.09799 137.697 8.6496 139.004 9.31768C141.618 10.6538 143.97 12.5265 145.853 14.8049C147.723 17.0938 149.08 19.7949 149.792 22.6478C150.15 24.0729 150.369 25.5282 150.455 26.9867C150.513 28.4465 150.47 29.9076 150.261 31.3452C150.291 29.8939 150.256 28.4472 150.068 27.0188C149.907 25.5903 149.625 24.1783 149.207 22.8107C148.379 20.0776 147.055 17.4982 145.243 15.3055C143.445 13.1004 141.192 11.2748 138.714 9.849C137.474 9.13381 136.166 8.53247 134.813 8.04565C133.467 7.53461 132.068 7.16949 130.645 6.88289Z" fill="#FFF8ED"/>
</g>
</g>
</svg>
