<svg width="22" height="22" viewBox="0 0 22 22" fill="none" xmlns="http://www.w3.org/2000/svg">
<path d="M20.3674 4.64047C20.2299 4.50297 19.9979 4.49437 19.8518 4.62328C19.783 4.68344 13.3119 10.4842 10.708 12.8303C10.3471 13.1569 9.78848 13.3202 9.04942 13.3202C7.51113 13.3202 6.22207 12.9077 6.20489 12.8991C6.10176 12.8561 5.98145 12.8561 5.87832 12.9163C5.43145 13.1655 3.74707 14.592 0.00878906 16.1131V17.617C0.00878906 17.617 3.4377 17.617 10.3814 17.6084C11.7307 17.6084 17.626 12.2545 18.2705 11.9795C18.3736 12.0655 18.451 17.4623 18.451 17.617L20.6596 17.6084L20.7197 14.0592C20.7197 12.3834 21.8369 10.4498 21.8369 10.0803C21.8283 9.94281 21.9572 6.23031 20.3674 4.64047Z" fill="white"/>
</svg>
