<svg width="22" height="22" viewBox="0 0 22 22" fill="none" xmlns="http://www.w3.org/2000/svg">
<g clip-path="url(#clip0_2272_740)">
<path d="M21.2592 19.7263C21.0532 18.7238 20.7899 17.3386 20.4852 15.734C18.9375 7.58708 18.0938 3.60839 17.4851 3.03381C16.9927 2.5685 15.3643 2.03427 14.8884 1.88504L13.8599 0.513691C13.8555 0.507805 13.8496 0.504152 13.8449 0.498652C13.8382 0.490574 13.8331 0.481766 13.8258 0.474074C13.8192 0.467457 13.8097 0.463074 13.8031 0.456844C13.7909 0.446574 13.7785 0.437035 13.7653 0.428227C13.2659 0.00438278 12.2154 0 10.9999 0C9.78405 0 8.73355 0.00438282 8.23417 0.428613C8.22132 0.437035 8.20925 0.44623 8.19752 0.456457C8.19056 0.463074 8.18063 0.467457 8.17406 0.474074C8.16671 0.481766 8.1616 0.490961 8.15498 0.498652C8.15021 0.504152 8.14437 0.507805 8.13994 0.513691L7.11144 1.88504C6.63552 2.03427 5.00713 2.5685 4.5151 3.03381C3.90601 3.60839 3.06271 7.58708 1.51463 15.734C1.20994 17.3386 0.946671 18.7238 0.740979 19.7263C0.72044 19.8257 0.742096 19.9283 0.800362 20.0112C0.858284 20.0937 0.948132 20.149 1.04786 20.1633L3.61451 20.53C3.80886 20.5579 3.99255 20.4255 4.0274 20.2319C4.48502 17.6956 5.71663 10.9827 5.91648 10.3828C6.04337 10.003 6.3081 9.34261 6.5354 8.79149C6.77151 9.72061 6.92298 10.7524 6.95632 11.7043L6.54124 13.8537C6.06605 15.9815 5.4999 18.9313 5.4999 20.8999C5.4999 20.9061 5.50321 20.9109 5.50321 20.9168C5.50505 20.9513 5.51236 20.9839 5.52336 21.0158C5.52701 21.0264 5.52774 21.0382 5.53217 21.0481C5.55013 21.0884 5.57432 21.1255 5.60551 21.157C5.61213 21.1636 5.6209 21.1672 5.62751 21.1731C5.65098 21.1932 5.67409 21.2138 5.70267 21.2281C5.70817 21.2306 5.7144 21.2324 5.7199 21.2354C5.72282 21.2365 5.7254 21.2376 5.72832 21.2387C7.27167 21.9989 9.51344 22 10.9999 22C12.4868 22 14.7282 21.9989 16.2715 21.2388C16.2744 21.2377 16.277 21.2366 16.2799 21.2355C16.2854 21.2326 16.2917 21.2307 16.2972 21.2282C16.3258 21.2138 16.3492 21.1933 16.3723 21.1732C16.3793 21.1669 16.3877 21.1636 16.3943 21.157C16.4255 21.1255 16.4497 21.0885 16.4677 21.0482C16.4721 21.0383 16.4732 21.0265 16.4765 21.0159C16.4875 20.9836 16.4952 20.9513 16.4966 20.9169C16.497 20.911 16.4999 20.9063 16.4999 20.9C16.4999 18.9314 15.9338 15.9815 15.4608 13.864L15.0436 11.7044C15.0773 10.7522 15.2284 9.72035 15.4645 8.79158C15.6918 9.3427 15.9569 10.003 16.0834 10.3829C16.2832 10.9828 17.5149 17.6957 17.9725 20.232C18.0073 20.4256 18.1896 20.5579 18.3854 20.5301L20.952 20.1634C21.0517 20.1491 21.1416 20.0938 21.1995 20.0113C21.2582 19.9283 21.2794 19.8257 21.2592 19.7263ZM13.4162 3.33261C13.4261 3.29777 13.4335 3.26773 13.4426 3.234C13.461 3.16581 13.4797 3.09723 13.494 3.03561C13.5028 2.99896 13.5083 2.96815 13.5152 2.93404C13.5262 2.88269 13.5372 2.831 13.5446 2.78588C13.5497 2.75361 13.5516 2.72757 13.5549 2.699C13.5582 2.66892 13.5644 2.63411 13.5655 2.60842L13.7653 1.60961L14.2768 2.29122L13.7496 5.14684C13.6912 5.48273 13.6066 5.80942 13.4966 6.12365C13.1677 7.06707 12.6158 7.89796 11.8924 8.5235C11.8084 8.59646 11.7248 8.66357 11.642 8.72738C11.6152 8.74792 11.5888 8.76588 11.5624 8.7853C11.507 8.826 11.452 8.86561 11.3978 8.90192C11.3872 8.90888 11.3772 8.91477 11.3666 8.92173V7.83896C11.3747 7.82908 11.3835 7.8155 11.3919 7.80523C11.4147 7.77588 11.4385 7.74288 11.462 7.70988C11.4921 7.6688 11.5218 7.627 11.5529 7.58046C11.5775 7.54308 11.6028 7.50307 11.6281 7.46277C11.6603 7.41181 11.6926 7.35939 11.7256 7.30366C11.7512 7.26004 11.7773 7.21454 11.8037 7.16835C11.8374 7.10858 11.8716 7.04735 11.906 6.98354C11.9328 6.93477 11.9592 6.88527 11.9859 6.83392C12.0211 6.76646 12.0567 6.69788 12.0923 6.62677C12.1187 6.57469 12.1447 6.523 12.1711 6.46912C12.2074 6.3947 12.2441 6.31916 12.2808 6.24177C12.3064 6.18789 12.3318 6.13396 12.3574 6.07896C12.3941 5.99938 12.4304 5.91946 12.4667 5.83881C12.492 5.78308 12.5169 5.72769 12.5415 5.67162C12.5781 5.58839 12.6137 5.50516 12.6496 5.4212C12.6731 5.36658 12.6966 5.31231 12.7193 5.25766C12.7559 5.16966 12.7915 5.08277 12.8267 4.99512C12.8476 4.94416 12.8685 4.8932 12.8887 4.84223C12.925 4.7502 12.9598 4.66 12.9943 4.56981C13.0115 4.52435 13.0295 4.4785 13.0464 4.43377C13.0834 4.3355 13.1175 4.24016 13.1516 4.14485C13.1637 4.11039 13.1773 4.07408 13.1894 4.03997C13.2784 3.78512 13.3554 3.54604 13.4162 3.33261ZM11.3622 6.45773C11.3472 6.48708 11.3325 6.51385 11.3178 6.54242C11.2812 6.61207 11.2452 6.67954 11.2097 6.74407C11.1921 6.77561 11.1748 6.80604 11.1576 6.83611C11.1224 6.89807 11.0879 6.956 11.0542 7.01138C11.0406 7.03377 11.0267 7.05723 11.0131 7.07811C11.0087 7.08546 11.0047 7.09096 10.9999 7.09792C10.9956 7.09096 10.9911 7.08546 10.9867 7.07811C10.9736 7.05723 10.9596 7.03373 10.9461 7.01138C10.9119 6.956 10.8775 6.89807 10.8423 6.83611C10.8251 6.80604 10.8078 6.77561 10.7906 6.74407C10.7547 6.67919 10.718 6.61096 10.6813 6.54057C10.6667 6.51307 10.6527 6.48704 10.6381 6.45846C10.5886 6.36238 10.5387 6.26231 10.4884 6.15854C10.4716 6.12369 10.4547 6.08704 10.4378 6.05146C10.4022 5.97665 10.3667 5.90111 10.3311 5.82377C10.311 5.78089 10.2912 5.73723 10.2714 5.69362C10.2365 5.61662 10.2021 5.5385 10.1676 5.46004C10.15 5.42042 10.1324 5.38085 10.1152 5.3405C10.0664 5.22831 10.0184 5.115 9.97144 5.00208C9.9564 4.96577 9.94175 4.92946 9.92705 4.8932C9.89259 4.80996 9.85886 4.72673 9.82586 4.64423C9.80824 4.59985 9.79101 4.55585 9.77378 4.51185C9.74298 4.43373 9.71328 4.35639 9.68394 4.27973C9.66928 4.24123 9.65424 4.202 9.63994 4.16423C9.59924 4.05535 9.56001 3.949 9.52297 3.84596C9.51344 3.81885 9.50463 3.79354 9.49547 3.76677C9.46724 3.68719 9.44047 3.60946 9.41517 3.53465C9.40417 3.50131 9.39355 3.46865 9.3829 3.43638C9.36051 3.36819 9.34001 3.30327 9.32055 3.24057C9.31247 3.2138 9.30366 3.18596 9.29597 3.16027C9.27178 3.07888 9.25012 3.00261 9.23216 2.9333H12.7675C12.7496 3.00261 12.7279 3.07888 12.7037 3.16027C12.696 3.1863 12.6872 3.21415 12.6792 3.2413C12.6597 3.30292 12.6395 3.36742 12.6175 3.43492C12.6065 3.46831 12.5955 3.50165 12.5838 3.53611C12.5589 3.61127 12.5317 3.689 12.5035 3.76896C12.4947 3.79461 12.4863 3.81885 12.4771 3.84484C12.4401 3.94788 12.4009 4.05496 12.3598 4.16419C12.3455 4.20196 12.3304 4.24119 12.3158 4.27969C12.2864 4.3563 12.2567 4.43369 12.2259 4.5118C12.2087 4.5558 12.1915 4.5998 12.1738 4.64419C12.1408 4.72669 12.1071 4.80992 12.0727 4.89315C12.058 4.92946 12.0433 4.96577 12.0283 5.00204C11.9813 5.11496 11.9333 5.22827 11.8845 5.34046C11.8673 5.38081 11.8497 5.42038 11.8321 5.46C11.7977 5.53846 11.7632 5.61657 11.7283 5.69357C11.7085 5.73719 11.6887 5.78084 11.669 5.82373C11.633 5.90184 11.5971 5.97811 11.5612 6.05327C11.5447 6.08811 11.5282 6.12365 11.5117 6.15777C11.4616 6.26119 11.4117 6.36165 11.3622 6.45773ZM10.9999 0.733348C11.7501 0.733348 12.7405 0.733348 13.1589 0.902731L13.0723 1.33538L12.8992 2.2H9.10059L8.92751 1.33538L8.84097 0.902731C9.25936 0.733348 10.2497 0.733348 10.9999 0.733348ZM8.23451 1.60965L8.43436 2.60846C8.43548 2.63411 8.44171 2.66896 8.44497 2.69904C8.44828 2.72766 8.45009 2.75365 8.45524 2.78592C8.46259 2.83104 8.47359 2.88273 8.48459 2.93408C8.49155 2.9682 8.49705 2.99896 8.50586 3.03566C8.52017 3.09727 8.53886 3.16581 8.55755 3.23404C8.56636 3.26777 8.57367 3.29785 8.58359 3.33266C8.64448 3.54604 8.72148 3.78512 8.81055 4.03997C8.82267 4.07408 8.83621 4.11035 8.84867 4.14485C8.8824 4.2402 8.91651 4.3355 8.95351 4.43377C8.9704 4.4785 8.98836 4.52435 9.00559 4.56981C9.04044 4.66 9.0749 4.7502 9.11121 4.84223C9.13136 4.8932 9.15263 4.94416 9.17317 4.99512C9.20874 5.08273 9.24394 5.16966 9.28059 5.25766C9.30332 5.31227 9.32678 5.36654 9.35024 5.4212C9.38616 5.50516 9.42174 5.58839 9.45839 5.67162C9.48297 5.72773 9.50789 5.78308 9.5332 5.83881C9.56951 5.91946 9.60582 5.99943 9.64247 6.07896C9.66812 6.13396 9.69382 6.18784 9.71947 6.24177C9.75578 6.31916 9.79243 6.39465 9.82908 6.46912C9.85512 6.523 9.88151 6.57473 9.90755 6.62677C9.94347 6.69793 9.9787 6.76646 10.0142 6.83392C10.041 6.88527 10.0674 6.93477 10.0938 6.98354C10.1283 7.04735 10.1624 7.10858 10.1965 7.16835C10.2225 7.21454 10.2485 7.26 10.2742 7.30366C10.3075 7.35939 10.3398 7.41181 10.3717 7.46277C10.397 7.50312 10.4224 7.54308 10.4469 7.58046C10.478 7.62704 10.5078 7.66885 10.5378 7.70988C10.5613 7.74288 10.5851 7.77588 10.6082 7.80523C10.6163 7.8155 10.6251 7.82908 10.6331 7.83896V8.92173C10.6225 8.91477 10.6122 8.90888 10.6016 8.90158C10.5495 8.86673 10.4963 8.82823 10.4432 8.78939C10.4138 8.76812 10.3853 8.74831 10.3559 8.72558C10.2892 8.67462 10.2221 8.61923 10.1546 8.56204C10.1388 8.54885 10.1235 8.53712 10.1073 8.52354C9.91992 8.36112 9.74762 8.18142 9.58408 7.99335C8.90612 7.21346 8.43788 6.22785 8.24942 5.14289L7.72289 2.29131L8.23451 1.60965ZM10.9999 21.2667C10.0466 21.2667 8.76733 21.2667 7.60936 21.0591C7.61194 21.0584 7.61452 21.0573 7.61705 21.0569C7.79344 21.0122 7.96282 20.9587 8.12928 20.9003C8.17036 20.886 8.21105 20.8717 8.2514 20.8567C8.41752 20.7944 8.58067 20.7277 8.73579 20.6525C8.73798 20.6514 8.74017 20.6499 8.7424 20.6488C8.89529 20.5744 9.04086 20.4915 9.18279 20.405C9.21798 20.3834 9.25283 20.3617 9.2869 20.3394C9.42771 20.2485 9.5641 20.1538 9.69244 20.0512C9.6939 20.0501 9.69537 20.0486 9.69683 20.0472C9.82294 19.946 9.94067 19.837 10.0539 19.7248C10.0829 19.6962 10.1111 19.6673 10.139 19.638C10.2501 19.5217 10.3572 19.4022 10.4544 19.2757C10.4558 19.2735 10.4569 19.2717 10.4584 19.2695C10.5541 19.1448 10.6403 19.0132 10.7217 18.8786C10.7429 18.8437 10.7635 18.8085 10.7836 18.773C10.8625 18.634 10.9365 18.4925 11 18.3443C11.0653 18.4965 11.1419 18.6425 11.2236 18.7851C11.239 18.8122 11.2548 18.8393 11.2709 18.8661C11.4418 19.1503 11.6442 19.4135 11.8763 19.6537C11.8943 19.6721 11.9123 19.6904 11.9306 19.7087C12.1704 19.9493 12.4403 20.1652 12.7369 20.3544C12.756 20.3665 12.7747 20.3783 12.7938 20.39C13.0951 20.577 13.4233 20.7365 13.7753 20.8663C13.7992 20.8751 13.8226 20.8835 13.8464 20.892C14.0232 20.9543 14.2036 21.0118 14.3913 21.0592C13.2326 21.2667 11.9532 21.2667 10.9999 21.2667Z" fill="white"/>
</g>
<defs>
<clipPath id="clip0_2272_740">
<rect width="22" height="22" fill="white"/>
</clipPath>
</defs>
</svg>
