<svg width="18" height="22" viewBox="0 0 18 22" fill="none" xmlns="http://www.w3.org/2000/svg">
<path d="M0.477539 22H17.5229C17.2192 12.9724 12.3292 10.7684 12.2086 8.90862C12.0881 7.0492 13.1739 6.03625 13.6543 4.20741L15.1886 4.99778L16.6845 2.75649C16.6845 2.75649 14.3893 0.91141 13.067 0C13.067 0 11.2595 1.46884 9.00026 1.46884C6.74114 1.46884 4.93344 0 4.93344 0C3.61116 0.911453 1.3159 2.75649 1.3159 2.75649L2.81199 4.99778L4.34614 4.20741C4.82654 6.03621 5.91253 7.0492 5.79187 8.90862C5.67126 10.7684 0.781328 12.9724 0.477539 22Z" fill="white"/>
</svg>
