<svg width="22" height="22" viewBox="0 0 22 22" fill="none" xmlns="http://www.w3.org/2000/svg">
<path d="M4.04411 0H11.0001H17.956L20.1396 21.5147L13.9118 22L11.485 8.73525H11.0001H10.5144L8.08872 22L1.86048 21.5147L4.04411 0ZM17.2279 0.889668H15.2062V2.02211H17.2279V0.889668ZM12.6013 5.82351C12.6013 6.38975 14.5828 7.36033 14.5828 7.36033C14.5828 7.36033 16.5642 6.38975 16.5642 5.82351C16.5642 5.59256 16.5642 5.16557 16.5642 4.74169H12.6013C12.6013 5.16562 12.6013 5.59256 12.6013 5.82351ZM12.6013 4.23607H16.5643C16.5643 3.83247 16.5643 3.51828 16.5643 3.51828H14.5828H12.6014C12.6013 3.51828 12.6013 3.83247 12.6013 4.23607ZM11.3638 2.02211H14.4781V0.889668H11.3638V2.02211ZM10.636 2.02211V0.889668H7.52205V2.02211H10.636ZM5.43591 5.82351C5.43591 6.38975 7.41694 7.36033 7.41694 7.36033C7.41694 7.36033 9.39879 6.38975 9.39879 5.82351C9.39879 5.59256 9.39879 5.16557 9.39879 4.74169H5.43591C5.43591 5.16562 5.43591 5.59256 5.43591 5.82351ZM5.43591 4.23607H9.39879C9.39879 3.83247 9.39879 3.51828 9.39879 3.51828H7.41694H5.43591C5.43591 3.51828 5.43591 3.83247 5.43591 4.23607ZM4.77222 2.02211H6.79394V0.889668H4.77222V2.02211Z" fill="white"/>
</svg>
