<svg width="22" height="22" viewBox="0 0 22 22" fill="none" xmlns="http://www.w3.org/2000/svg">
<path d="M4.5295 0H17.4707V2.58822H4.5295V0Z" fill="white"/>
<path d="M1.97123 18.5933L4.41718 4.5293H7.3941L6.79546 17.1008L8.73451 17.1931L9.33757 4.5293H12.6631L13.2661 17.1931L15.2051 17.1008L14.6064 4.5293H17.5834L20.0294 18.5933C20.0484 18.7028 20.0102 18.8151 19.9274 18.8895C19.1482 19.591 18.1509 19.859 17.2373 20.3002C16.2226 20.7903 15.3616 21.7274 14.3302 21.9388C13.1523 22.1802 11.9557 21.6279 11.0003 21.6279C10.0449 21.6279 8.84816 22.1802 7.67026 21.9388C6.63892 21.7274 5.77787 20.7903 4.76317 20.3002C3.84957 19.8589 2.85226 19.591 2.07315 18.8895C1.99052 18.815 1.95219 18.7028 1.97123 18.5933Z" fill="white"/>
</svg>
