<svg width="23" height="17" viewBox="0 0 23 17" fill="none" xmlns="http://www.w3.org/2000/svg">
<path d="M21.9691 5.79028L19.7892 7.16443C19.631 7.25944 19.4441 7.29475 19.2622 7.264C19.0803 7.23325 18.9154 7.13846 18.7973 6.99675L17.7144 5.6368V15.948C17.714 16.1269 17.6428 16.2983 17.5163 16.4248C17.3898 16.5513 17.2183 16.6226 17.0394 16.623H5.96942C5.79051 16.6226 5.61904 16.5513 5.49254 16.4248C5.36603 16.2983 5.29479 16.1269 5.29442 15.948V5.62543L4.20163 6.99675C4.08357 7.1381 3.91893 7.23266 3.73734 7.2634C3.55576 7.29414 3.36916 7.25905 3.21116 7.16443L1.02984 5.79028C0.956942 5.74838 0.894619 5.69033 0.847663 5.62059C0.800707 5.55084 0.770367 5.47126 0.758977 5.38796C0.747586 5.30466 0.755447 5.21985 0.781956 5.14006C0.808466 5.06027 0.852917 4.98762 0.911893 4.9277L4.10216 1.38643C4.47714 0.969597 4.93559 0.636276 5.44775 0.408107C5.9599 0.179938 6.51432 0.0620216 7.075 0.0620117H8.40368C8.66378 0.668813 9.0962 1.18596 9.64737 1.54938C10.1985 1.9128 10.8442 2.10651 11.5044 2.10651C12.1646 2.10651 12.8103 1.9128 13.3615 1.54938C13.9126 1.18596 14.3451 0.668813 14.6052 0.0620117H15.9324C16.4934 0.0621791 17.0481 0.180301 17.5605 0.408713C18.0729 0.637125 18.5316 0.970721 18.9067 1.38785L22.0898 4.92628C22.1487 4.98653 22.193 5.05946 22.2193 5.13949C22.2456 5.21951 22.2532 5.3045 22.2415 5.38792C22.2298 5.47134 22.1992 5.55098 22.152 5.62073C22.1048 5.69048 22.0422 5.74848 21.9691 5.79028Z" fill="white"/>
</svg>
